%TF.GenerationSoftware,KiCad,Pcbnew,(6.0.5-0)*%
%TF.CreationDate,2022-05-25T22:38:33-04:00*%
%TF.ProjectId,jv-2080-enc,6a762d32-3038-4302-9d65-6e632e6b6963,1*%
%TF.SameCoordinates,Original*%
%TF.FileFunction,Legend,Top*%
%TF.FilePolarity,Positive*%
%FSLAX46Y46*%
G04 Gerber Fmt 4.6, Leading zero omitted, Abs format (unit mm)*
G04 Created by KiCad (PCBNEW (6.0.5-0)) date 2022-05-25 22:38:33*
%MOMM*%
%LPD*%
G01*
G04 APERTURE LIST*
%ADD10C,0.150000*%
%ADD11C,0.100000*%
%ADD12C,2.000000*%
%ADD13R,2.800000X3.600000*%
%ADD14C,1.600000*%
%ADD15O,1.600000X1.600000*%
%ADD16R,1.600000X1.600000*%
%ADD17C,0.100000*%
%ADD18O,1.500000X4.000000*%
G04 APERTURE END LIST*
D10*
X136335595Y-103452380D02*
X136335595Y-102452380D01*
X136716547Y-102452380D01*
X136811785Y-102500000D01*
X136859404Y-102547619D01*
X136907023Y-102642857D01*
X136907023Y-102785714D01*
X136859404Y-102880952D01*
X136811785Y-102928571D01*
X136716547Y-102976190D01*
X136335595Y-102976190D01*
X137907023Y-103357142D02*
X137859404Y-103404761D01*
X137716547Y-103452380D01*
X137621309Y-103452380D01*
X137478452Y-103404761D01*
X137383214Y-103309523D01*
X137335595Y-103214285D01*
X137287976Y-103023809D01*
X137287976Y-102880952D01*
X137335595Y-102690476D01*
X137383214Y-102595238D01*
X137478452Y-102500000D01*
X137621309Y-102452380D01*
X137716547Y-102452380D01*
X137859404Y-102500000D01*
X137907023Y-102547619D01*
X138668928Y-102928571D02*
X138811785Y-102976190D01*
X138859404Y-103023809D01*
X138907023Y-103119047D01*
X138907023Y-103261904D01*
X138859404Y-103357142D01*
X138811785Y-103404761D01*
X138716547Y-103452380D01*
X138335595Y-103452380D01*
X138335595Y-102452380D01*
X138668928Y-102452380D01*
X138764166Y-102500000D01*
X138811785Y-102547619D01*
X138859404Y-102642857D01*
X138859404Y-102738095D01*
X138811785Y-102833333D01*
X138764166Y-102880952D01*
X138668928Y-102928571D01*
X138335595Y-102928571D01*
X140668928Y-103452380D02*
X140335595Y-102976190D01*
X140097500Y-103452380D02*
X140097500Y-102452380D01*
X140478452Y-102452380D01*
X140573690Y-102500000D01*
X140621309Y-102547619D01*
X140668928Y-102642857D01*
X140668928Y-102785714D01*
X140621309Y-102880952D01*
X140573690Y-102928571D01*
X140478452Y-102976190D01*
X140097500Y-102976190D01*
X141097500Y-102928571D02*
X141430833Y-102928571D01*
X141573690Y-103452380D02*
X141097500Y-103452380D01*
X141097500Y-102452380D01*
X141573690Y-102452380D01*
X141859404Y-102452380D02*
X142192738Y-103452380D01*
X142526071Y-102452380D01*
X142859404Y-103357142D02*
X142907023Y-103404761D01*
X142859404Y-103452380D01*
X142811785Y-103404761D01*
X142859404Y-103357142D01*
X142859404Y-103452380D01*
X144621309Y-103452380D02*
X144049880Y-103452380D01*
X144335595Y-103452380D02*
X144335595Y-102452380D01*
X144240357Y-102595238D01*
X144145119Y-102690476D01*
X144049880Y-102738095D01*
X124047619Y-98647380D02*
X124047619Y-97647380D01*
X124523809Y-98647380D02*
X124523809Y-97647380D01*
X125095238Y-98647380D01*
X125095238Y-97647380D01*
X125523809Y-98599761D02*
X125666666Y-98647380D01*
X125904761Y-98647380D01*
X126000000Y-98599761D01*
X126047619Y-98552142D01*
X126095238Y-98456904D01*
X126095238Y-98361666D01*
X126047619Y-98266428D01*
X126000000Y-98218809D01*
X125904761Y-98171190D01*
X125714285Y-98123571D01*
X125619047Y-98075952D01*
X125571428Y-98028333D01*
X125523809Y-97933095D01*
X125523809Y-97837857D01*
X125571428Y-97742619D01*
X125619047Y-97695000D01*
X125714285Y-97647380D01*
X125952380Y-97647380D01*
X126095238Y-97695000D01*
X126380952Y-97647380D02*
X126952380Y-97647380D01*
X126666666Y-98647380D02*
X126666666Y-97647380D01*
X127238095Y-98361666D02*
X127714285Y-98361666D01*
X127142857Y-98647380D02*
X127476190Y-97647380D01*
X127809523Y-98647380D01*
X128619047Y-98647380D02*
X128142857Y-98647380D01*
X128142857Y-97647380D01*
X129428571Y-98647380D02*
X128952380Y-98647380D01*
X128952380Y-97647380D01*
X130523809Y-98123571D02*
X130857142Y-98123571D01*
X131000000Y-98647380D02*
X130523809Y-98647380D01*
X130523809Y-97647380D01*
X131000000Y-97647380D01*
X131428571Y-98647380D02*
X131428571Y-97647380D01*
X132000000Y-98647380D01*
X132000000Y-97647380D01*
X133047619Y-98552142D02*
X133000000Y-98599761D01*
X132857142Y-98647380D01*
X132761904Y-98647380D01*
X132619047Y-98599761D01*
X132523809Y-98504523D01*
X132476190Y-98409285D01*
X132428571Y-98218809D01*
X132428571Y-98075952D01*
X132476190Y-97885476D01*
X132523809Y-97790238D01*
X132619047Y-97695000D01*
X132761904Y-97647380D01*
X132857142Y-97647380D01*
X133000000Y-97695000D01*
X133047619Y-97742619D01*
X133666666Y-97647380D02*
X133857142Y-97647380D01*
X133952380Y-97695000D01*
X134047619Y-97790238D01*
X134095238Y-97980714D01*
X134095238Y-98314047D01*
X134047619Y-98504523D01*
X133952380Y-98599761D01*
X133857142Y-98647380D01*
X133666666Y-98647380D01*
X133571428Y-98599761D01*
X133476190Y-98504523D01*
X133428571Y-98314047D01*
X133428571Y-97980714D01*
X133476190Y-97790238D01*
X133571428Y-97695000D01*
X133666666Y-97647380D01*
X134523809Y-98647380D02*
X134523809Y-97647380D01*
X134761904Y-97647380D01*
X134904761Y-97695000D01*
X135000000Y-97790238D01*
X135047619Y-97885476D01*
X135095238Y-98075952D01*
X135095238Y-98218809D01*
X135047619Y-98409285D01*
X135000000Y-98504523D01*
X134904761Y-98599761D01*
X134761904Y-98647380D01*
X134523809Y-98647380D01*
X135523809Y-98123571D02*
X135857142Y-98123571D01*
X136000000Y-98647380D02*
X135523809Y-98647380D01*
X135523809Y-97647380D01*
X136000000Y-97647380D01*
X137000000Y-98647380D02*
X136666666Y-98171190D01*
X136428571Y-98647380D02*
X136428571Y-97647380D01*
X136809523Y-97647380D01*
X136904761Y-97695000D01*
X136952380Y-97742619D01*
X137000000Y-97837857D01*
X137000000Y-97980714D01*
X136952380Y-98075952D01*
X136904761Y-98123571D01*
X136809523Y-98171190D01*
X136428571Y-98171190D01*
X125833333Y-99257380D02*
X126023809Y-99257380D01*
X126119047Y-99305000D01*
X126214285Y-99400238D01*
X126261904Y-99590714D01*
X126261904Y-99924047D01*
X126214285Y-100114523D01*
X126119047Y-100209761D01*
X126023809Y-100257380D01*
X125833333Y-100257380D01*
X125738095Y-100209761D01*
X125642857Y-100114523D01*
X125595238Y-99924047D01*
X125595238Y-99590714D01*
X125642857Y-99400238D01*
X125738095Y-99305000D01*
X125833333Y-99257380D01*
X126690476Y-100257380D02*
X126690476Y-99257380D01*
X127261904Y-100257380D01*
X127261904Y-99257380D01*
X128357142Y-99257380D02*
X128928571Y-99257380D01*
X128642857Y-100257380D02*
X128642857Y-99257380D01*
X129261904Y-100257380D02*
X129261904Y-99257380D01*
X129261904Y-99733571D02*
X129833333Y-99733571D01*
X129833333Y-100257380D02*
X129833333Y-99257380D01*
X130309523Y-100257380D02*
X130309523Y-99257380D01*
X130738095Y-100209761D02*
X130880952Y-100257380D01*
X131119047Y-100257380D01*
X131214285Y-100209761D01*
X131261904Y-100162142D01*
X131309523Y-100066904D01*
X131309523Y-99971666D01*
X131261904Y-99876428D01*
X131214285Y-99828809D01*
X131119047Y-99781190D01*
X130928571Y-99733571D01*
X130833333Y-99685952D01*
X130785714Y-99638333D01*
X130738095Y-99543095D01*
X130738095Y-99447857D01*
X130785714Y-99352619D01*
X130833333Y-99305000D01*
X130928571Y-99257380D01*
X131166666Y-99257380D01*
X131309523Y-99305000D01*
X132452380Y-100209761D02*
X132595238Y-100257380D01*
X132833333Y-100257380D01*
X132928571Y-100209761D01*
X132976190Y-100162142D01*
X133023809Y-100066904D01*
X133023809Y-99971666D01*
X132976190Y-99876428D01*
X132928571Y-99828809D01*
X132833333Y-99781190D01*
X132642857Y-99733571D01*
X132547619Y-99685952D01*
X132500000Y-99638333D01*
X132452380Y-99543095D01*
X132452380Y-99447857D01*
X132500000Y-99352619D01*
X132547619Y-99305000D01*
X132642857Y-99257380D01*
X132880952Y-99257380D01*
X133023809Y-99305000D01*
X133452380Y-100257380D02*
X133452380Y-99257380D01*
X133928571Y-100257380D02*
X133928571Y-99257380D01*
X134166666Y-99257380D01*
X134309523Y-99305000D01*
X134404761Y-99400238D01*
X134452380Y-99495476D01*
X134500000Y-99685952D01*
X134500000Y-99828809D01*
X134452380Y-100019285D01*
X134404761Y-100114523D01*
X134309523Y-100209761D01*
X134166666Y-100257380D01*
X133928571Y-100257380D01*
X134928571Y-99733571D02*
X135261904Y-99733571D01*
X135404761Y-100257380D02*
X134928571Y-100257380D01*
X134928571Y-99257380D01*
X135404761Y-99257380D01*
X140380952Y-96147380D02*
X140380952Y-95147380D01*
X140380952Y-95623571D02*
X140952380Y-95623571D01*
X140952380Y-96147380D02*
X140952380Y-95147380D01*
X141619047Y-95147380D02*
X141809523Y-95147380D01*
X141904761Y-95195000D01*
X142000000Y-95290238D01*
X142047619Y-95480714D01*
X142047619Y-95814047D01*
X142000000Y-96004523D01*
X141904761Y-96099761D01*
X141809523Y-96147380D01*
X141619047Y-96147380D01*
X141523809Y-96099761D01*
X141428571Y-96004523D01*
X141380952Y-95814047D01*
X141380952Y-95480714D01*
X141428571Y-95290238D01*
X141523809Y-95195000D01*
X141619047Y-95147380D01*
X142476190Y-96147380D02*
X142476190Y-95147380D01*
X142809523Y-95861666D01*
X143142857Y-95147380D01*
X143142857Y-96147380D01*
X143809523Y-95147380D02*
X144000000Y-95147380D01*
X144095238Y-95195000D01*
X144190476Y-95290238D01*
X144238095Y-95480714D01*
X144238095Y-95814047D01*
X144190476Y-96004523D01*
X144095238Y-96099761D01*
X144000000Y-96147380D01*
X143809523Y-96147380D01*
X143714285Y-96099761D01*
X143619047Y-96004523D01*
X143571428Y-95814047D01*
X143571428Y-95480714D01*
X143619047Y-95290238D01*
X143714285Y-95195000D01*
X143809523Y-95147380D01*
X145428571Y-95623571D02*
X145761904Y-95623571D01*
X145904761Y-96147380D02*
X145428571Y-96147380D01*
X145428571Y-95147380D01*
X145904761Y-95147380D01*
X146809523Y-96147380D02*
X146333333Y-96147380D01*
X146333333Y-95147380D01*
X147142857Y-95623571D02*
X147476190Y-95623571D01*
X147619047Y-96147380D02*
X147142857Y-96147380D01*
X147142857Y-95147380D01*
X147619047Y-95147380D01*
X148619047Y-96052142D02*
X148571428Y-96099761D01*
X148428571Y-96147380D01*
X148333333Y-96147380D01*
X148190476Y-96099761D01*
X148095238Y-96004523D01*
X148047619Y-95909285D01*
X148000000Y-95718809D01*
X148000000Y-95575952D01*
X148047619Y-95385476D01*
X148095238Y-95290238D01*
X148190476Y-95195000D01*
X148333333Y-95147380D01*
X148428571Y-95147380D01*
X148571428Y-95195000D01*
X148619047Y-95242619D01*
X148904761Y-95147380D02*
X149476190Y-95147380D01*
X149190476Y-96147380D02*
X149190476Y-95147380D01*
X150380952Y-96147380D02*
X150047619Y-95671190D01*
X149809523Y-96147380D02*
X149809523Y-95147380D01*
X150190476Y-95147380D01*
X150285714Y-95195000D01*
X150333333Y-95242619D01*
X150380952Y-95337857D01*
X150380952Y-95480714D01*
X150333333Y-95575952D01*
X150285714Y-95623571D01*
X150190476Y-95671190D01*
X149809523Y-95671190D01*
X151000000Y-95147380D02*
X151190476Y-95147380D01*
X151285714Y-95195000D01*
X151380952Y-95290238D01*
X151428571Y-95480714D01*
X151428571Y-95814047D01*
X151380952Y-96004523D01*
X151285714Y-96099761D01*
X151190476Y-96147380D01*
X151000000Y-96147380D01*
X150904761Y-96099761D01*
X150809523Y-96004523D01*
X150761904Y-95814047D01*
X150761904Y-95480714D01*
X150809523Y-95290238D01*
X150904761Y-95195000D01*
X151000000Y-95147380D01*
X151857142Y-95766428D02*
X152619047Y-95766428D01*
X139857142Y-97757380D02*
X139857142Y-96757380D01*
X140190476Y-97471666D01*
X140523809Y-96757380D01*
X140523809Y-97757380D01*
X140952380Y-97471666D02*
X141428571Y-97471666D01*
X140857142Y-97757380D02*
X141190476Y-96757380D01*
X141523809Y-97757380D01*
X142380952Y-96805000D02*
X142285714Y-96757380D01*
X142142857Y-96757380D01*
X142000000Y-96805000D01*
X141904761Y-96900238D01*
X141857142Y-96995476D01*
X141809523Y-97185952D01*
X141809523Y-97328809D01*
X141857142Y-97519285D01*
X141904761Y-97614523D01*
X142000000Y-97709761D01*
X142142857Y-97757380D01*
X142238095Y-97757380D01*
X142380952Y-97709761D01*
X142428571Y-97662142D01*
X142428571Y-97328809D01*
X142238095Y-97328809D01*
X142857142Y-97757380D02*
X142857142Y-96757380D01*
X143428571Y-97757380D01*
X143428571Y-96757380D01*
X143904761Y-97233571D02*
X144238095Y-97233571D01*
X144380952Y-97757380D02*
X143904761Y-97757380D01*
X143904761Y-96757380D01*
X144380952Y-96757380D01*
X144666666Y-96757380D02*
X145238095Y-96757380D01*
X144952380Y-97757380D02*
X144952380Y-96757380D01*
X145571428Y-97757380D02*
X145571428Y-96757380D01*
X146619047Y-97662142D02*
X146571428Y-97709761D01*
X146428571Y-97757380D01*
X146333333Y-97757380D01*
X146190476Y-97709761D01*
X146095238Y-97614523D01*
X146047619Y-97519285D01*
X146000000Y-97328809D01*
X146000000Y-97185952D01*
X146047619Y-96995476D01*
X146095238Y-96900238D01*
X146190476Y-96805000D01*
X146333333Y-96757380D01*
X146428571Y-96757380D01*
X146571428Y-96805000D01*
X146619047Y-96852619D01*
X147047619Y-96757380D02*
X147047619Y-97566904D01*
X147095238Y-97662142D01*
X147142857Y-97709761D01*
X147238095Y-97757380D01*
X147428571Y-97757380D01*
X147523809Y-97709761D01*
X147571428Y-97662142D01*
X147619047Y-97566904D01*
X147619047Y-96757380D01*
X148047619Y-97709761D02*
X148190476Y-97757380D01*
X148428571Y-97757380D01*
X148523809Y-97709761D01*
X148571428Y-97662142D01*
X148619047Y-97566904D01*
X148619047Y-97471666D01*
X148571428Y-97376428D01*
X148523809Y-97328809D01*
X148428571Y-97281190D01*
X148238095Y-97233571D01*
X148142857Y-97185952D01*
X148095238Y-97138333D01*
X148047619Y-97043095D01*
X148047619Y-96947857D01*
X148095238Y-96852619D01*
X148142857Y-96805000D01*
X148238095Y-96757380D01*
X148476190Y-96757380D01*
X148619047Y-96805000D01*
X149761904Y-96852619D02*
X149809523Y-96805000D01*
X149904761Y-96757380D01*
X150142857Y-96757380D01*
X150238095Y-96805000D01*
X150285714Y-96852619D01*
X150333333Y-96947857D01*
X150333333Y-97043095D01*
X150285714Y-97185952D01*
X149714285Y-97757380D01*
X150333333Y-97757380D01*
X150952380Y-96757380D02*
X151047619Y-96757380D01*
X151142857Y-96805000D01*
X151190476Y-96852619D01*
X151238095Y-96947857D01*
X151285714Y-97138333D01*
X151285714Y-97376428D01*
X151238095Y-97566904D01*
X151190476Y-97662142D01*
X151142857Y-97709761D01*
X151047619Y-97757380D01*
X150952380Y-97757380D01*
X150857142Y-97709761D01*
X150809523Y-97662142D01*
X150761904Y-97566904D01*
X150714285Y-97376428D01*
X150714285Y-97138333D01*
X150761904Y-96947857D01*
X150809523Y-96852619D01*
X150857142Y-96805000D01*
X150952380Y-96757380D01*
X151666666Y-96852619D02*
X151714285Y-96805000D01*
X151809523Y-96757380D01*
X152047619Y-96757380D01*
X152142857Y-96805000D01*
X152190476Y-96852619D01*
X152238095Y-96947857D01*
X152238095Y-97043095D01*
X152190476Y-97185952D01*
X151619047Y-97757380D01*
X152238095Y-97757380D01*
X152619047Y-96852619D02*
X152666666Y-96805000D01*
X152761904Y-96757380D01*
X153000000Y-96757380D01*
X153095238Y-96805000D01*
X153142857Y-96852619D01*
X153190476Y-96947857D01*
X153190476Y-97043095D01*
X153142857Y-97185952D01*
X152571428Y-97757380D01*
X153190476Y-97757380D01*
X139407023Y-89397380D02*
X139073690Y-88921190D01*
X138835595Y-89397380D02*
X138835595Y-88397380D01*
X139216547Y-88397380D01*
X139311785Y-88445000D01*
X139359404Y-88492619D01*
X139407023Y-88587857D01*
X139407023Y-88730714D01*
X139359404Y-88825952D01*
X139311785Y-88873571D01*
X139216547Y-88921190D01*
X138835595Y-88921190D01*
X139835595Y-88873571D02*
X140168928Y-88873571D01*
X140311785Y-89397380D02*
X139835595Y-89397380D01*
X139835595Y-88397380D01*
X140311785Y-88397380D01*
X140740357Y-89397380D02*
X140740357Y-88397380D01*
X141121309Y-88397380D01*
X141216547Y-88445000D01*
X141264166Y-88492619D01*
X141311785Y-88587857D01*
X141311785Y-88730714D01*
X141264166Y-88825952D01*
X141216547Y-88873571D01*
X141121309Y-88921190D01*
X140740357Y-88921190D01*
X142216547Y-89397380D02*
X141740357Y-89397380D01*
X141740357Y-88397380D01*
X142502261Y-89111666D02*
X142978452Y-89111666D01*
X142407023Y-89397380D02*
X142740357Y-88397380D01*
X143073690Y-89397380D01*
X143978452Y-89302142D02*
X143930833Y-89349761D01*
X143787976Y-89397380D01*
X143692738Y-89397380D01*
X143549880Y-89349761D01*
X143454642Y-89254523D01*
X143407023Y-89159285D01*
X143359404Y-88968809D01*
X143359404Y-88825952D01*
X143407023Y-88635476D01*
X143454642Y-88540238D01*
X143549880Y-88445000D01*
X143692738Y-88397380D01*
X143787976Y-88397380D01*
X143930833Y-88445000D01*
X143978452Y-88492619D01*
X144407023Y-88873571D02*
X144740357Y-88873571D01*
X144883214Y-89397380D02*
X144407023Y-89397380D01*
X144407023Y-88397380D01*
X144883214Y-88397380D01*
X145311785Y-89397380D02*
X145311785Y-88397380D01*
X145645119Y-89111666D01*
X145978452Y-88397380D01*
X145978452Y-89397380D01*
X146454642Y-88873571D02*
X146787976Y-88873571D01*
X146930833Y-89397380D02*
X146454642Y-89397380D01*
X146454642Y-88397380D01*
X146930833Y-88397380D01*
X147359404Y-89397380D02*
X147359404Y-88397380D01*
X147930833Y-89397380D01*
X147930833Y-88397380D01*
X148264166Y-88397380D02*
X148835595Y-88397380D01*
X148549880Y-89397380D02*
X148549880Y-88397380D01*
X149930833Y-88873571D02*
X150264166Y-88873571D01*
X150407023Y-89397380D02*
X149930833Y-89397380D01*
X149930833Y-88397380D01*
X150407023Y-88397380D01*
X150835595Y-89397380D02*
X150835595Y-88397380D01*
X151407023Y-89397380D01*
X151407023Y-88397380D01*
X152454642Y-89302142D02*
X152407023Y-89349761D01*
X152264166Y-89397380D01*
X152168928Y-89397380D01*
X152026071Y-89349761D01*
X151930833Y-89254523D01*
X151883214Y-89159285D01*
X151835595Y-88968809D01*
X151835595Y-88825952D01*
X151883214Y-88635476D01*
X151930833Y-88540238D01*
X152026071Y-88445000D01*
X152168928Y-88397380D01*
X152264166Y-88397380D01*
X152407023Y-88445000D01*
X152454642Y-88492619D01*
X152883214Y-89302142D02*
X152930833Y-89349761D01*
X152883214Y-89397380D01*
X152835595Y-89349761D01*
X152883214Y-89302142D01*
X152883214Y-89397380D01*
X154454642Y-88873571D02*
X154597500Y-88921190D01*
X154645119Y-88968809D01*
X154692738Y-89064047D01*
X154692738Y-89206904D01*
X154645119Y-89302142D01*
X154597500Y-89349761D01*
X154502261Y-89397380D01*
X154121309Y-89397380D01*
X154121309Y-88397380D01*
X154454642Y-88397380D01*
X154549880Y-88445000D01*
X154597500Y-88492619D01*
X154645119Y-88587857D01*
X154645119Y-88683095D01*
X154597500Y-88778333D01*
X154549880Y-88825952D01*
X154454642Y-88873571D01*
X154121309Y-88873571D01*
X155311785Y-88397380D02*
X155502261Y-88397380D01*
X155597500Y-88445000D01*
X155692738Y-88540238D01*
X155740357Y-88730714D01*
X155740357Y-89064047D01*
X155692738Y-89254523D01*
X155597500Y-89349761D01*
X155502261Y-89397380D01*
X155311785Y-89397380D01*
X155216547Y-89349761D01*
X155121309Y-89254523D01*
X155073690Y-89064047D01*
X155073690Y-88730714D01*
X155121309Y-88540238D01*
X155216547Y-88445000D01*
X155311785Y-88397380D01*
X156121309Y-89111666D02*
X156597500Y-89111666D01*
X156026071Y-89397380D02*
X156359404Y-88397380D01*
X156692738Y-89397380D01*
X157597500Y-89397380D02*
X157264166Y-88921190D01*
X157026071Y-89397380D02*
X157026071Y-88397380D01*
X157407023Y-88397380D01*
X157502261Y-88445000D01*
X157549880Y-88492619D01*
X157597500Y-88587857D01*
X157597500Y-88730714D01*
X157549880Y-88825952D01*
X157502261Y-88873571D01*
X157407023Y-88921190D01*
X157026071Y-88921190D01*
X158026071Y-89397380D02*
X158026071Y-88397380D01*
X158264166Y-88397380D01*
X158407023Y-88445000D01*
X158502261Y-88540238D01*
X158549880Y-88635476D01*
X158597500Y-88825952D01*
X158597500Y-88968809D01*
X158549880Y-89159285D01*
X158502261Y-89254523D01*
X158407023Y-89349761D01*
X158264166Y-89397380D01*
X158026071Y-89397380D01*
X139168928Y-90483571D02*
X138835595Y-90483571D01*
X138835595Y-91007380D02*
X138835595Y-90007380D01*
X139311785Y-90007380D01*
X139883214Y-90007380D02*
X140073690Y-90007380D01*
X140168928Y-90055000D01*
X140264166Y-90150238D01*
X140311785Y-90340714D01*
X140311785Y-90674047D01*
X140264166Y-90864523D01*
X140168928Y-90959761D01*
X140073690Y-91007380D01*
X139883214Y-91007380D01*
X139787976Y-90959761D01*
X139692738Y-90864523D01*
X139645119Y-90674047D01*
X139645119Y-90340714D01*
X139692738Y-90150238D01*
X139787976Y-90055000D01*
X139883214Y-90007380D01*
X141311785Y-91007380D02*
X140978452Y-90531190D01*
X140740357Y-91007380D02*
X140740357Y-90007380D01*
X141121309Y-90007380D01*
X141216547Y-90055000D01*
X141264166Y-90102619D01*
X141311785Y-90197857D01*
X141311785Y-90340714D01*
X141264166Y-90435952D01*
X141216547Y-90483571D01*
X141121309Y-90531190D01*
X140740357Y-90531190D01*
X143073690Y-91007380D02*
X142740357Y-90531190D01*
X142502261Y-91007380D02*
X142502261Y-90007380D01*
X142883214Y-90007380D01*
X142978452Y-90055000D01*
X143026071Y-90102619D01*
X143073690Y-90197857D01*
X143073690Y-90340714D01*
X143026071Y-90435952D01*
X142978452Y-90483571D01*
X142883214Y-90531190D01*
X142502261Y-90531190D01*
X143692738Y-90007380D02*
X143883214Y-90007380D01*
X143978452Y-90055000D01*
X144073690Y-90150238D01*
X144121309Y-90340714D01*
X144121309Y-90674047D01*
X144073690Y-90864523D01*
X143978452Y-90959761D01*
X143883214Y-91007380D01*
X143692738Y-91007380D01*
X143597500Y-90959761D01*
X143502261Y-90864523D01*
X143454642Y-90674047D01*
X143454642Y-90340714D01*
X143502261Y-90150238D01*
X143597500Y-90055000D01*
X143692738Y-90007380D01*
X145026071Y-91007380D02*
X144549880Y-91007380D01*
X144549880Y-90007380D01*
X145311785Y-90721666D02*
X145787976Y-90721666D01*
X145216547Y-91007380D02*
X145549880Y-90007380D01*
X145883214Y-91007380D01*
X146216547Y-91007380D02*
X146216547Y-90007380D01*
X146787976Y-91007380D01*
X146787976Y-90007380D01*
X147264166Y-91007380D02*
X147264166Y-90007380D01*
X147502261Y-90007380D01*
X147645119Y-90055000D01*
X147740357Y-90150238D01*
X147787976Y-90245476D01*
X147835595Y-90435952D01*
X147835595Y-90578809D01*
X147787976Y-90769285D01*
X147740357Y-90864523D01*
X147645119Y-90959761D01*
X147502261Y-91007380D01*
X147264166Y-91007380D01*
X148930833Y-90007380D02*
X149597500Y-90007380D01*
X149168928Y-91007380D01*
X150168928Y-90007380D02*
X150264166Y-90007380D01*
X150359404Y-90055000D01*
X150407023Y-90102619D01*
X150454642Y-90197857D01*
X150502261Y-90388333D01*
X150502261Y-90626428D01*
X150454642Y-90816904D01*
X150407023Y-90912142D01*
X150359404Y-90959761D01*
X150264166Y-91007380D01*
X150168928Y-91007380D01*
X150073690Y-90959761D01*
X150026071Y-90912142D01*
X149978452Y-90816904D01*
X149930833Y-90626428D01*
X149930833Y-90388333D01*
X149978452Y-90197857D01*
X150026071Y-90102619D01*
X150073690Y-90055000D01*
X150168928Y-90007380D01*
X151073690Y-90435952D02*
X150978452Y-90388333D01*
X150930833Y-90340714D01*
X150883214Y-90245476D01*
X150883214Y-90197857D01*
X150930833Y-90102619D01*
X150978452Y-90055000D01*
X151073690Y-90007380D01*
X151264166Y-90007380D01*
X151359404Y-90055000D01*
X151407023Y-90102619D01*
X151454642Y-90197857D01*
X151454642Y-90245476D01*
X151407023Y-90340714D01*
X151359404Y-90388333D01*
X151264166Y-90435952D01*
X151073690Y-90435952D01*
X150978452Y-90483571D01*
X150930833Y-90531190D01*
X150883214Y-90626428D01*
X150883214Y-90816904D01*
X150930833Y-90912142D01*
X150978452Y-90959761D01*
X151073690Y-91007380D01*
X151264166Y-91007380D01*
X151359404Y-90959761D01*
X151407023Y-90912142D01*
X151454642Y-90816904D01*
X151454642Y-90626428D01*
X151407023Y-90531190D01*
X151359404Y-90483571D01*
X151264166Y-90435952D01*
X151930833Y-91007380D02*
X152121309Y-91007380D01*
X152216547Y-90959761D01*
X152264166Y-90912142D01*
X152359404Y-90769285D01*
X152407023Y-90578809D01*
X152407023Y-90197857D01*
X152359404Y-90102619D01*
X152311785Y-90055000D01*
X152216547Y-90007380D01*
X152026071Y-90007380D01*
X151930833Y-90055000D01*
X151883214Y-90102619D01*
X151835595Y-90197857D01*
X151835595Y-90435952D01*
X151883214Y-90531190D01*
X151930833Y-90578809D01*
X152026071Y-90626428D01*
X152216547Y-90626428D01*
X152311785Y-90578809D01*
X152359404Y-90531190D01*
X152407023Y-90435952D01*
X153264166Y-90007380D02*
X153073690Y-90007380D01*
X152978452Y-90055000D01*
X152930833Y-90102619D01*
X152835595Y-90245476D01*
X152787976Y-90435952D01*
X152787976Y-90816904D01*
X152835595Y-90912142D01*
X152883214Y-90959761D01*
X152978452Y-91007380D01*
X153168928Y-91007380D01*
X153264166Y-90959761D01*
X153311785Y-90912142D01*
X153359404Y-90816904D01*
X153359404Y-90578809D01*
X153311785Y-90483571D01*
X153264166Y-90435952D01*
X153168928Y-90388333D01*
X152978452Y-90388333D01*
X152883214Y-90435952D01*
X152835595Y-90483571D01*
X152787976Y-90578809D01*
X154311785Y-91007380D02*
X153740357Y-91007380D01*
X154026071Y-91007380D02*
X154026071Y-90007380D01*
X153930833Y-90150238D01*
X153835595Y-90245476D01*
X153740357Y-90293095D01*
X155168928Y-90007380D02*
X154978452Y-90007380D01*
X154883214Y-90055000D01*
X154835595Y-90102619D01*
X154740357Y-90245476D01*
X154692738Y-90435952D01*
X154692738Y-90816904D01*
X154740357Y-90912142D01*
X154787976Y-90959761D01*
X154883214Y-91007380D01*
X155073690Y-91007380D01*
X155168928Y-90959761D01*
X155216547Y-90912142D01*
X155264166Y-90816904D01*
X155264166Y-90578809D01*
X155216547Y-90483571D01*
X155168928Y-90435952D01*
X155073690Y-90388333D01*
X154883214Y-90388333D01*
X154787976Y-90435952D01*
X154740357Y-90483571D01*
X154692738Y-90578809D01*
X155597500Y-90007380D02*
X156264166Y-90007380D01*
X155835595Y-91007380D01*
X136192738Y-103952380D02*
X136764166Y-103952380D01*
X136478452Y-104952380D02*
X136478452Y-103952380D01*
X137097500Y-104952380D02*
X137097500Y-103952380D01*
X137097500Y-104428571D02*
X137668928Y-104428571D01*
X137668928Y-104952380D02*
X137668928Y-103952380D01*
X138145119Y-104952380D02*
X138145119Y-103952380D01*
X138573690Y-104904761D02*
X138716547Y-104952380D01*
X138954642Y-104952380D01*
X139049880Y-104904761D01*
X139097500Y-104857142D01*
X139145119Y-104761904D01*
X139145119Y-104666666D01*
X139097500Y-104571428D01*
X139049880Y-104523809D01*
X138954642Y-104476190D01*
X138764166Y-104428571D01*
X138668928Y-104380952D01*
X138621309Y-104333333D01*
X138573690Y-104238095D01*
X138573690Y-104142857D01*
X138621309Y-104047619D01*
X138668928Y-104000000D01*
X138764166Y-103952380D01*
X139002261Y-103952380D01*
X139145119Y-104000000D01*
X140287976Y-104904761D02*
X140430833Y-104952380D01*
X140668928Y-104952380D01*
X140764166Y-104904761D01*
X140811785Y-104857142D01*
X140859404Y-104761904D01*
X140859404Y-104666666D01*
X140811785Y-104571428D01*
X140764166Y-104523809D01*
X140668928Y-104476190D01*
X140478452Y-104428571D01*
X140383214Y-104380952D01*
X140335595Y-104333333D01*
X140287976Y-104238095D01*
X140287976Y-104142857D01*
X140335595Y-104047619D01*
X140383214Y-104000000D01*
X140478452Y-103952380D01*
X140716547Y-103952380D01*
X140859404Y-104000000D01*
X141287976Y-104952380D02*
X141287976Y-103952380D01*
X141764166Y-104952380D02*
X141764166Y-103952380D01*
X142002261Y-103952380D01*
X142145119Y-104000000D01*
X142240357Y-104095238D01*
X142287976Y-104190476D01*
X142335595Y-104380952D01*
X142335595Y-104523809D01*
X142287976Y-104714285D01*
X142240357Y-104809523D01*
X142145119Y-104904761D01*
X142002261Y-104952380D01*
X141764166Y-104952380D01*
X142764166Y-104428571D02*
X143097500Y-104428571D01*
X143240357Y-104952380D02*
X142764166Y-104952380D01*
X142764166Y-103952380D01*
X143240357Y-103952380D01*
X144764166Y-104428571D02*
X144430833Y-104428571D01*
X144430833Y-104952380D02*
X144430833Y-103952380D01*
X144907023Y-103952380D01*
X145240357Y-104666666D02*
X145716547Y-104666666D01*
X145145119Y-104952380D02*
X145478452Y-103952380D01*
X145811785Y-104952380D01*
X146716547Y-104857142D02*
X146668928Y-104904761D01*
X146526071Y-104952380D01*
X146430833Y-104952380D01*
X146287976Y-104904761D01*
X146192738Y-104809523D01*
X146145119Y-104714285D01*
X146097500Y-104523809D01*
X146097500Y-104380952D01*
X146145119Y-104190476D01*
X146192738Y-104095238D01*
X146287976Y-104000000D01*
X146430833Y-103952380D01*
X146526071Y-103952380D01*
X146668928Y-104000000D01*
X146716547Y-104047619D01*
X147145119Y-104428571D02*
X147478452Y-104428571D01*
X147621309Y-104952380D02*
X147145119Y-104952380D01*
X147145119Y-103952380D01*
X147621309Y-103952380D01*
X148002261Y-104904761D02*
X148145119Y-104952380D01*
X148383214Y-104952380D01*
X148478452Y-104904761D01*
X148526071Y-104857142D01*
X148573690Y-104761904D01*
X148573690Y-104666666D01*
X148526071Y-104571428D01*
X148478452Y-104523809D01*
X148383214Y-104476190D01*
X148192738Y-104428571D01*
X148097500Y-104380952D01*
X148049880Y-104333333D01*
X148002261Y-104238095D01*
X148002261Y-104142857D01*
X148049880Y-104047619D01*
X148097500Y-104000000D01*
X148192738Y-103952380D01*
X148430833Y-103952380D01*
X148573690Y-104000000D01*
X150097500Y-104428571D02*
X149764166Y-104428571D01*
X149764166Y-104952380D02*
X149764166Y-103952380D01*
X150240357Y-103952380D01*
X151192738Y-104952380D02*
X150859404Y-104476190D01*
X150621309Y-104952380D02*
X150621309Y-103952380D01*
X151002261Y-103952380D01*
X151097500Y-104000000D01*
X151145119Y-104047619D01*
X151192738Y-104142857D01*
X151192738Y-104285714D01*
X151145119Y-104380952D01*
X151097500Y-104428571D01*
X151002261Y-104476190D01*
X150621309Y-104476190D01*
X151811785Y-103952380D02*
X152002261Y-103952380D01*
X152097500Y-104000000D01*
X152192738Y-104095238D01*
X152240357Y-104285714D01*
X152240357Y-104619047D01*
X152192738Y-104809523D01*
X152097500Y-104904761D01*
X152002261Y-104952380D01*
X151811785Y-104952380D01*
X151716547Y-104904761D01*
X151621309Y-104809523D01*
X151573690Y-104619047D01*
X151573690Y-104285714D01*
X151621309Y-104095238D01*
X151716547Y-104000000D01*
X151811785Y-103952380D01*
X152668928Y-104952380D02*
X152668928Y-103952380D01*
X153240357Y-104952380D01*
X153240357Y-103952380D01*
X153573690Y-103952380D02*
X154145119Y-103952380D01*
X153859404Y-104952380D02*
X153859404Y-103952380D01*
%TO.C,SW1*%
X123166666Y-86404761D02*
X123309523Y-86452380D01*
X123547619Y-86452380D01*
X123642857Y-86404761D01*
X123690476Y-86357142D01*
X123738095Y-86261904D01*
X123738095Y-86166666D01*
X123690476Y-86071428D01*
X123642857Y-86023809D01*
X123547619Y-85976190D01*
X123357142Y-85928571D01*
X123261904Y-85880952D01*
X123214285Y-85833333D01*
X123166666Y-85738095D01*
X123166666Y-85642857D01*
X123214285Y-85547619D01*
X123261904Y-85500000D01*
X123357142Y-85452380D01*
X123595238Y-85452380D01*
X123738095Y-85500000D01*
X124071428Y-85452380D02*
X124309523Y-86452380D01*
X124500000Y-85738095D01*
X124690476Y-86452380D01*
X124928571Y-85452380D01*
X125833333Y-86452380D02*
X125261904Y-86452380D01*
X125547619Y-86452380D02*
X125547619Y-85452380D01*
X125452380Y-85595238D01*
X125357142Y-85690476D01*
X125261904Y-85738095D01*
D11*
X137075000Y-87675000D02*
X137075000Y-88175000D01*
X125275000Y-101325000D02*
X124325000Y-101325000D01*
X136375000Y-87675000D02*
X137075000Y-87675000D01*
X125175000Y-87675000D02*
X124325000Y-87675000D01*
X124325000Y-87675000D02*
X124325000Y-88350000D01*
X137075000Y-101325000D02*
X136275000Y-101325000D01*
X137075000Y-100750000D02*
X137075000Y-101325000D01*
X124325000Y-101325000D02*
X124325000Y-100650000D01*
%TD*%
%LPC*%
D12*
%TO.C,SW1*%
X128200000Y-87500000D03*
X133200000Y-87500000D03*
D13*
X125000000Y-94500000D03*
X136400000Y-94500000D03*
D12*
X128200000Y-102000000D03*
X133200000Y-102000000D03*
X130700000Y-102000000D03*
%TD*%
D14*
%TO.C,R1*%
X142500000Y-110500000D03*
D15*
X150120000Y-110500000D03*
%TD*%
D14*
%TO.C,R2*%
X142500000Y-107000000D03*
D15*
X150120000Y-107000000D03*
%TD*%
D14*
%TO.C,C2*%
X151500000Y-86500000D03*
X156500000Y-86500000D03*
%TD*%
%TO.C,R3*%
X156000000Y-111000000D03*
D15*
X156000000Y-103380000D03*
%TD*%
D16*
%TO.C,U1*%
X150500000Y-100500000D03*
D15*
X147960000Y-100500000D03*
X145420000Y-100500000D03*
X142880000Y-100500000D03*
X142880000Y-92880000D03*
X145420000Y-92880000D03*
X147960000Y-92880000D03*
X150500000Y-92880000D03*
%TD*%
D17*
%TO.C,J1*%
X125500000Y-110500000D03*
X136500000Y-110500000D03*
D18*
X134000000Y-110500000D03*
X132000000Y-110500000D03*
X130000000Y-110500000D03*
X128000000Y-110500000D03*
%TD*%
D14*
%TO.C,C3*%
X141500000Y-86500000D03*
X146500000Y-86500000D03*
%TD*%
D16*
%TO.C,C1*%
X156000000Y-95044888D03*
D14*
X156000000Y-97044888D03*
%TD*%
M02*
