%TF.GenerationSoftware,KiCad,Pcbnew,(6.0.5-0)*%
%TF.CreationDate,2022-05-25T22:38:33-04:00*%
%TF.ProjectId,jv-2080-enc,6a762d32-3038-4302-9d65-6e632e6b6963,1*%
%TF.SameCoordinates,Original*%
%TF.FileFunction,Legend,Bot*%
%TF.FilePolarity,Positive*%
%FSLAX46Y46*%
G04 Gerber Fmt 4.6, Leading zero omitted, Abs format (unit mm)*
G04 Created by KiCad (PCBNEW (6.0.5-0)) date 2022-05-25 22:38:33*
%MOMM*%
%LPD*%
G01*
G04 APERTURE LIST*
%ADD10C,0.150000*%
%ADD11C,0.120000*%
%ADD12C,2.000000*%
%ADD13R,2.800000X3.600000*%
%ADD14C,1.600000*%
%ADD15O,1.600000X1.600000*%
%ADD16R,1.600000X1.600000*%
%ADD17C,0.100000*%
%ADD18O,1.500000X4.000000*%
G04 APERTURE END LIST*
D10*
X136738095Y-104861666D02*
X136261904Y-104861666D01*
X136833333Y-105147380D02*
X136500000Y-104147380D01*
X136166666Y-105147380D01*
X135833333Y-105147380D02*
X135833333Y-104147380D01*
X135261904Y-105147380D01*
X135261904Y-104147380D01*
X134785714Y-105147380D02*
X134785714Y-104147380D01*
X134547619Y-104147380D01*
X134404761Y-104195000D01*
X134309523Y-104290238D01*
X134261904Y-104385476D01*
X134214285Y-104575952D01*
X134214285Y-104718809D01*
X134261904Y-104909285D01*
X134309523Y-105004523D01*
X134404761Y-105099761D01*
X134547619Y-105147380D01*
X134785714Y-105147380D01*
X133071428Y-105099761D02*
X132928571Y-105147380D01*
X132690476Y-105147380D01*
X132595238Y-105099761D01*
X132547619Y-105052142D01*
X132500000Y-104956904D01*
X132500000Y-104861666D01*
X132547619Y-104766428D01*
X132595238Y-104718809D01*
X132690476Y-104671190D01*
X132880952Y-104623571D01*
X132976190Y-104575952D01*
X133023809Y-104528333D01*
X133071428Y-104433095D01*
X133071428Y-104337857D01*
X133023809Y-104242619D01*
X132976190Y-104195000D01*
X132880952Y-104147380D01*
X132642857Y-104147380D01*
X132500000Y-104195000D01*
X131880952Y-104147380D02*
X131690476Y-104147380D01*
X131595238Y-104195000D01*
X131500000Y-104290238D01*
X131452380Y-104480714D01*
X131452380Y-104814047D01*
X131500000Y-105004523D01*
X131595238Y-105099761D01*
X131690476Y-105147380D01*
X131880952Y-105147380D01*
X131976190Y-105099761D01*
X132071428Y-105004523D01*
X132119047Y-104814047D01*
X132119047Y-104480714D01*
X132071428Y-104290238D01*
X131976190Y-104195000D01*
X131880952Y-104147380D01*
X130547619Y-105147380D02*
X131023809Y-105147380D01*
X131023809Y-104147380D01*
X130214285Y-105147380D02*
X130214285Y-104147380D01*
X129976190Y-104147380D01*
X129833333Y-104195000D01*
X129738095Y-104290238D01*
X129690476Y-104385476D01*
X129642857Y-104575952D01*
X129642857Y-104718809D01*
X129690476Y-104909285D01*
X129738095Y-105004523D01*
X129833333Y-105099761D01*
X129976190Y-105147380D01*
X130214285Y-105147380D01*
X129214285Y-104623571D02*
X128880952Y-104623571D01*
X128738095Y-105147380D02*
X129214285Y-105147380D01*
X129214285Y-104147380D01*
X128738095Y-104147380D01*
X127738095Y-105147380D02*
X128071428Y-104671190D01*
X128309523Y-105147380D02*
X128309523Y-104147380D01*
X127928571Y-104147380D01*
X127833333Y-104195000D01*
X127785714Y-104242619D01*
X127738095Y-104337857D01*
X127738095Y-104480714D01*
X127785714Y-104575952D01*
X127833333Y-104623571D01*
X127928571Y-104671190D01*
X128309523Y-104671190D01*
X126261904Y-104147380D02*
X126261904Y-104861666D01*
X126309523Y-105004523D01*
X126404761Y-105099761D01*
X126547619Y-105147380D01*
X126642857Y-105147380D01*
X125261904Y-105147380D02*
X125833333Y-105147380D01*
X125547619Y-105147380D02*
X125547619Y-104147380D01*
X125642857Y-104290238D01*
X125738095Y-104385476D01*
X125833333Y-104433095D01*
X137642857Y-105757380D02*
X137452380Y-105757380D01*
X137357142Y-105805000D01*
X137261904Y-105900238D01*
X137214285Y-106090714D01*
X137214285Y-106424047D01*
X137261904Y-106614523D01*
X137357142Y-106709761D01*
X137452380Y-106757380D01*
X137642857Y-106757380D01*
X137738095Y-106709761D01*
X137833333Y-106614523D01*
X137880952Y-106424047D01*
X137880952Y-106090714D01*
X137833333Y-105900238D01*
X137738095Y-105805000D01*
X137642857Y-105757380D01*
X136785714Y-106757380D02*
X136785714Y-105757380D01*
X136214285Y-106757380D01*
X136214285Y-105757380D01*
X134785714Y-105757380D02*
X134595238Y-105757380D01*
X134500000Y-105805000D01*
X134404761Y-105900238D01*
X134357142Y-106090714D01*
X134357142Y-106424047D01*
X134404761Y-106614523D01*
X134500000Y-106709761D01*
X134595238Y-106757380D01*
X134785714Y-106757380D01*
X134880952Y-106709761D01*
X134976190Y-106614523D01*
X135023809Y-106424047D01*
X135023809Y-106090714D01*
X134976190Y-105900238D01*
X134880952Y-105805000D01*
X134785714Y-105757380D01*
X133928571Y-106757380D02*
X133928571Y-105757380D01*
X133547619Y-105757380D01*
X133452380Y-105805000D01*
X133404761Y-105852619D01*
X133357142Y-105947857D01*
X133357142Y-106090714D01*
X133404761Y-106185952D01*
X133452380Y-106233571D01*
X133547619Y-106281190D01*
X133928571Y-106281190D01*
X132928571Y-106757380D02*
X132928571Y-105757380D01*
X132547619Y-105757380D01*
X132452380Y-105805000D01*
X132404761Y-105852619D01*
X132357142Y-105947857D01*
X132357142Y-106090714D01*
X132404761Y-106185952D01*
X132452380Y-106233571D01*
X132547619Y-106281190D01*
X132928571Y-106281190D01*
X131738095Y-105757380D02*
X131547619Y-105757380D01*
X131452380Y-105805000D01*
X131357142Y-105900238D01*
X131309523Y-106090714D01*
X131309523Y-106424047D01*
X131357142Y-106614523D01*
X131452380Y-106709761D01*
X131547619Y-106757380D01*
X131738095Y-106757380D01*
X131833333Y-106709761D01*
X131928571Y-106614523D01*
X131976190Y-106424047D01*
X131976190Y-106090714D01*
X131928571Y-105900238D01*
X131833333Y-105805000D01*
X131738095Y-105757380D01*
X130928571Y-106709761D02*
X130785714Y-106757380D01*
X130547619Y-106757380D01*
X130452380Y-106709761D01*
X130404761Y-106662142D01*
X130357142Y-106566904D01*
X130357142Y-106471666D01*
X130404761Y-106376428D01*
X130452380Y-106328809D01*
X130547619Y-106281190D01*
X130738095Y-106233571D01*
X130833333Y-106185952D01*
X130880952Y-106138333D01*
X130928571Y-106043095D01*
X130928571Y-105947857D01*
X130880952Y-105852619D01*
X130833333Y-105805000D01*
X130738095Y-105757380D01*
X130500000Y-105757380D01*
X130357142Y-105805000D01*
X129928571Y-106757380D02*
X129928571Y-105757380D01*
X129595238Y-105757380D02*
X129023809Y-105757380D01*
X129309523Y-106757380D02*
X129309523Y-105757380D01*
X128690476Y-106233571D02*
X128357142Y-106233571D01*
X128214285Y-106757380D02*
X128690476Y-106757380D01*
X128690476Y-105757380D01*
X128214285Y-105757380D01*
X127071428Y-106709761D02*
X126928571Y-106757380D01*
X126690476Y-106757380D01*
X126595238Y-106709761D01*
X126547619Y-106662142D01*
X126500000Y-106566904D01*
X126500000Y-106471666D01*
X126547619Y-106376428D01*
X126595238Y-106328809D01*
X126690476Y-106281190D01*
X126880952Y-106233571D01*
X126976190Y-106185952D01*
X127023809Y-106138333D01*
X127071428Y-106043095D01*
X127071428Y-105947857D01*
X127023809Y-105852619D01*
X126976190Y-105805000D01*
X126880952Y-105757380D01*
X126642857Y-105757380D01*
X126500000Y-105805000D01*
X126071428Y-106757380D02*
X126071428Y-105757380D01*
X125595238Y-106757380D02*
X125595238Y-105757380D01*
X125357142Y-105757380D01*
X125214285Y-105805000D01*
X125119047Y-105900238D01*
X125071428Y-105995476D01*
X125023809Y-106185952D01*
X125023809Y-106328809D01*
X125071428Y-106519285D01*
X125119047Y-106614523D01*
X125214285Y-106709761D01*
X125357142Y-106757380D01*
X125595238Y-106757380D01*
X124595238Y-106233571D02*
X124261904Y-106233571D01*
X124119047Y-106757380D02*
X124595238Y-106757380D01*
X124595238Y-105757380D01*
X124119047Y-105757380D01*
X134857142Y-98647380D02*
X134857142Y-97647380D01*
X134380952Y-98647380D02*
X134380952Y-97647380D01*
X133809523Y-98647380D01*
X133809523Y-97647380D01*
X133380952Y-98599761D02*
X133238095Y-98647380D01*
X133000000Y-98647380D01*
X132904761Y-98599761D01*
X132857142Y-98552142D01*
X132809523Y-98456904D01*
X132809523Y-98361666D01*
X132857142Y-98266428D01*
X132904761Y-98218809D01*
X133000000Y-98171190D01*
X133190476Y-98123571D01*
X133285714Y-98075952D01*
X133333333Y-98028333D01*
X133380952Y-97933095D01*
X133380952Y-97837857D01*
X133333333Y-97742619D01*
X133285714Y-97695000D01*
X133190476Y-97647380D01*
X132952380Y-97647380D01*
X132809523Y-97695000D01*
X132523809Y-97647380D02*
X131952380Y-97647380D01*
X132238095Y-98647380D02*
X132238095Y-97647380D01*
X131666666Y-98361666D02*
X131190476Y-98361666D01*
X131761904Y-98647380D02*
X131428571Y-97647380D01*
X131095238Y-98647380D01*
X130285714Y-98647380D02*
X130761904Y-98647380D01*
X130761904Y-97647380D01*
X129476190Y-98647380D02*
X129952380Y-98647380D01*
X129952380Y-97647380D01*
X128095238Y-97647380D02*
X128095238Y-98361666D01*
X128142857Y-98504523D01*
X128238095Y-98599761D01*
X128380952Y-98647380D01*
X128476190Y-98647380D01*
X127095238Y-98647380D02*
X127666666Y-98647380D01*
X127380952Y-98647380D02*
X127380952Y-97647380D01*
X127476190Y-97790238D01*
X127571428Y-97885476D01*
X127666666Y-97933095D01*
X135666666Y-99257380D02*
X135476190Y-99257380D01*
X135380952Y-99305000D01*
X135285714Y-99400238D01*
X135238095Y-99590714D01*
X135238095Y-99924047D01*
X135285714Y-100114523D01*
X135380952Y-100209761D01*
X135476190Y-100257380D01*
X135666666Y-100257380D01*
X135761904Y-100209761D01*
X135857142Y-100114523D01*
X135904761Y-99924047D01*
X135904761Y-99590714D01*
X135857142Y-99400238D01*
X135761904Y-99305000D01*
X135666666Y-99257380D01*
X134809523Y-100257380D02*
X134809523Y-99257380D01*
X134238095Y-100257380D01*
X134238095Y-99257380D01*
X133142857Y-99257380D02*
X132571428Y-99257380D01*
X132857142Y-100257380D02*
X132857142Y-99257380D01*
X132238095Y-100257380D02*
X132238095Y-99257380D01*
X132238095Y-99733571D02*
X131666666Y-99733571D01*
X131666666Y-100257380D02*
X131666666Y-99257380D01*
X131190476Y-100257380D02*
X131190476Y-99257380D01*
X130761904Y-100209761D02*
X130619047Y-100257380D01*
X130380952Y-100257380D01*
X130285714Y-100209761D01*
X130238095Y-100162142D01*
X130190476Y-100066904D01*
X130190476Y-99971666D01*
X130238095Y-99876428D01*
X130285714Y-99828809D01*
X130380952Y-99781190D01*
X130571428Y-99733571D01*
X130666666Y-99685952D01*
X130714285Y-99638333D01*
X130761904Y-99543095D01*
X130761904Y-99447857D01*
X130714285Y-99352619D01*
X130666666Y-99305000D01*
X130571428Y-99257380D01*
X130333333Y-99257380D01*
X130190476Y-99305000D01*
X129047619Y-100209761D02*
X128904761Y-100257380D01*
X128666666Y-100257380D01*
X128571428Y-100209761D01*
X128523809Y-100162142D01*
X128476190Y-100066904D01*
X128476190Y-99971666D01*
X128523809Y-99876428D01*
X128571428Y-99828809D01*
X128666666Y-99781190D01*
X128857142Y-99733571D01*
X128952380Y-99685952D01*
X129000000Y-99638333D01*
X129047619Y-99543095D01*
X129047619Y-99447857D01*
X129000000Y-99352619D01*
X128952380Y-99305000D01*
X128857142Y-99257380D01*
X128619047Y-99257380D01*
X128476190Y-99305000D01*
X128047619Y-100257380D02*
X128047619Y-99257380D01*
X127571428Y-100257380D02*
X127571428Y-99257380D01*
X127333333Y-99257380D01*
X127190476Y-99305000D01*
X127095238Y-99400238D01*
X127047619Y-99495476D01*
X127000000Y-99685952D01*
X127000000Y-99828809D01*
X127047619Y-100019285D01*
X127095238Y-100114523D01*
X127190476Y-100209761D01*
X127333333Y-100257380D01*
X127571428Y-100257380D01*
X126571428Y-99733571D02*
X126238095Y-99733571D01*
X126095238Y-100257380D02*
X126571428Y-100257380D01*
X126571428Y-99257380D01*
X126095238Y-99257380D01*
%TO.C,R1*%
X152666666Y-110952380D02*
X153000000Y-110476190D01*
X153238095Y-110952380D02*
X153238095Y-109952380D01*
X152857142Y-109952380D01*
X152761904Y-110000000D01*
X152714285Y-110047619D01*
X152666666Y-110142857D01*
X152666666Y-110285714D01*
X152714285Y-110380952D01*
X152761904Y-110428571D01*
X152857142Y-110476190D01*
X153238095Y-110476190D01*
X151714285Y-110952380D02*
X152285714Y-110952380D01*
X152000000Y-110952380D02*
X152000000Y-109952380D01*
X152095238Y-110095238D01*
X152190476Y-110190476D01*
X152285714Y-110238095D01*
%TO.C,R2*%
X152666666Y-107452380D02*
X153000000Y-106976190D01*
X153238095Y-107452380D02*
X153238095Y-106452380D01*
X152857142Y-106452380D01*
X152761904Y-106500000D01*
X152714285Y-106547619D01*
X152666666Y-106642857D01*
X152666666Y-106785714D01*
X152714285Y-106880952D01*
X152761904Y-106928571D01*
X152857142Y-106976190D01*
X153238095Y-106976190D01*
X152285714Y-106547619D02*
X152238095Y-106500000D01*
X152142857Y-106452380D01*
X151904761Y-106452380D01*
X151809523Y-106500000D01*
X151761904Y-106547619D01*
X151714285Y-106642857D01*
X151714285Y-106738095D01*
X151761904Y-106880952D01*
X152333333Y-107452380D01*
X151714285Y-107452380D01*
%TO.C,C2*%
X154166666Y-89357142D02*
X154214285Y-89404761D01*
X154357142Y-89452380D01*
X154452380Y-89452380D01*
X154595238Y-89404761D01*
X154690476Y-89309523D01*
X154738095Y-89214285D01*
X154785714Y-89023809D01*
X154785714Y-88880952D01*
X154738095Y-88690476D01*
X154690476Y-88595238D01*
X154595238Y-88500000D01*
X154452380Y-88452380D01*
X154357142Y-88452380D01*
X154214285Y-88500000D01*
X154166666Y-88547619D01*
X153785714Y-88547619D02*
X153738095Y-88500000D01*
X153642857Y-88452380D01*
X153404761Y-88452380D01*
X153309523Y-88500000D01*
X153261904Y-88547619D01*
X153214285Y-88642857D01*
X153214285Y-88738095D01*
X153261904Y-88880952D01*
X153833333Y-89452380D01*
X153214285Y-89452380D01*
%TO.C,R3*%
X156166666Y-101952380D02*
X156500000Y-101476190D01*
X156738095Y-101952380D02*
X156738095Y-100952380D01*
X156357142Y-100952380D01*
X156261904Y-101000000D01*
X156214285Y-101047619D01*
X156166666Y-101142857D01*
X156166666Y-101285714D01*
X156214285Y-101380952D01*
X156261904Y-101428571D01*
X156357142Y-101476190D01*
X156738095Y-101476190D01*
X155833333Y-100952380D02*
X155214285Y-100952380D01*
X155547619Y-101333333D01*
X155404761Y-101333333D01*
X155309523Y-101380952D01*
X155261904Y-101428571D01*
X155214285Y-101523809D01*
X155214285Y-101761904D01*
X155261904Y-101857142D01*
X155309523Y-101904761D01*
X155404761Y-101952380D01*
X155690476Y-101952380D01*
X155785714Y-101904761D01*
X155833333Y-101857142D01*
%TO.C,U1*%
X140461904Y-96142380D02*
X140461904Y-96951904D01*
X140414285Y-97047142D01*
X140366666Y-97094761D01*
X140271428Y-97142380D01*
X140080952Y-97142380D01*
X139985714Y-97094761D01*
X139938095Y-97047142D01*
X139890476Y-96951904D01*
X139890476Y-96142380D01*
X138890476Y-97142380D02*
X139461904Y-97142380D01*
X139176190Y-97142380D02*
X139176190Y-96142380D01*
X139271428Y-96285238D01*
X139366666Y-96380476D01*
X139461904Y-96428095D01*
%TO.C,J1*%
X139833333Y-111952380D02*
X139833333Y-112666666D01*
X139880952Y-112809523D01*
X139976190Y-112904761D01*
X140119047Y-112952380D01*
X140214285Y-112952380D01*
X138833333Y-112952380D02*
X139404761Y-112952380D01*
X139119047Y-112952380D02*
X139119047Y-111952380D01*
X139214285Y-112095238D01*
X139309523Y-112190476D01*
X139404761Y-112238095D01*
%TO.C,C3*%
X144166666Y-89357142D02*
X144214285Y-89404761D01*
X144357142Y-89452380D01*
X144452380Y-89452380D01*
X144595238Y-89404761D01*
X144690476Y-89309523D01*
X144738095Y-89214285D01*
X144785714Y-89023809D01*
X144785714Y-88880952D01*
X144738095Y-88690476D01*
X144690476Y-88595238D01*
X144595238Y-88500000D01*
X144452380Y-88452380D01*
X144357142Y-88452380D01*
X144214285Y-88500000D01*
X144166666Y-88547619D01*
X143833333Y-88452380D02*
X143214285Y-88452380D01*
X143547619Y-88833333D01*
X143404761Y-88833333D01*
X143309523Y-88880952D01*
X143261904Y-88928571D01*
X143214285Y-89023809D01*
X143214285Y-89261904D01*
X143261904Y-89357142D01*
X143309523Y-89404761D01*
X143404761Y-89452380D01*
X143690476Y-89452380D01*
X143785714Y-89404761D01*
X143833333Y-89357142D01*
%TO.C,C1*%
X156166666Y-92402030D02*
X156214285Y-92449649D01*
X156357142Y-92497268D01*
X156452380Y-92497268D01*
X156595238Y-92449649D01*
X156690476Y-92354411D01*
X156738095Y-92259173D01*
X156785714Y-92068697D01*
X156785714Y-91925840D01*
X156738095Y-91735364D01*
X156690476Y-91640126D01*
X156595238Y-91544888D01*
X156452380Y-91497268D01*
X156357142Y-91497268D01*
X156214285Y-91544888D01*
X156166666Y-91592507D01*
X155214285Y-92497268D02*
X155785714Y-92497268D01*
X155500000Y-92497268D02*
X155500000Y-91497268D01*
X155595238Y-91640126D01*
X155690476Y-91735364D01*
X155785714Y-91782983D01*
D11*
%TO.C,R1*%
X143040000Y-109460000D02*
X143040000Y-109130000D01*
X143040000Y-111540000D02*
X143040000Y-111870000D01*
X143040000Y-111870000D02*
X149580000Y-111870000D01*
X149580000Y-111870000D02*
X149580000Y-111540000D01*
X143040000Y-109130000D02*
X149580000Y-109130000D01*
X149580000Y-109130000D02*
X149580000Y-109460000D01*
%TO.C,R2*%
X149580000Y-105630000D02*
X149580000Y-105960000D01*
X149580000Y-108370000D02*
X149580000Y-108040000D01*
X143040000Y-105630000D02*
X149580000Y-105630000D01*
X143040000Y-105960000D02*
X143040000Y-105630000D01*
X143040000Y-108040000D02*
X143040000Y-108370000D01*
X143040000Y-108370000D02*
X149580000Y-108370000D01*
%TO.C,C2*%
X150380000Y-87620000D02*
X157620000Y-87620000D01*
X157620000Y-87620000D02*
X157620000Y-85380000D01*
X150380000Y-87620000D02*
X150380000Y-85380000D01*
X150380000Y-85380000D02*
X157620000Y-85380000D01*
%TO.C,R3*%
X157370000Y-103920000D02*
X157040000Y-103920000D01*
X157370000Y-110460000D02*
X157370000Y-103920000D01*
X154630000Y-110460000D02*
X154630000Y-103920000D01*
X154630000Y-103920000D02*
X154960000Y-103920000D01*
X154960000Y-110460000D02*
X154630000Y-110460000D01*
X157040000Y-110460000D02*
X157370000Y-110460000D01*
%TO.C,U1*%
X151830000Y-99340000D02*
X141550000Y-99340000D01*
X141550000Y-94040000D02*
X151830000Y-94040000D01*
X141550000Y-99340000D02*
X141550000Y-94040000D01*
X151830000Y-94040000D02*
X151830000Y-95690000D01*
X151830000Y-97690000D02*
X151830000Y-99340000D01*
X151830000Y-95690000D02*
G75*
G03*
X151830000Y-97690000I0J-1000000D01*
G01*
D10*
%TO.C,J1*%
X133000000Y-113500000D02*
X135000000Y-113500000D01*
X138000000Y-108000000D02*
X124000000Y-108000000D01*
X124000000Y-108000000D02*
X124000000Y-113000000D01*
X124000000Y-113000000D02*
X138000000Y-113000000D01*
X138000000Y-113000000D02*
X138000000Y-108000000D01*
D11*
%TO.C,C3*%
X140380000Y-87620000D02*
X147620000Y-87620000D01*
X140380000Y-85380000D02*
X147620000Y-85380000D01*
X140380000Y-87620000D02*
X140380000Y-85380000D01*
X147620000Y-87620000D02*
X147620000Y-85380000D01*
%TO.C,C1*%
X153586000Y-96965888D02*
X154960000Y-96965888D01*
X157040000Y-97965888D02*
X157743000Y-97965888D01*
X153558000Y-96885888D02*
X154960000Y-96885888D01*
X157040000Y-97925888D02*
X157785000Y-97925888D01*
X153671000Y-97165888D02*
X154960000Y-97165888D01*
X153965000Y-97645888D02*
X154960000Y-97645888D01*
X157040000Y-96805888D02*
X158468000Y-96805888D01*
X157040000Y-98045888D02*
X157653000Y-98045888D01*
X157040000Y-96885888D02*
X158442000Y-96885888D01*
X153457000Y-96484888D02*
X154960000Y-96484888D01*
X154822000Y-98365888D02*
X157178000Y-98365888D01*
X155195000Y-98525888D02*
X156805000Y-98525888D01*
X153444000Y-96404888D02*
X154960000Y-96404888D01*
X153450000Y-96444888D02*
X154960000Y-96444888D01*
X157040000Y-97525888D02*
X158122000Y-97525888D01*
X154500000Y-98165888D02*
X157500000Y-98165888D01*
X154749000Y-98325888D02*
X157251000Y-98325888D01*
X153618000Y-97045888D02*
X154960000Y-97045888D01*
X153935000Y-97605888D02*
X154960000Y-97605888D01*
X157040000Y-96564888D02*
X158528000Y-96564888D01*
X157040000Y-98005888D02*
X157699000Y-98005888D01*
X157040000Y-97085888D02*
X158365000Y-97085888D01*
X153690000Y-97205888D02*
X154960000Y-97205888D01*
X154136000Y-97845888D02*
X154960000Y-97845888D01*
X153499000Y-96684888D02*
X154960000Y-96684888D01*
X157040000Y-97285888D02*
X158268000Y-97285888D01*
X157040000Y-96404888D02*
X158556000Y-96404888D01*
X153635000Y-97085888D02*
X154960000Y-97085888D01*
X157040000Y-97045888D02*
X158382000Y-97045888D01*
X154525000Y-93240113D02*
X154525000Y-93740113D01*
X157040000Y-96244888D02*
X158573000Y-96244888D01*
X153424000Y-96204888D02*
X154960000Y-96204888D01*
X154301000Y-98005888D02*
X154960000Y-98005888D01*
X153602000Y-97005888D02*
X154960000Y-97005888D01*
X157040000Y-96084888D02*
X158580000Y-96084888D01*
X154174000Y-97885888D02*
X154960000Y-97885888D01*
X157040000Y-97165888D02*
X158329000Y-97165888D01*
X157040000Y-97565888D02*
X158095000Y-97565888D01*
X157040000Y-97245888D02*
X158290000Y-97245888D01*
X157040000Y-96684888D02*
X158501000Y-96684888D01*
X153572000Y-96925888D02*
X154960000Y-96925888D01*
X157040000Y-96164888D02*
X158578000Y-96164888D01*
X157040000Y-96724888D02*
X158491000Y-96724888D01*
X154395000Y-98085888D02*
X157605000Y-98085888D01*
X157040000Y-96124888D02*
X158579000Y-96124888D01*
X157040000Y-97125888D02*
X158348000Y-97125888D01*
X153422000Y-96164888D02*
X154960000Y-96164888D01*
X157040000Y-96845888D02*
X158455000Y-96845888D01*
X157040000Y-97365888D02*
X158224000Y-97365888D01*
X157040000Y-97805888D02*
X157901000Y-97805888D01*
X153545000Y-96845888D02*
X154960000Y-96845888D01*
X157040000Y-96925888D02*
X158428000Y-96925888D01*
X157040000Y-96444888D02*
X158550000Y-96444888D01*
X154989000Y-98445888D02*
X157011000Y-98445888D01*
X157040000Y-97725888D02*
X157971000Y-97725888D01*
X157040000Y-97885888D02*
X157826000Y-97885888D01*
X157040000Y-97205888D02*
X158310000Y-97205888D01*
X154029000Y-97725888D02*
X154960000Y-97725888D01*
X153732000Y-97285888D02*
X154960000Y-97285888D01*
X157040000Y-96284888D02*
X158569000Y-96284888D01*
X157040000Y-97445888D02*
X158175000Y-97445888D01*
X153509000Y-96724888D02*
X154960000Y-96724888D01*
X157040000Y-96524888D02*
X158536000Y-96524888D01*
X153532000Y-96805888D02*
X154960000Y-96805888D01*
X157040000Y-96644888D02*
X158511000Y-96644888D01*
X153431000Y-96284888D02*
X154960000Y-96284888D01*
X155482000Y-98605888D02*
X156518000Y-98605888D01*
X153489000Y-96644888D02*
X154960000Y-96644888D01*
X153464000Y-96524888D02*
X154960000Y-96524888D01*
X157040000Y-97605888D02*
X158065000Y-97605888D01*
X153710000Y-97245888D02*
X154960000Y-97245888D01*
X157040000Y-96965888D02*
X158414000Y-96965888D01*
X153851000Y-97485888D02*
X154960000Y-97485888D01*
X154347000Y-98045888D02*
X154960000Y-98045888D01*
X153825000Y-97445888D02*
X154960000Y-97445888D01*
X157040000Y-96604888D02*
X158520000Y-96604888D01*
X157040000Y-96364888D02*
X158561000Y-96364888D01*
X154215000Y-97925888D02*
X154960000Y-97925888D01*
X154257000Y-97965888D02*
X154960000Y-97965888D01*
X153905000Y-97565888D02*
X154960000Y-97565888D01*
X154557000Y-98205888D02*
X157443000Y-98205888D01*
X157040000Y-96484888D02*
X158543000Y-96484888D01*
X153878000Y-97525888D02*
X154960000Y-97525888D01*
X157040000Y-96044888D02*
X158580000Y-96044888D01*
X154681000Y-98285888D02*
X157319000Y-98285888D01*
X154099000Y-97805888D02*
X154960000Y-97805888D01*
X157040000Y-97845888D02*
X157864000Y-97845888D01*
X153420000Y-96084888D02*
X154960000Y-96084888D01*
X154063000Y-97765888D02*
X154960000Y-97765888D01*
X154902000Y-98405888D02*
X157098000Y-98405888D01*
X154446000Y-98125888D02*
X157554000Y-98125888D01*
X157040000Y-97765888D02*
X157937000Y-97765888D01*
X157040000Y-96324888D02*
X158565000Y-96324888D01*
X157040000Y-97485888D02*
X158149000Y-97485888D01*
X153776000Y-97365888D02*
X154960000Y-97365888D01*
X153427000Y-96244888D02*
X154960000Y-96244888D01*
X153652000Y-97125888D02*
X154960000Y-97125888D01*
X153996000Y-97685888D02*
X154960000Y-97685888D01*
X154617000Y-98245888D02*
X157383000Y-98245888D01*
X155085000Y-98485888D02*
X156915000Y-98485888D01*
X157040000Y-96204888D02*
X158576000Y-96204888D01*
X153439000Y-96364888D02*
X154960000Y-96364888D01*
X153800000Y-97405888D02*
X154960000Y-97405888D01*
X153480000Y-96604888D02*
X154960000Y-96604888D01*
X153435000Y-96324888D02*
X154960000Y-96324888D01*
X157040000Y-97405888D02*
X158200000Y-97405888D01*
X153753000Y-97325888D02*
X154960000Y-97325888D01*
X157040000Y-97005888D02*
X158398000Y-97005888D01*
X153472000Y-96564888D02*
X154960000Y-96564888D01*
X153421000Y-96124888D02*
X154960000Y-96124888D01*
X153420000Y-96044888D02*
X154960000Y-96044888D01*
X157040000Y-97685888D02*
X158004000Y-97685888D01*
X157040000Y-97645888D02*
X158035000Y-97645888D01*
X155716000Y-98645888D02*
X156284000Y-98645888D01*
X153520000Y-96765888D02*
X154960000Y-96765888D01*
X157040000Y-96765888D02*
X158480000Y-96765888D01*
X155323000Y-98565888D02*
X156677000Y-98565888D01*
X154275000Y-93490113D02*
X154775000Y-93490113D01*
X157040000Y-97325888D02*
X158247000Y-97325888D01*
X158620000Y-96044888D02*
G75*
G03*
X158620000Y-96044888I-2620000J0D01*
G01*
%TD*%
%LPC*%
D12*
%TO.C,SW1*%
X128200000Y-87500000D03*
X133200000Y-87500000D03*
D13*
X125000000Y-94500000D03*
X136400000Y-94500000D03*
D12*
X128200000Y-102000000D03*
X133200000Y-102000000D03*
X130700000Y-102000000D03*
%TD*%
D14*
%TO.C,R1*%
X142500000Y-110500000D03*
D15*
X150120000Y-110500000D03*
%TD*%
D14*
%TO.C,R2*%
X142500000Y-107000000D03*
D15*
X150120000Y-107000000D03*
%TD*%
D14*
%TO.C,C2*%
X151500000Y-86500000D03*
X156500000Y-86500000D03*
%TD*%
%TO.C,R3*%
X156000000Y-111000000D03*
D15*
X156000000Y-103380000D03*
%TD*%
D16*
%TO.C,U1*%
X150500000Y-100500000D03*
D15*
X147960000Y-100500000D03*
X145420000Y-100500000D03*
X142880000Y-100500000D03*
X142880000Y-92880000D03*
X145420000Y-92880000D03*
X147960000Y-92880000D03*
X150500000Y-92880000D03*
%TD*%
D17*
%TO.C,J1*%
X125500000Y-110500000D03*
X136500000Y-110500000D03*
D18*
X134000000Y-110500000D03*
X132000000Y-110500000D03*
X130000000Y-110500000D03*
X128000000Y-110500000D03*
%TD*%
D14*
%TO.C,C3*%
X141500000Y-86500000D03*
X146500000Y-86500000D03*
%TD*%
D16*
%TO.C,C1*%
X156000000Y-95044888D03*
D14*
X156000000Y-97044888D03*
%TD*%
M02*
