%TF.GenerationSoftware,KiCad,Pcbnew,(6.0.5-0)*%
%TF.CreationDate,2022-05-25T22:38:33-04:00*%
%TF.ProjectId,jv-2080-enc,6a762d32-3038-4302-9d65-6e632e6b6963,1*%
%TF.SameCoordinates,Original*%
%TF.FileFunction,Copper,L2,Bot*%
%TF.FilePolarity,Positive*%
%FSLAX46Y46*%
G04 Gerber Fmt 4.6, Leading zero omitted, Abs format (unit mm)*
G04 Created by KiCad (PCBNEW (6.0.5-0)) date 2022-05-25 22:38:33*
%MOMM*%
%LPD*%
G01*
G04 APERTURE LIST*
%TA.AperFunction,ComponentPad*%
%ADD10C,2.000000*%
%TD*%
%TA.AperFunction,ComponentPad*%
%ADD11R,2.800000X3.600000*%
%TD*%
%TA.AperFunction,ComponentPad*%
%ADD12C,1.600000*%
%TD*%
%TA.AperFunction,ComponentPad*%
%ADD13O,1.600000X1.600000*%
%TD*%
%TA.AperFunction,ComponentPad*%
%ADD14R,1.600000X1.600000*%
%TD*%
%TA.AperFunction,ComponentPad*%
%ADD15O,1.500000X4.000000*%
%TD*%
%TA.AperFunction,Conductor*%
%ADD16C,0.500000*%
%TD*%
G04 APERTURE END LIST*
D10*
%TO.P,SW1,1,S1*%
%TO.N,/SWITCH*%
X128200000Y-87500000D03*
%TO.P,SW1,2,S2*%
%TO.N,GND*%
X133200000Y-87500000D03*
D11*
%TO.P,SW1,3,Chassis*%
X125000000Y-94500000D03*
X136400000Y-94500000D03*
D10*
%TO.P,SW1,A,A*%
%TO.N,/ENC_A_IN*%
X128200000Y-102000000D03*
%TO.P,SW1,B,B*%
%TO.N,/ENC_B_IN*%
X133200000Y-102000000D03*
%TO.P,SW1,C,C*%
%TO.N,GND*%
X130700000Y-102000000D03*
%TD*%
D12*
%TO.P,R1,1*%
%TO.N,Net-(J1-Pad2)*%
X142500000Y-110500000D03*
D13*
%TO.P,R1,2*%
%TO.N,/ENC_A_OUT*%
X150120000Y-110500000D03*
%TD*%
D12*
%TO.P,R2,1*%
%TO.N,Net-(J1-Pad1)*%
X142500000Y-107000000D03*
D13*
%TO.P,R2,2*%
%TO.N,/ENC_B_OUT*%
X150120000Y-107000000D03*
%TD*%
D12*
%TO.P,C2,1*%
%TO.N,/ENC_A_IN*%
X151500000Y-86500000D03*
%TO.P,C2,2*%
%TO.N,GND*%
X156500000Y-86500000D03*
%TD*%
%TO.P,R3,1*%
%TO.N,/SWITCH*%
X156000000Y-111000000D03*
D13*
%TO.P,R3,2*%
%TO.N,/SWITCH_IN*%
X156000000Y-103380000D03*
%TD*%
D14*
%TO.P,U1,1,~{RESET}/PB5*%
%TO.N,unconnected-(U1-Pad1)*%
X150500000Y-100500000D03*
D13*
%TO.P,U1,2,PB3*%
%TO.N,/ENC_A_OUT*%
X147960000Y-100500000D03*
%TO.P,U1,3,PB4*%
%TO.N,/ENC_B_OUT*%
X145420000Y-100500000D03*
%TO.P,U1,4,GND*%
%TO.N,GND*%
X142880000Y-100500000D03*
%TO.P,U1,5,PB0*%
%TO.N,/ENC_B_IN*%
X142880000Y-92880000D03*
%TO.P,U1,6,PB1*%
%TO.N,/ENC_A_IN*%
X145420000Y-92880000D03*
%TO.P,U1,7,PB2*%
%TO.N,/SWITCH_IN*%
X147960000Y-92880000D03*
%TO.P,U1,8,VCC*%
%TO.N,Net-(C1-Pad1)*%
X150500000Y-92880000D03*
%TD*%
D15*
%TO.P,J1,1,Pin_1*%
%TO.N,Net-(J1-Pad1)*%
X134000000Y-110500000D03*
%TO.P,J1,2,Pin_2*%
%TO.N,Net-(J1-Pad2)*%
X132000000Y-110500000D03*
%TO.P,J1,3,Pin_3*%
%TO.N,/SWITCH*%
X130000000Y-110500000D03*
%TO.P,J1,4,Pin_4*%
%TO.N,GND*%
X128000000Y-110500000D03*
%TD*%
D12*
%TO.P,C3,1*%
%TO.N,/ENC_B_IN*%
X141500000Y-86500000D03*
%TO.P,C3,2*%
%TO.N,GND*%
X146500000Y-86500000D03*
%TD*%
D14*
%TO.P,C1,1*%
%TO.N,Net-(C1-Pad1)*%
X156000000Y-95044888D03*
D12*
%TO.P,C1,2*%
%TO.N,GND*%
X156000000Y-97044888D03*
%TD*%
D16*
%TO.N,Net-(C1-Pad1)*%
X153835112Y-92880000D02*
X156000000Y-95044888D01*
X150500000Y-92880000D02*
X153835112Y-92880000D01*
%TO.N,/ENC_A_OUT*%
X149500000Y-104000000D02*
X147997460Y-102497460D01*
X151737460Y-110500000D02*
X152737460Y-109500000D01*
X150547460Y-110500000D02*
X151737460Y-110500000D01*
X152737460Y-105500000D02*
X151237460Y-104000000D01*
X152737460Y-109500000D02*
X152737460Y-105500000D01*
X151237460Y-104000000D02*
X149500000Y-104000000D01*
X147997460Y-102497460D02*
X147997460Y-100800000D01*
%TO.N,/ENC_B_OUT*%
X145420000Y-102300000D02*
X145420000Y-100500000D01*
X150120000Y-107000000D02*
X145420000Y-102300000D01*
%TO.N,/SWITCH*%
X143737460Y-104500000D02*
X146737460Y-107500000D01*
X125500000Y-100000000D02*
X128200000Y-97300000D01*
X154737460Y-112500000D02*
X156237460Y-111000000D01*
X130000000Y-107500000D02*
X129000000Y-106500000D01*
X129000000Y-106500000D02*
X125500000Y-103000000D01*
X130000000Y-110500000D02*
X130000000Y-107500000D01*
X128200000Y-97300000D02*
X128200000Y-87500000D01*
X146737460Y-107500000D02*
X146737460Y-111000000D01*
X146737460Y-111000000D02*
X148237460Y-112500000D01*
X148237460Y-112500000D02*
X154737460Y-112500000D01*
X125500000Y-103000000D02*
X125500000Y-100000000D01*
X133000000Y-104500000D02*
X143500000Y-104500000D01*
X130000000Y-107500000D02*
X133000000Y-104500000D01*
%TO.N,/ENC_A_IN*%
X145457460Y-92842540D02*
X145420000Y-92880000D01*
X151500000Y-88500000D02*
X149500000Y-90500000D01*
X149500000Y-90500000D02*
X146677460Y-90500000D01*
X139500000Y-97250000D02*
X139500000Y-92500000D01*
X144237460Y-90500000D02*
X145457460Y-91720000D01*
X137750000Y-99000000D02*
X139500000Y-97250000D01*
X128200000Y-100300000D02*
X129500000Y-99000000D01*
X141500000Y-90500000D02*
X144237460Y-90500000D01*
X128200000Y-102000000D02*
X128200000Y-100300000D01*
X129500000Y-99000000D02*
X137750000Y-99000000D01*
X151500000Y-86500000D02*
X151500000Y-88500000D01*
X146677460Y-90500000D02*
X145457460Y-91720000D01*
X139500000Y-92500000D02*
X141500000Y-90500000D01*
X145457460Y-91720000D02*
X145457460Y-92842540D01*
%TO.N,/ENC_B_IN*%
X142880000Y-96620000D02*
X142880000Y-92880000D01*
X137500000Y-102000000D02*
X142880000Y-96620000D01*
X133200000Y-102000000D02*
X137500000Y-102000000D01*
%TO.N,Net-(J1-Pad2)*%
X142500000Y-110500000D02*
X139500000Y-110500000D01*
X135500000Y-106500000D02*
X133000000Y-106500000D01*
X132000000Y-107500000D02*
X132000000Y-110500000D01*
X139500000Y-110500000D02*
X135500000Y-106500000D01*
X133000000Y-106500000D02*
X132000000Y-107500000D01*
%TO.N,/SWITCH_IN*%
X156000000Y-103380000D02*
X156000000Y-101000000D01*
X149987460Y-97000000D02*
X147997460Y-95010000D01*
X156000000Y-101000000D02*
X152000000Y-97000000D01*
X152000000Y-97000000D02*
X149987460Y-97000000D01*
X147997460Y-95010000D02*
X147997460Y-93180000D01*
%TD*%
%TA.AperFunction,Conductor*%
%TO.N,/ENC_A_OUT*%
G36*
X147950126Y-100108804D02*
G01*
X148689424Y-100808879D01*
X148693075Y-100817054D01*
X148692001Y-100822278D01*
X148627517Y-100961925D01*
X148627251Y-100962465D01*
X148561171Y-101088155D01*
X148560985Y-101088495D01*
X148527475Y-101147405D01*
X148497859Y-101199469D01*
X148438982Y-101302084D01*
X148438933Y-101302176D01*
X148438920Y-101302200D01*
X148421698Y-101334702D01*
X148385707Y-101402624D01*
X148339296Y-101507539D01*
X148301006Y-101623283D01*
X148272097Y-101756306D01*
X148272062Y-101756605D01*
X148272062Y-101756606D01*
X148266950Y-101800470D01*
X148253829Y-101913061D01*
X148248533Y-102068516D01*
X148247845Y-102088698D01*
X148244139Y-102096850D01*
X148236152Y-102100000D01*
X147758746Y-102100000D01*
X147750473Y-102096573D01*
X147747054Y-102088721D01*
X147740971Y-101919926D01*
X147740962Y-101919675D01*
X147722179Y-101768553D01*
X147719379Y-101756606D01*
X147692251Y-101640894D01*
X147692250Y-101640890D01*
X147692172Y-101640558D01*
X147652004Y-101529618D01*
X147602736Y-101429660D01*
X147545432Y-101334608D01*
X147481154Y-101238391D01*
X147454722Y-101199431D01*
X147411044Y-101135051D01*
X147410883Y-101134807D01*
X147336076Y-101018398D01*
X147335793Y-101017935D01*
X147261301Y-100889265D01*
X147260122Y-100880388D01*
X147262624Y-100875696D01*
X147933278Y-100109592D01*
X147941305Y-100105625D01*
X147950126Y-100108804D01*
G37*
%TD.AperFunction*%
%TD*%
%TA.AperFunction,Conductor*%
%TO.N,/ENC_A_IN*%
G36*
X145704502Y-91723427D02*
G01*
X145707919Y-91731222D01*
X145710782Y-91801251D01*
X145720158Y-91876353D01*
X145720211Y-91876603D01*
X145731653Y-91930764D01*
X145734706Y-91945218D01*
X145753539Y-92007759D01*
X145775776Y-92063889D01*
X145800530Y-92113523D01*
X145826919Y-92156572D01*
X145854058Y-92192951D01*
X145881063Y-92222573D01*
X145881305Y-92222785D01*
X145881311Y-92222791D01*
X145900322Y-92239453D01*
X145904285Y-92247483D01*
X145903121Y-92253390D01*
X145413339Y-93255277D01*
X145406628Y-93261203D01*
X145397690Y-93260648D01*
X145391887Y-93254280D01*
X144996959Y-92211325D01*
X144997234Y-92202375D01*
X145001009Y-92197728D01*
X145009362Y-92191639D01*
X145020231Y-92183715D01*
X145027886Y-92176645D01*
X145048106Y-92157971D01*
X145048111Y-92157966D01*
X145048335Y-92157759D01*
X145049195Y-92156785D01*
X145076881Y-92125409D01*
X145077062Y-92125204D01*
X145105362Y-92086137D01*
X145132187Y-92040649D01*
X145156488Y-91988829D01*
X145177214Y-91930764D01*
X145190796Y-91876603D01*
X145193249Y-91866821D01*
X145193318Y-91866545D01*
X145193361Y-91866258D01*
X145203706Y-91796554D01*
X145203707Y-91796545D01*
X145203749Y-91796261D01*
X145206918Y-91731130D01*
X145210743Y-91723035D01*
X145218604Y-91720000D01*
X145696229Y-91720000D01*
X145704502Y-91723427D01*
G37*
%TD.AperFunction*%
%TD*%
%TA.AperFunction,Conductor*%
%TO.N,/SWITCH*%
G36*
X128208433Y-87008769D02*
G01*
X129094131Y-87929786D01*
X129097396Y-87938125D01*
X129096038Y-87943370D01*
X129004663Y-88115959D01*
X129004278Y-88116633D01*
X128910350Y-88268718D01*
X128910057Y-88269168D01*
X128819327Y-88402041D01*
X128819247Y-88402157D01*
X128733742Y-88524174D01*
X128655678Y-88643456D01*
X128587161Y-88768297D01*
X128530262Y-88907034D01*
X128530169Y-88907379D01*
X128530167Y-88907386D01*
X128487143Y-89067670D01*
X128487053Y-89068006D01*
X128459608Y-89259548D01*
X128459596Y-89259847D01*
X128450467Y-89478787D01*
X128446698Y-89486911D01*
X128438777Y-89490000D01*
X127961222Y-89490000D01*
X127952949Y-89486573D01*
X127949532Y-89478787D01*
X127940403Y-89259847D01*
X127940391Y-89259548D01*
X127912946Y-89068006D01*
X127912856Y-89067670D01*
X127869832Y-88907386D01*
X127869830Y-88907379D01*
X127869737Y-88907034D01*
X127812838Y-88768297D01*
X127744321Y-88643456D01*
X127666257Y-88524174D01*
X127580752Y-88402157D01*
X127580672Y-88402041D01*
X127489942Y-88269168D01*
X127489649Y-88268718D01*
X127395717Y-88116627D01*
X127395332Y-88115953D01*
X127303961Y-87943371D01*
X127303118Y-87934456D01*
X127305868Y-87929787D01*
X128191567Y-87008769D01*
X128199771Y-87005181D01*
X128208433Y-87008769D01*
G37*
%TD.AperFunction*%
%TD*%
%TA.AperFunction,Conductor*%
%TO.N,Net-(J1-Pad2)*%
G36*
X132246959Y-109013427D02*
G01*
X132250379Y-109021308D01*
X132255706Y-109180231D01*
X132272177Y-109323243D01*
X132298443Y-109444751D01*
X132333533Y-109550466D01*
X132376475Y-109646104D01*
X132426299Y-109737376D01*
X132426353Y-109737466D01*
X132482035Y-109829996D01*
X132542636Y-109929557D01*
X132542785Y-109929809D01*
X132607219Y-110041898D01*
X132607471Y-110042359D01*
X132671156Y-110165641D01*
X132671908Y-110174564D01*
X132669194Y-110179121D01*
X132008433Y-110866231D01*
X132000229Y-110869819D01*
X131991567Y-110866231D01*
X131330806Y-110179121D01*
X131327541Y-110170782D01*
X131328844Y-110165641D01*
X131392528Y-110042359D01*
X131392780Y-110041898D01*
X131457214Y-109929809D01*
X131457363Y-109929557D01*
X131517964Y-109829996D01*
X131573646Y-109737466D01*
X131573700Y-109737376D01*
X131623524Y-109646104D01*
X131666466Y-109550466D01*
X131701556Y-109444751D01*
X131727822Y-109323243D01*
X131744293Y-109180231D01*
X131749621Y-109021308D01*
X131753323Y-109013154D01*
X131761314Y-109010000D01*
X132238686Y-109010000D01*
X132246959Y-109013427D01*
G37*
%TD.AperFunction*%
%TD*%
%TA.AperFunction,Conductor*%
%TO.N,/ENC_B_OUT*%
G36*
X145428433Y-100108769D02*
G01*
X146134178Y-100842657D01*
X146137443Y-100850996D01*
X146136126Y-100856162D01*
X146067514Y-100988145D01*
X146066901Y-100989324D01*
X146066616Y-100989839D01*
X145996289Y-101109930D01*
X145996114Y-101110220D01*
X145929465Y-101216488D01*
X145867770Y-101315009D01*
X145867735Y-101315071D01*
X145867723Y-101315090D01*
X145832034Y-101377424D01*
X145812300Y-101411889D01*
X145764246Y-101513367D01*
X145764146Y-101513652D01*
X145764143Y-101513659D01*
X145724907Y-101625371D01*
X145724905Y-101625379D01*
X145724799Y-101625680D01*
X145695148Y-101755065D01*
X145676485Y-101907759D01*
X145676476Y-101907999D01*
X145676476Y-101908005D01*
X145670402Y-102078716D01*
X145666683Y-102086862D01*
X145658709Y-102090000D01*
X145181291Y-102090000D01*
X145173018Y-102086573D01*
X145169598Y-102078716D01*
X145163523Y-101908005D01*
X145163523Y-101907999D01*
X145163514Y-101907759D01*
X145144851Y-101755065D01*
X145115200Y-101625680D01*
X145115094Y-101625379D01*
X145115092Y-101625371D01*
X145075856Y-101513659D01*
X145075853Y-101513652D01*
X145075753Y-101513367D01*
X145027699Y-101411889D01*
X145007965Y-101377424D01*
X144972276Y-101315090D01*
X144972264Y-101315071D01*
X144972229Y-101315009D01*
X144910534Y-101216488D01*
X144843885Y-101110220D01*
X144843710Y-101109930D01*
X144773383Y-100989839D01*
X144773098Y-100989324D01*
X144703874Y-100856164D01*
X144703098Y-100847242D01*
X144705822Y-100842657D01*
X145411567Y-100108769D01*
X145419771Y-100105181D01*
X145428433Y-100108769D01*
G37*
%TD.AperFunction*%
%TD*%
%TA.AperFunction,Conductor*%
%TO.N,/ENC_A_IN*%
G36*
X128244131Y-99919868D02*
G01*
X128581520Y-100257257D01*
X128584947Y-100265530D01*
X128582400Y-100272818D01*
X128476703Y-100405572D01*
X128476130Y-100406292D01*
X128475807Y-100407155D01*
X128427570Y-100536000D01*
X128427570Y-100536003D01*
X128427164Y-100537086D01*
X128431738Y-100660120D01*
X128432119Y-100661062D01*
X128432119Y-100661063D01*
X128479335Y-100777890D01*
X128479578Y-100778491D01*
X128479945Y-100779021D01*
X128479947Y-100779025D01*
X128554647Y-100886961D01*
X128560413Y-100895293D01*
X128663972Y-101013622D01*
X128664048Y-101013702D01*
X128664062Y-101013718D01*
X128779903Y-101136489D01*
X128780057Y-101136655D01*
X128883032Y-101250504D01*
X128897877Y-101266916D01*
X128898434Y-101267579D01*
X129007809Y-101408132D01*
X129008650Y-101409369D01*
X129095482Y-101556458D01*
X129096737Y-101565325D01*
X129093840Y-101570516D01*
X128210715Y-102488858D01*
X128202511Y-102492446D01*
X128194172Y-102489181D01*
X128192187Y-102486662D01*
X127497149Y-101300158D01*
X127495924Y-101291287D01*
X127498428Y-101286552D01*
X127615222Y-101152705D01*
X127615225Y-101152701D01*
X127615506Y-101152379D01*
X127615733Y-101152024D01*
X127615738Y-101152017D01*
X127701210Y-101018216D01*
X127701214Y-101018209D01*
X127701438Y-101017858D01*
X127703351Y-101013622D01*
X127760278Y-100887576D01*
X127760281Y-100887569D01*
X127760413Y-100887276D01*
X127802157Y-100758582D01*
X127836394Y-100629723D01*
X127872738Y-100499047D01*
X127872991Y-100498249D01*
X127905565Y-100407155D01*
X127921021Y-100363929D01*
X127921550Y-100362684D01*
X127990964Y-100222334D01*
X127991759Y-100220967D01*
X128092342Y-100072214D01*
X128093287Y-100070997D01*
X128110730Y-100051364D01*
X128227113Y-99920369D01*
X128235168Y-99916461D01*
X128244131Y-99919868D01*
G37*
%TD.AperFunction*%
%TD*%
%TA.AperFunction,Conductor*%
%TO.N,/SWITCH*%
G36*
X130246959Y-109013427D02*
G01*
X130250379Y-109021308D01*
X130255706Y-109180231D01*
X130272177Y-109323243D01*
X130298443Y-109444751D01*
X130333533Y-109550466D01*
X130376475Y-109646104D01*
X130426299Y-109737376D01*
X130426353Y-109737466D01*
X130482035Y-109829996D01*
X130542636Y-109929557D01*
X130542785Y-109929809D01*
X130607219Y-110041898D01*
X130607471Y-110042359D01*
X130671156Y-110165641D01*
X130671908Y-110174564D01*
X130669194Y-110179121D01*
X130008433Y-110866231D01*
X130000229Y-110869819D01*
X129991567Y-110866231D01*
X129330806Y-110179121D01*
X129327541Y-110170782D01*
X129328844Y-110165641D01*
X129392528Y-110042359D01*
X129392780Y-110041898D01*
X129457214Y-109929809D01*
X129457363Y-109929557D01*
X129517964Y-109829996D01*
X129573646Y-109737466D01*
X129573700Y-109737376D01*
X129623524Y-109646104D01*
X129666466Y-109550466D01*
X129701556Y-109444751D01*
X129727822Y-109323243D01*
X129744293Y-109180231D01*
X129749621Y-109021308D01*
X129753323Y-109013154D01*
X129761314Y-109010000D01*
X130238686Y-109010000D01*
X130246959Y-109013427D01*
G37*
%TD.AperFunction*%
%TD*%
%TA.AperFunction,Conductor*%
%TO.N,/SWITCH_IN*%
G36*
X156246982Y-101793427D02*
G01*
X156250401Y-101801283D01*
X156256485Y-101972240D01*
X156275148Y-102124934D01*
X156304799Y-102254319D01*
X156304905Y-102254620D01*
X156304907Y-102254628D01*
X156344143Y-102366340D01*
X156344246Y-102366632D01*
X156392300Y-102468110D01*
X156392416Y-102468312D01*
X156447723Y-102564909D01*
X156447735Y-102564928D01*
X156447770Y-102564990D01*
X156447818Y-102565066D01*
X156509465Y-102663511D01*
X156576105Y-102769765D01*
X156576289Y-102770069D01*
X156646616Y-102890160D01*
X156646901Y-102890675D01*
X156716126Y-103023836D01*
X156716902Y-103032757D01*
X156714178Y-103037343D01*
X156008433Y-103771231D01*
X156000229Y-103774819D01*
X155991567Y-103771231D01*
X155285822Y-103037343D01*
X155282557Y-103029004D01*
X155283874Y-103023836D01*
X155353098Y-102890675D01*
X155353383Y-102890160D01*
X155423710Y-102770069D01*
X155423894Y-102769765D01*
X155490534Y-102663511D01*
X155552181Y-102565066D01*
X155552229Y-102564990D01*
X155552264Y-102564928D01*
X155552276Y-102564909D01*
X155607583Y-102468312D01*
X155607699Y-102468110D01*
X155655753Y-102366632D01*
X155655856Y-102366340D01*
X155695092Y-102254628D01*
X155695094Y-102254620D01*
X155695200Y-102254319D01*
X155724851Y-102124934D01*
X155743514Y-101972240D01*
X155749598Y-101801283D01*
X155753317Y-101793138D01*
X155761291Y-101790000D01*
X156238709Y-101790000D01*
X156246982Y-101793427D01*
G37*
%TD.AperFunction*%
%TD*%
%TA.AperFunction,Conductor*%
%TO.N,Net-(C1-Pad1)*%
G36*
X150856162Y-92163874D02*
G01*
X150988520Y-92232680D01*
X150989324Y-92233098D01*
X150989838Y-92233383D01*
X151109945Y-92303719D01*
X151110220Y-92303885D01*
X151216488Y-92370534D01*
X151315009Y-92432229D01*
X151315071Y-92432264D01*
X151315090Y-92432276D01*
X151377424Y-92467965D01*
X151411889Y-92487699D01*
X151453526Y-92507416D01*
X151513083Y-92535619D01*
X151513091Y-92535622D01*
X151513367Y-92535753D01*
X151513652Y-92535853D01*
X151513659Y-92535856D01*
X151625371Y-92575092D01*
X151625379Y-92575094D01*
X151625680Y-92575200D01*
X151625994Y-92575272D01*
X151626001Y-92575274D01*
X151754775Y-92604785D01*
X151754783Y-92604786D01*
X151755065Y-92604851D01*
X151907759Y-92623514D01*
X151907999Y-92623523D01*
X151908005Y-92623523D01*
X151972837Y-92625830D01*
X152078717Y-92629598D01*
X152086862Y-92633317D01*
X152090000Y-92641291D01*
X152090000Y-93118709D01*
X152086573Y-93126982D01*
X152078717Y-93130401D01*
X151967368Y-93134364D01*
X151908005Y-93136476D01*
X151907999Y-93136476D01*
X151907759Y-93136485D01*
X151755065Y-93155148D01*
X151754783Y-93155213D01*
X151754775Y-93155214D01*
X151626001Y-93184725D01*
X151625994Y-93184727D01*
X151625680Y-93184799D01*
X151625379Y-93184905D01*
X151625371Y-93184907D01*
X151513659Y-93224143D01*
X151513652Y-93224146D01*
X151513367Y-93224246D01*
X151513091Y-93224377D01*
X151513083Y-93224380D01*
X151453526Y-93252583D01*
X151411889Y-93272300D01*
X151377424Y-93292034D01*
X151315090Y-93327723D01*
X151315071Y-93327735D01*
X151315009Y-93327770D01*
X151216488Y-93389465D01*
X151110234Y-93456105D01*
X151109945Y-93456280D01*
X150989839Y-93526616D01*
X150989324Y-93526901D01*
X150856163Y-93596126D01*
X150847243Y-93596902D01*
X150842657Y-93594178D01*
X150508064Y-93272416D01*
X150108769Y-92888433D01*
X150105181Y-92880229D01*
X150108769Y-92871567D01*
X150386085Y-92604886D01*
X150842657Y-92165822D01*
X150850996Y-92162557D01*
X150856162Y-92163874D01*
G37*
%TD.AperFunction*%
%TD*%
%TA.AperFunction,Conductor*%
%TO.N,/ENC_B_OUT*%
G36*
X149180741Y-105706619D02*
G01*
X149305927Y-105823201D01*
X149427095Y-105917975D01*
X149539549Y-105988498D01*
X149646860Y-106040021D01*
X149647142Y-106040122D01*
X149647145Y-106040123D01*
X149752372Y-106077719D01*
X149752379Y-106077721D01*
X149752594Y-106077798D01*
X149860322Y-106107080D01*
X149973612Y-106133120D01*
X150095858Y-106161129D01*
X150096172Y-106161206D01*
X150190071Y-106185745D01*
X150230857Y-106196404D01*
X150231424Y-106196567D01*
X150374531Y-106241777D01*
X150381387Y-106247537D01*
X150382704Y-106252705D01*
X150402604Y-107270677D01*
X150399339Y-107279016D01*
X150390677Y-107282604D01*
X149372705Y-107262704D01*
X149364501Y-107259116D01*
X149361777Y-107254531D01*
X149316567Y-107111424D01*
X149316404Y-107110857D01*
X149281209Y-106976186D01*
X149281125Y-106975841D01*
X149253120Y-106853612D01*
X149227106Y-106740435D01*
X149227106Y-106740434D01*
X149227080Y-106740322D01*
X149197798Y-106632594D01*
X149160021Y-106526860D01*
X149108498Y-106419549D01*
X149037975Y-106307095D01*
X148943201Y-106185927D01*
X148826619Y-106060741D01*
X148823488Y-106052351D01*
X148826908Y-106044494D01*
X149164494Y-105706908D01*
X149172767Y-105703481D01*
X149180741Y-105706619D01*
G37*
%TD.AperFunction*%
%TD*%
%TA.AperFunction,Conductor*%
%TO.N,/ENC_A_IN*%
G36*
X151508433Y-86108769D02*
G01*
X152214178Y-86842657D01*
X152217443Y-86850996D01*
X152216126Y-86856162D01*
X152147514Y-86988145D01*
X152146901Y-86989324D01*
X152146616Y-86989839D01*
X152076289Y-87109930D01*
X152076114Y-87110220D01*
X152009465Y-87216488D01*
X151947770Y-87315009D01*
X151947735Y-87315071D01*
X151947723Y-87315090D01*
X151912034Y-87377424D01*
X151892300Y-87411889D01*
X151844246Y-87513367D01*
X151844146Y-87513652D01*
X151844143Y-87513659D01*
X151804907Y-87625371D01*
X151804905Y-87625379D01*
X151804799Y-87625680D01*
X151775148Y-87755065D01*
X151756485Y-87907759D01*
X151756476Y-87907999D01*
X151756476Y-87908005D01*
X151750402Y-88078716D01*
X151746683Y-88086862D01*
X151738709Y-88090000D01*
X151261291Y-88090000D01*
X151253018Y-88086573D01*
X151249598Y-88078716D01*
X151243523Y-87908005D01*
X151243523Y-87907999D01*
X151243514Y-87907759D01*
X151224851Y-87755065D01*
X151195200Y-87625680D01*
X151195094Y-87625379D01*
X151195092Y-87625371D01*
X151155856Y-87513659D01*
X151155853Y-87513652D01*
X151155753Y-87513367D01*
X151107699Y-87411889D01*
X151087965Y-87377424D01*
X151052276Y-87315090D01*
X151052264Y-87315071D01*
X151052229Y-87315009D01*
X150990534Y-87216488D01*
X150923885Y-87110220D01*
X150923710Y-87109930D01*
X150853383Y-86989839D01*
X150853098Y-86989324D01*
X150783874Y-86856164D01*
X150783098Y-86847242D01*
X150785822Y-86842657D01*
X151491567Y-86108769D01*
X151499771Y-86105181D01*
X151508433Y-86108769D01*
G37*
%TD.AperFunction*%
%TD*%
%TA.AperFunction,Conductor*%
%TO.N,/ENC_B_IN*%
G36*
X142888433Y-92488769D02*
G01*
X143594178Y-93222657D01*
X143597443Y-93230996D01*
X143596126Y-93236162D01*
X143527514Y-93368145D01*
X143526901Y-93369324D01*
X143526616Y-93369839D01*
X143456289Y-93489930D01*
X143456114Y-93490220D01*
X143389465Y-93596488D01*
X143327770Y-93695009D01*
X143327735Y-93695071D01*
X143327723Y-93695090D01*
X143292034Y-93757424D01*
X143272300Y-93791889D01*
X143224246Y-93893367D01*
X143224146Y-93893652D01*
X143224143Y-93893659D01*
X143184907Y-94005371D01*
X143184905Y-94005379D01*
X143184799Y-94005680D01*
X143155148Y-94135065D01*
X143136485Y-94287759D01*
X143136476Y-94287999D01*
X143136476Y-94288005D01*
X143130402Y-94458716D01*
X143126683Y-94466862D01*
X143118709Y-94470000D01*
X142641291Y-94470000D01*
X142633018Y-94466573D01*
X142629598Y-94458716D01*
X142623523Y-94288005D01*
X142623523Y-94287999D01*
X142623514Y-94287759D01*
X142604851Y-94135065D01*
X142575200Y-94005680D01*
X142575094Y-94005379D01*
X142575092Y-94005371D01*
X142535856Y-93893659D01*
X142535853Y-93893652D01*
X142535753Y-93893367D01*
X142487699Y-93791889D01*
X142467965Y-93757424D01*
X142432276Y-93695090D01*
X142432264Y-93695071D01*
X142432229Y-93695009D01*
X142370534Y-93596488D01*
X142303885Y-93490220D01*
X142303710Y-93489930D01*
X142233383Y-93369839D01*
X142233098Y-93369324D01*
X142163874Y-93236164D01*
X142163098Y-93227242D01*
X142165822Y-93222657D01*
X142871567Y-92488769D01*
X142879771Y-92485181D01*
X142888433Y-92488769D01*
G37*
%TD.AperFunction*%
%TD*%
%TA.AperFunction,Conductor*%
%TO.N,/ENC_B_IN*%
G36*
X133643371Y-101103961D02*
G01*
X133815953Y-101195332D01*
X133816627Y-101195717D01*
X133968718Y-101289649D01*
X133969168Y-101289942D01*
X134102041Y-101380672D01*
X134102157Y-101380752D01*
X134224174Y-101466257D01*
X134224237Y-101466299D01*
X134224247Y-101466305D01*
X134343266Y-101544197D01*
X134343272Y-101544201D01*
X134343456Y-101544321D01*
X134468297Y-101612838D01*
X134607034Y-101669737D01*
X134607379Y-101669830D01*
X134607386Y-101669832D01*
X134767670Y-101712856D01*
X134767673Y-101712857D01*
X134768006Y-101712946D01*
X134835696Y-101722645D01*
X134959253Y-101740349D01*
X134959258Y-101740349D01*
X134959548Y-101740391D01*
X135178788Y-101749533D01*
X135186911Y-101753301D01*
X135190000Y-101761222D01*
X135190000Y-102238777D01*
X135186573Y-102247050D01*
X135178787Y-102250467D01*
X135066316Y-102255157D01*
X134959548Y-102259608D01*
X134959258Y-102259650D01*
X134959253Y-102259650D01*
X134835696Y-102277354D01*
X134768006Y-102287053D01*
X134767673Y-102287142D01*
X134767670Y-102287143D01*
X134607386Y-102330167D01*
X134607379Y-102330169D01*
X134607034Y-102330262D01*
X134468297Y-102387161D01*
X134343456Y-102455678D01*
X134343272Y-102455798D01*
X134343266Y-102455802D01*
X134224247Y-102533694D01*
X134224174Y-102533742D01*
X134224108Y-102533788D01*
X134224101Y-102533793D01*
X134102157Y-102619247D01*
X134102041Y-102619327D01*
X133969168Y-102710057D01*
X133968718Y-102710350D01*
X133816633Y-102804278D01*
X133815959Y-102804663D01*
X133643370Y-102896038D01*
X133634455Y-102896881D01*
X133629786Y-102894131D01*
X133343973Y-102619278D01*
X132708769Y-102008433D01*
X132705181Y-102000229D01*
X132708769Y-101991567D01*
X132948300Y-101761222D01*
X133629787Y-101105868D01*
X133638126Y-101102603D01*
X133643371Y-101103961D01*
G37*
%TD.AperFunction*%
%TD*%
%TA.AperFunction,Conductor*%
%TO.N,/SWITCH*%
G36*
X156196584Y-110657603D02*
G01*
X156202305Y-110665030D01*
X156448091Y-111651924D01*
X156448331Y-111652889D01*
X156447005Y-111661746D01*
X156443139Y-111665663D01*
X156317286Y-111743620D01*
X156316380Y-111744127D01*
X156195393Y-111804947D01*
X156194581Y-111805318D01*
X156104002Y-111842381D01*
X156082175Y-111851312D01*
X156081632Y-111851518D01*
X155974738Y-111889175D01*
X155974646Y-111889207D01*
X155870378Y-111924966D01*
X155870262Y-111925011D01*
X155870242Y-111925018D01*
X155811937Y-111947522D01*
X155766049Y-111965233D01*
X155658772Y-112016484D01*
X155545615Y-112085214D01*
X155423647Y-112177913D01*
X155423446Y-112178098D01*
X155423445Y-112178099D01*
X155298197Y-112293468D01*
X155289790Y-112296552D01*
X155281997Y-112293135D01*
X154944273Y-111955411D01*
X154940846Y-111947138D01*
X154943889Y-111939267D01*
X155031975Y-111842381D01*
X155031976Y-111842380D01*
X155032204Y-111842129D01*
X155032398Y-111841858D01*
X155032402Y-111841853D01*
X155101760Y-111744926D01*
X155102002Y-111744588D01*
X155142880Y-111665663D01*
X155149550Y-111652785D01*
X155149552Y-111652780D01*
X155149765Y-111652369D01*
X155179479Y-111562944D01*
X155195131Y-111473784D01*
X155200708Y-111382360D01*
X155200196Y-111286144D01*
X155197583Y-111182607D01*
X155196858Y-111069487D01*
X155196868Y-111068934D01*
X155201657Y-110951861D01*
X155205419Y-110943735D01*
X155210078Y-110941105D01*
X155672104Y-110806657D01*
X156187684Y-110656624D01*
X156196584Y-110657603D01*
G37*
%TD.AperFunction*%
%TD*%
%TA.AperFunction,Conductor*%
%TO.N,Net-(J1-Pad2)*%
G36*
X142157343Y-109785822D02*
G01*
X142613916Y-110224886D01*
X142891231Y-110491567D01*
X142894819Y-110499771D01*
X142891231Y-110508433D01*
X142491936Y-110892416D01*
X142157343Y-111214178D01*
X142149004Y-111217443D01*
X142143838Y-111216126D01*
X142010675Y-111146901D01*
X142010160Y-111146616D01*
X141890054Y-111076280D01*
X141889765Y-111076105D01*
X141783511Y-111009465D01*
X141684990Y-110947770D01*
X141684928Y-110947735D01*
X141684909Y-110947723D01*
X141622575Y-110912034D01*
X141588110Y-110892300D01*
X141546473Y-110872583D01*
X141486916Y-110844380D01*
X141486908Y-110844377D01*
X141486632Y-110844246D01*
X141486347Y-110844146D01*
X141486340Y-110844143D01*
X141374628Y-110804907D01*
X141374620Y-110804905D01*
X141374319Y-110804799D01*
X141374005Y-110804727D01*
X141373998Y-110804725D01*
X141245224Y-110775214D01*
X141245216Y-110775213D01*
X141244934Y-110775148D01*
X141092240Y-110756485D01*
X141092000Y-110756476D01*
X141091994Y-110756476D01*
X141032453Y-110754357D01*
X140921283Y-110750402D01*
X140913138Y-110746683D01*
X140910000Y-110738709D01*
X140910000Y-110261291D01*
X140913427Y-110253018D01*
X140921283Y-110249598D01*
X141026947Y-110245838D01*
X141091994Y-110243523D01*
X141092000Y-110243523D01*
X141092240Y-110243514D01*
X141244934Y-110224851D01*
X141245216Y-110224786D01*
X141245224Y-110224785D01*
X141373998Y-110195274D01*
X141374005Y-110195272D01*
X141374319Y-110195200D01*
X141374620Y-110195094D01*
X141374628Y-110195092D01*
X141486340Y-110155856D01*
X141486347Y-110155853D01*
X141486632Y-110155753D01*
X141486908Y-110155622D01*
X141486916Y-110155619D01*
X141546473Y-110127416D01*
X141588110Y-110107699D01*
X141622575Y-110087965D01*
X141684909Y-110052276D01*
X141684928Y-110052264D01*
X141684990Y-110052229D01*
X141783511Y-109990534D01*
X141889779Y-109923885D01*
X141890054Y-109923719D01*
X142010161Y-109853383D01*
X142010675Y-109853098D01*
X142011246Y-109852801D01*
X142143837Y-109783874D01*
X142152758Y-109783098D01*
X142157343Y-109785822D01*
G37*
%TD.AperFunction*%
%TD*%
%TA.AperFunction,Conductor*%
%TO.N,GND*%
G36*
X141198494Y-85019685D02*
G01*
X141244249Y-85072489D01*
X141254193Y-85141647D01*
X141225168Y-85205203D01*
X141163548Y-85243775D01*
X141053504Y-85273261D01*
X141048600Y-85275548D01*
X141048594Y-85275550D01*
X140868239Y-85359652D01*
X140847266Y-85369432D01*
X140842829Y-85372539D01*
X140842827Y-85372540D01*
X140665296Y-85496847D01*
X140665292Y-85496851D01*
X140660861Y-85499953D01*
X140499953Y-85660861D01*
X140496851Y-85665292D01*
X140496847Y-85665296D01*
X140372540Y-85842827D01*
X140369432Y-85847266D01*
X140367142Y-85852177D01*
X140275550Y-86048594D01*
X140275548Y-86048600D01*
X140273261Y-86053504D01*
X140214365Y-86273308D01*
X140213894Y-86278693D01*
X140213893Y-86278698D01*
X140203382Y-86398842D01*
X140194532Y-86500000D01*
X140195004Y-86505395D01*
X140201319Y-86577571D01*
X140214365Y-86726692D01*
X140273261Y-86946496D01*
X140275548Y-86951400D01*
X140275550Y-86951406D01*
X140359652Y-87131761D01*
X140369432Y-87152734D01*
X140372539Y-87157171D01*
X140372540Y-87157173D01*
X140496847Y-87334704D01*
X140496851Y-87334708D01*
X140499953Y-87339139D01*
X140660861Y-87500047D01*
X140665292Y-87503149D01*
X140665296Y-87503153D01*
X140773534Y-87578941D01*
X140847266Y-87630568D01*
X140852177Y-87632858D01*
X141048594Y-87724450D01*
X141048600Y-87724452D01*
X141053504Y-87726739D01*
X141273308Y-87785635D01*
X141278693Y-87786106D01*
X141278698Y-87786107D01*
X141494605Y-87804996D01*
X141500000Y-87805468D01*
X141505395Y-87804996D01*
X141721302Y-87786107D01*
X141721307Y-87786106D01*
X141726692Y-87785635D01*
X141946496Y-87726739D01*
X141951400Y-87724452D01*
X141951406Y-87724450D01*
X142147823Y-87632858D01*
X142152734Y-87630568D01*
X142226466Y-87578941D01*
X142227803Y-87578005D01*
X145780808Y-87578005D01*
X145789956Y-87589829D01*
X145843079Y-87627026D01*
X145852425Y-87632423D01*
X146048769Y-87723979D01*
X146058902Y-87727668D01*
X146268163Y-87783739D01*
X146278794Y-87785613D01*
X146494605Y-87804494D01*
X146505395Y-87804494D01*
X146721206Y-87785613D01*
X146731837Y-87783739D01*
X146941098Y-87727668D01*
X146951231Y-87723979D01*
X147147575Y-87632423D01*
X147156921Y-87627026D01*
X147210867Y-87589252D01*
X147219110Y-87578941D01*
X147212154Y-87565708D01*
X146512607Y-86866160D01*
X146498887Y-86858668D01*
X146497082Y-86858797D01*
X146490573Y-86862980D01*
X145787135Y-87566419D01*
X145780808Y-87578005D01*
X142227803Y-87578005D01*
X142334704Y-87503153D01*
X142334708Y-87503149D01*
X142339139Y-87500047D01*
X142500047Y-87339139D01*
X142503149Y-87334708D01*
X142503153Y-87334704D01*
X142627460Y-87157173D01*
X142627461Y-87157171D01*
X142630568Y-87152734D01*
X142640348Y-87131761D01*
X142724450Y-86951406D01*
X142724452Y-86951400D01*
X142726739Y-86946496D01*
X142785635Y-86726692D01*
X142798682Y-86577571D01*
X142804996Y-86505395D01*
X145195506Y-86505395D01*
X145214387Y-86721206D01*
X145216261Y-86731837D01*
X145272332Y-86941098D01*
X145276021Y-86951231D01*
X145367577Y-87147575D01*
X145372974Y-87156921D01*
X145410748Y-87210867D01*
X145421059Y-87219110D01*
X145434292Y-87212154D01*
X146133840Y-86512607D01*
X146140116Y-86501113D01*
X146858668Y-86501113D01*
X146858797Y-86502918D01*
X146862980Y-86509427D01*
X147566419Y-87212865D01*
X147578005Y-87219192D01*
X147589829Y-87210044D01*
X147627026Y-87156921D01*
X147632423Y-87147575D01*
X147723979Y-86951231D01*
X147727668Y-86941098D01*
X147783739Y-86731837D01*
X147785613Y-86721206D01*
X147804494Y-86505395D01*
X147804494Y-86494605D01*
X147785613Y-86278794D01*
X147783739Y-86268163D01*
X147727668Y-86058902D01*
X147723979Y-86048769D01*
X147632423Y-85852425D01*
X147627026Y-85843079D01*
X147589252Y-85789133D01*
X147578941Y-85780890D01*
X147565708Y-85787846D01*
X146866160Y-86487393D01*
X146858668Y-86501113D01*
X146140116Y-86501113D01*
X146141332Y-86498887D01*
X146141203Y-86497082D01*
X146137020Y-86490573D01*
X145433581Y-85787135D01*
X145421995Y-85780808D01*
X145410171Y-85789956D01*
X145372974Y-85843079D01*
X145367577Y-85852425D01*
X145276021Y-86048769D01*
X145272332Y-86058902D01*
X145216261Y-86268163D01*
X145214387Y-86278794D01*
X145195506Y-86494605D01*
X145195506Y-86505395D01*
X142804996Y-86505395D01*
X142805468Y-86500000D01*
X142796618Y-86398842D01*
X142786107Y-86278698D01*
X142786106Y-86278693D01*
X142785635Y-86273308D01*
X142726739Y-86053504D01*
X142724452Y-86048600D01*
X142724450Y-86048594D01*
X142632858Y-85852177D01*
X142630568Y-85847266D01*
X142627460Y-85842827D01*
X142503153Y-85665296D01*
X142503149Y-85665292D01*
X142500047Y-85660861D01*
X142339139Y-85499953D01*
X142334708Y-85496851D01*
X142334704Y-85496847D01*
X142157173Y-85372540D01*
X142157171Y-85372539D01*
X142152734Y-85369432D01*
X142131761Y-85359652D01*
X141951406Y-85275550D01*
X141951400Y-85275548D01*
X141946496Y-85273261D01*
X141836452Y-85243775D01*
X141776791Y-85207410D01*
X141746262Y-85144563D01*
X141754557Y-85075188D01*
X141799042Y-85021310D01*
X141868545Y-85000000D01*
X146133385Y-85000000D01*
X146200424Y-85019685D01*
X146246179Y-85072489D01*
X146256123Y-85141647D01*
X146227098Y-85205203D01*
X146165479Y-85243775D01*
X146058902Y-85272332D01*
X146048769Y-85276021D01*
X145852425Y-85367577D01*
X145843079Y-85372974D01*
X145789133Y-85410748D01*
X145780890Y-85421059D01*
X145787846Y-85434292D01*
X146487393Y-86133840D01*
X146501113Y-86141332D01*
X146502918Y-86141203D01*
X146509427Y-86137020D01*
X147212865Y-85433581D01*
X147219192Y-85421995D01*
X147210044Y-85410171D01*
X147156921Y-85372974D01*
X147147575Y-85367577D01*
X146951231Y-85276021D01*
X146941098Y-85272332D01*
X146834521Y-85243775D01*
X146774861Y-85207410D01*
X146744332Y-85144563D01*
X146752627Y-85075187D01*
X146797112Y-85021309D01*
X146866615Y-85000000D01*
X151131455Y-85000000D01*
X151198494Y-85019685D01*
X151244249Y-85072489D01*
X151254193Y-85141647D01*
X151225168Y-85205203D01*
X151163548Y-85243775D01*
X151053504Y-85273261D01*
X151048600Y-85275548D01*
X151048594Y-85275550D01*
X150868239Y-85359652D01*
X150847266Y-85369432D01*
X150842829Y-85372539D01*
X150842827Y-85372540D01*
X150665296Y-85496847D01*
X150665292Y-85496851D01*
X150660861Y-85499953D01*
X150499953Y-85660861D01*
X150496851Y-85665292D01*
X150496847Y-85665296D01*
X150372540Y-85842827D01*
X150369432Y-85847266D01*
X150367142Y-85852177D01*
X150275550Y-86048594D01*
X150275548Y-86048600D01*
X150273261Y-86053504D01*
X150214365Y-86273308D01*
X150213894Y-86278693D01*
X150213893Y-86278698D01*
X150203382Y-86398842D01*
X150194532Y-86500000D01*
X150195004Y-86505395D01*
X150201319Y-86577571D01*
X150214365Y-86726692D01*
X150273261Y-86946496D01*
X150313194Y-87032132D01*
X150319198Y-87045008D01*
X150323856Y-87056456D01*
X150335359Y-87089327D01*
X150404583Y-87222487D01*
X150410807Y-87234087D01*
X150411092Y-87234602D01*
X150411220Y-87234826D01*
X150417032Y-87245036D01*
X150417065Y-87245094D01*
X150417176Y-87245288D01*
X150417321Y-87245535D01*
X150417338Y-87245565D01*
X150422330Y-87254089D01*
X150487503Y-87365379D01*
X150490907Y-87371104D01*
X150491082Y-87371394D01*
X150493596Y-87375480D01*
X150495572Y-87378692D01*
X150495779Y-87379025D01*
X150562057Y-87484701D01*
X150562100Y-87484777D01*
X150562103Y-87484775D01*
X150569269Y-87496218D01*
X150615629Y-87570250D01*
X150617216Y-87572785D01*
X150619706Y-87576942D01*
X150649281Y-87628595D01*
X150649282Y-87628596D01*
X150648157Y-87629240D01*
X150648159Y-87629248D01*
X150649286Y-87628603D01*
X150656857Y-87641826D01*
X150661309Y-87650355D01*
X150684183Y-87698659D01*
X150684802Y-87699965D01*
X150689725Y-87711941D01*
X150706513Y-87759737D01*
X150710387Y-87773131D01*
X150724831Y-87836158D01*
X150727048Y-87848811D01*
X150738460Y-87942184D01*
X150739297Y-87952807D01*
X150744418Y-88096694D01*
X150747085Y-88129845D01*
X150732839Y-88198245D01*
X150711165Y-88227468D01*
X149225452Y-89713181D01*
X149164129Y-89746666D01*
X149137771Y-89749500D01*
X146743770Y-89749500D01*
X146725123Y-89748090D01*
X146703830Y-89744851D01*
X146696649Y-89745435D01*
X146696647Y-89745435D01*
X146651691Y-89749092D01*
X146641638Y-89749500D01*
X146633638Y-89749500D01*
X146605702Y-89752757D01*
X146601403Y-89753182D01*
X146536578Y-89758455D01*
X146536576Y-89758455D01*
X146529401Y-89759039D01*
X146522553Y-89761257D01*
X146516634Y-89762440D01*
X146510784Y-89763823D01*
X146503632Y-89764657D01*
X146457079Y-89781555D01*
X146435706Y-89789313D01*
X146431619Y-89790715D01*
X146362914Y-89812973D01*
X146356753Y-89816712D01*
X146351277Y-89819219D01*
X146345901Y-89821911D01*
X146339129Y-89824369D01*
X146333105Y-89828318D01*
X146333104Y-89828319D01*
X146278717Y-89863977D01*
X146275056Y-89866287D01*
X146218020Y-89900897D01*
X146218017Y-89900899D01*
X146213301Y-89903761D01*
X146205008Y-89911084D01*
X146204983Y-89911056D01*
X146202094Y-89913619D01*
X146198801Y-89916372D01*
X146192775Y-89920323D01*
X146187823Y-89925550D01*
X146187821Y-89925552D01*
X146140076Y-89975953D01*
X146137736Y-89978356D01*
X145545141Y-90570952D01*
X145483818Y-90604437D01*
X145414127Y-90599453D01*
X145369779Y-90570952D01*
X144815030Y-90016203D01*
X144802840Y-90002019D01*
X144794348Y-89990479D01*
X144794346Y-89990477D01*
X144790077Y-89984676D01*
X144781239Y-89977167D01*
X144750213Y-89950809D01*
X144742816Y-89943989D01*
X144737157Y-89938330D01*
X144715080Y-89920863D01*
X144711771Y-89918150D01*
X144662200Y-89876036D01*
X144662198Y-89876035D01*
X144656705Y-89871368D01*
X144650284Y-89868090D01*
X144645251Y-89864733D01*
X144640161Y-89861589D01*
X144634511Y-89857119D01*
X144569038Y-89826519D01*
X144565189Y-89824637D01*
X144507264Y-89795059D01*
X144507262Y-89795058D01*
X144500844Y-89791781D01*
X144493846Y-89790069D01*
X144488203Y-89787970D01*
X144482489Y-89786069D01*
X144475967Y-89783021D01*
X144405209Y-89768303D01*
X144401013Y-89767353D01*
X144330854Y-89750185D01*
X144325346Y-89749843D01*
X144325344Y-89749843D01*
X144319812Y-89749500D01*
X144319814Y-89749464D01*
X144315960Y-89749231D01*
X144311682Y-89748849D01*
X144304629Y-89747382D01*
X144236301Y-89749231D01*
X144228023Y-89749455D01*
X144224669Y-89749500D01*
X141566304Y-89749500D01*
X141547655Y-89748090D01*
X141526370Y-89744852D01*
X141519189Y-89745436D01*
X141519187Y-89745436D01*
X141474239Y-89749092D01*
X141464187Y-89749500D01*
X141456178Y-89749500D01*
X141428221Y-89752759D01*
X141423922Y-89753185D01*
X141414179Y-89753977D01*
X141359116Y-89758455D01*
X141359112Y-89758456D01*
X141351941Y-89759039D01*
X141345093Y-89761257D01*
X141339185Y-89762438D01*
X141333328Y-89763823D01*
X141326172Y-89764657D01*
X141279619Y-89781555D01*
X141258246Y-89789313D01*
X141254159Y-89790715D01*
X141185454Y-89812973D01*
X141179295Y-89816711D01*
X141173816Y-89819219D01*
X141168438Y-89821912D01*
X141161669Y-89824369D01*
X141155646Y-89828318D01*
X141101256Y-89863977D01*
X141097611Y-89866277D01*
X141035840Y-89903761D01*
X141027548Y-89911085D01*
X141027523Y-89911057D01*
X141024634Y-89913618D01*
X141021337Y-89916375D01*
X141015315Y-89920323D01*
X140962616Y-89975953D01*
X140962599Y-89975971D01*
X140960259Y-89978374D01*
X139016203Y-91922430D01*
X139002020Y-91934620D01*
X138984676Y-91947383D01*
X138980016Y-91952869D01*
X138980012Y-91952872D01*
X138950803Y-91987254D01*
X138943983Y-91994650D01*
X138938330Y-92000303D01*
X138920863Y-92022380D01*
X138918150Y-92025689D01*
X138880740Y-92069724D01*
X138871368Y-92080755D01*
X138868090Y-92087176D01*
X138864733Y-92092209D01*
X138861589Y-92097299D01*
X138857119Y-92102949D01*
X138826519Y-92168422D01*
X138824637Y-92172271D01*
X138801374Y-92217830D01*
X138791781Y-92236616D01*
X138790069Y-92243614D01*
X138787970Y-92249257D01*
X138786069Y-92254971D01*
X138783021Y-92261493D01*
X138776140Y-92294577D01*
X138768306Y-92332238D01*
X138767353Y-92336447D01*
X138750185Y-92406606D01*
X138749500Y-92417648D01*
X138749464Y-92417646D01*
X138749231Y-92421500D01*
X138748849Y-92425778D01*
X138747382Y-92432831D01*
X138747577Y-92440031D01*
X138749455Y-92509437D01*
X138749500Y-92512791D01*
X138749500Y-96887771D01*
X138729815Y-96954810D01*
X138713181Y-96975452D01*
X137475452Y-98213181D01*
X137414129Y-98246666D01*
X137387771Y-98249500D01*
X129566310Y-98249500D01*
X129547663Y-98248090D01*
X129526370Y-98244851D01*
X129519189Y-98245435D01*
X129519187Y-98245435D01*
X129474231Y-98249092D01*
X129464178Y-98249500D01*
X129456178Y-98249500D01*
X129428242Y-98252757D01*
X129423943Y-98253182D01*
X129359118Y-98258455D01*
X129359116Y-98258455D01*
X129351941Y-98259039D01*
X129345093Y-98261257D01*
X129339174Y-98262440D01*
X129333324Y-98263823D01*
X129326172Y-98264657D01*
X129314574Y-98268867D01*
X129258246Y-98289313D01*
X129254159Y-98290715D01*
X129185454Y-98312973D01*
X129179293Y-98316712D01*
X129173817Y-98319219D01*
X129168441Y-98321911D01*
X129161669Y-98324369D01*
X129155645Y-98328318D01*
X129155644Y-98328319D01*
X129101257Y-98363977D01*
X129097596Y-98366287D01*
X129040560Y-98400897D01*
X129040557Y-98400899D01*
X129035841Y-98403761D01*
X129027548Y-98411084D01*
X129027523Y-98411056D01*
X129024634Y-98413619D01*
X129021341Y-98416372D01*
X129015315Y-98420323D01*
X129010363Y-98425550D01*
X129010361Y-98425552D01*
X128962616Y-98475953D01*
X128960276Y-98478356D01*
X127883816Y-99554817D01*
X127876181Y-99561839D01*
X127849216Y-99584625D01*
X127813463Y-99624867D01*
X127808460Y-99630173D01*
X127716203Y-99722430D01*
X127702020Y-99734620D01*
X127684676Y-99747383D01*
X127680015Y-99752869D01*
X127680011Y-99752873D01*
X127650800Y-99787255D01*
X127643990Y-99794642D01*
X127638330Y-99800303D01*
X127620863Y-99822380D01*
X127618150Y-99825689D01*
X127595445Y-99852415D01*
X127571368Y-99880755D01*
X127568090Y-99887176D01*
X127564733Y-99892209D01*
X127561589Y-99897299D01*
X127557119Y-99902949D01*
X127526519Y-99968422D01*
X127524637Y-99972271D01*
X127503947Y-100012791D01*
X127491781Y-100036616D01*
X127490069Y-100043614D01*
X127487970Y-100049257D01*
X127486069Y-100054971D01*
X127483021Y-100061493D01*
X127468641Y-100130627D01*
X127459924Y-100157125D01*
X127456306Y-100165002D01*
X127455777Y-100166247D01*
X127445036Y-100193727D01*
X127444745Y-100194541D01*
X127416580Y-100273308D01*
X127397006Y-100328047D01*
X127391129Y-100345478D01*
X127390876Y-100346276D01*
X127385723Y-100363597D01*
X127349379Y-100494273D01*
X127347844Y-100499918D01*
X127347778Y-100500165D01*
X127347755Y-100500252D01*
X127317969Y-100612361D01*
X127316079Y-100618774D01*
X127294975Y-100683834D01*
X127290324Y-100698173D01*
X127285383Y-100710951D01*
X127259461Y-100768348D01*
X127250951Y-100784063D01*
X127215643Y-100839337D01*
X127214804Y-100840650D01*
X127203739Y-100855420D01*
X127187454Y-100874083D01*
X127124267Y-100946496D01*
X127117546Y-100954198D01*
X127111246Y-100963368D01*
X127107195Y-100969265D01*
X127094645Y-100984712D01*
X127029896Y-101052468D01*
X127027032Y-101056667D01*
X127027030Y-101056669D01*
X126893722Y-101252091D01*
X126890851Y-101256300D01*
X126786965Y-101480104D01*
X126785605Y-101485008D01*
X126722671Y-101711941D01*
X126721026Y-101717871D01*
X126694806Y-101963214D01*
X126695099Y-101968296D01*
X126695099Y-101968297D01*
X126703555Y-102114950D01*
X126709010Y-102209545D01*
X126731018Y-102307201D01*
X126761145Y-102440884D01*
X126763255Y-102450249D01*
X126856084Y-102678861D01*
X126858746Y-102683205D01*
X126982344Y-102884898D01*
X126982348Y-102884903D01*
X126985006Y-102889241D01*
X126988338Y-102893087D01*
X126988339Y-102893089D01*
X127143121Y-103071774D01*
X127146557Y-103075741D01*
X127150467Y-103078988D01*
X127150471Y-103078991D01*
X127312104Y-103213181D01*
X127336399Y-103233351D01*
X127436390Y-103291781D01*
X127545036Y-103355269D01*
X127545040Y-103355271D01*
X127549433Y-103357838D01*
X127779939Y-103445859D01*
X127869890Y-103464160D01*
X128016741Y-103494038D01*
X128016744Y-103494038D01*
X128021726Y-103495052D01*
X128183367Y-103500979D01*
X128263221Y-103503907D01*
X128263224Y-103503907D01*
X128268300Y-103504093D01*
X128513041Y-103472741D01*
X128517911Y-103471280D01*
X128744502Y-103403300D01*
X128744506Y-103403299D01*
X128749374Y-103401838D01*
X128970954Y-103293287D01*
X128975099Y-103290330D01*
X128975103Y-103290328D01*
X129065117Y-103226121D01*
X129833370Y-103226121D01*
X129838999Y-103234048D01*
X129841083Y-103235508D01*
X130045256Y-103354818D01*
X130054408Y-103359202D01*
X130275321Y-103443560D01*
X130285064Y-103446391D01*
X130516800Y-103493539D01*
X130526870Y-103494739D01*
X130763199Y-103503406D01*
X130773320Y-103502946D01*
X131007893Y-103472896D01*
X131017806Y-103470789D01*
X131244325Y-103402830D01*
X131253752Y-103399136D01*
X131466126Y-103295095D01*
X131474841Y-103289900D01*
X131554592Y-103233014D01*
X131562860Y-103222482D01*
X131555984Y-103209537D01*
X130712607Y-102366160D01*
X130698887Y-102358668D01*
X130697081Y-102358797D01*
X130690574Y-102362979D01*
X129840512Y-103213041D01*
X129833370Y-103226121D01*
X129065117Y-103226121D01*
X129138429Y-103173828D01*
X129171829Y-103150004D01*
X129346605Y-102975837D01*
X129377024Y-102933504D01*
X129385462Y-102921762D01*
X129440568Y-102878807D01*
X129447108Y-102878110D01*
X129484421Y-102862026D01*
X130333840Y-102012607D01*
X130341332Y-101998887D01*
X130341203Y-101997081D01*
X130337021Y-101990574D01*
X129489747Y-101143300D01*
X129450935Y-101122107D01*
X129436281Y-101118920D01*
X129397841Y-101086238D01*
X129297375Y-100957133D01*
X129285475Y-100942418D01*
X129284918Y-100941755D01*
X129284549Y-100941332D01*
X129284521Y-100941299D01*
X129273152Y-100928259D01*
X129272774Y-100927825D01*
X129154954Y-100797564D01*
X129150643Y-100792858D01*
X129150489Y-100792692D01*
X129147572Y-100789574D01*
X129147479Y-100789476D01*
X129147307Y-100789292D01*
X129136103Y-100777418D01*
X129836468Y-100777418D01*
X129843105Y-100789552D01*
X130687393Y-101633840D01*
X130701113Y-101641332D01*
X130702919Y-101641203D01*
X130709426Y-101637021D01*
X131557860Y-100788587D01*
X131564767Y-100775937D01*
X131557117Y-100765436D01*
X131536927Y-100749491D01*
X131528478Y-100743877D01*
X131321447Y-100629590D01*
X131312190Y-100625431D01*
X131089283Y-100546494D01*
X131079468Y-100543901D01*
X130846656Y-100502431D01*
X130836562Y-100501477D01*
X130600097Y-100498587D01*
X130589972Y-100499295D01*
X130356222Y-100535065D01*
X130346348Y-100537417D01*
X130121569Y-100610886D01*
X130112220Y-100614816D01*
X129902461Y-100724009D01*
X129893876Y-100729416D01*
X129844786Y-100766273D01*
X129836468Y-100777418D01*
X129136103Y-100777418D01*
X129047803Y-100683834D01*
X129016113Y-100621565D01*
X129023119Y-100552047D01*
X129050312Y-100511055D01*
X129404238Y-100157130D01*
X129774549Y-99786819D01*
X129835872Y-99753334D01*
X129862230Y-99750500D01*
X137683696Y-99750500D01*
X137702344Y-99751910D01*
X137723630Y-99755148D01*
X137730811Y-99754564D01*
X137730813Y-99754564D01*
X137775761Y-99750908D01*
X137785813Y-99750500D01*
X137793822Y-99750500D01*
X137821779Y-99747241D01*
X137826078Y-99746815D01*
X137835821Y-99746023D01*
X137890884Y-99741545D01*
X137890888Y-99741544D01*
X137898059Y-99740961D01*
X137904907Y-99738743D01*
X137910815Y-99737562D01*
X137916672Y-99736177D01*
X137923828Y-99735343D01*
X137991761Y-99710685D01*
X137995848Y-99709282D01*
X138028100Y-99698834D01*
X138064546Y-99687027D01*
X138070705Y-99683289D01*
X138076184Y-99680781D01*
X138081562Y-99678088D01*
X138088331Y-99675631D01*
X138148744Y-99636023D01*
X138152389Y-99633723D01*
X138214160Y-99596239D01*
X138222452Y-99588915D01*
X138222477Y-99588943D01*
X138225366Y-99586382D01*
X138228663Y-99583625D01*
X138234685Y-99579677D01*
X138287401Y-99524029D01*
X138289740Y-99521627D01*
X139983801Y-97827567D01*
X139997984Y-97815378D01*
X140009520Y-97806888D01*
X140015324Y-97802617D01*
X140028746Y-97786819D01*
X140049185Y-97762760D01*
X140056005Y-97755363D01*
X140061671Y-97749697D01*
X140079147Y-97727608D01*
X140081873Y-97724284D01*
X140123968Y-97674735D01*
X140123968Y-97674734D01*
X140128632Y-97669245D01*
X140131909Y-97662828D01*
X140135254Y-97657812D01*
X140138409Y-97652703D01*
X140142881Y-97647051D01*
X140173475Y-97581592D01*
X140175368Y-97577719D01*
X140204941Y-97519804D01*
X140204942Y-97519802D01*
X140208219Y-97513384D01*
X140209932Y-97506384D01*
X140212033Y-97500734D01*
X140213930Y-97495032D01*
X140216980Y-97488507D01*
X140218445Y-97481462D01*
X140218447Y-97481457D01*
X140231694Y-97417767D01*
X140232649Y-97413546D01*
X140249815Y-97343394D01*
X140250500Y-97332352D01*
X140250538Y-97332354D01*
X140250768Y-97328512D01*
X140251151Y-97324223D01*
X140252618Y-97317169D01*
X140250545Y-97240563D01*
X140250500Y-97237209D01*
X140250500Y-92862229D01*
X140270185Y-92795190D01*
X140286819Y-92774548D01*
X141774548Y-91286819D01*
X141835871Y-91253334D01*
X141862229Y-91250500D01*
X143875231Y-91250500D01*
X143942270Y-91270185D01*
X143962912Y-91286819D01*
X144480772Y-91804679D01*
X144514257Y-91866002D01*
X144509273Y-91935694D01*
X144480772Y-91980041D01*
X144423780Y-92037033D01*
X144423775Y-92037039D01*
X144419953Y-92040861D01*
X144416852Y-92045290D01*
X144416851Y-92045291D01*
X144299189Y-92213332D01*
X144289432Y-92227266D01*
X144284838Y-92237119D01*
X144262382Y-92285275D01*
X144216210Y-92337714D01*
X144149016Y-92356866D01*
X144082135Y-92336650D01*
X144037618Y-92285275D01*
X144015163Y-92237119D01*
X144010568Y-92227266D01*
X144003961Y-92217830D01*
X143883153Y-92045296D01*
X143883149Y-92045291D01*
X143880047Y-92040861D01*
X143719139Y-91879953D01*
X143714708Y-91876851D01*
X143714704Y-91876847D01*
X143537173Y-91752540D01*
X143537171Y-91752539D01*
X143532734Y-91749432D01*
X143456935Y-91714086D01*
X143331406Y-91655550D01*
X143331400Y-91655548D01*
X143326496Y-91653261D01*
X143106692Y-91594365D01*
X143101307Y-91593894D01*
X143101302Y-91593893D01*
X142885395Y-91575004D01*
X142880000Y-91574532D01*
X142874605Y-91575004D01*
X142658698Y-91593893D01*
X142658693Y-91593894D01*
X142653308Y-91594365D01*
X142433504Y-91653261D01*
X142428600Y-91655548D01*
X142428594Y-91655550D01*
X142303065Y-91714086D01*
X142227266Y-91749432D01*
X142222829Y-91752539D01*
X142222827Y-91752540D01*
X142045296Y-91876847D01*
X142045292Y-91876851D01*
X142040861Y-91879953D01*
X141879953Y-92040861D01*
X141876851Y-92045291D01*
X141876847Y-92045296D01*
X141756039Y-92217830D01*
X141749432Y-92227266D01*
X141747142Y-92232177D01*
X141655550Y-92428594D01*
X141655548Y-92428600D01*
X141653261Y-92433504D01*
X141594365Y-92653308D01*
X141574532Y-92880000D01*
X141594365Y-93106692D01*
X141653261Y-93326496D01*
X141664028Y-93349585D01*
X141699198Y-93425008D01*
X141703856Y-93436456D01*
X141715359Y-93469327D01*
X141784583Y-93602487D01*
X141790807Y-93614087D01*
X141791092Y-93614602D01*
X141792896Y-93617770D01*
X141797032Y-93625036D01*
X141797065Y-93625094D01*
X141797176Y-93625288D01*
X141797321Y-93625535D01*
X141797338Y-93625565D01*
X141832352Y-93685355D01*
X141867503Y-93745379D01*
X141870907Y-93751104D01*
X141871082Y-93751394D01*
X141872541Y-93753765D01*
X141875572Y-93758692D01*
X141875779Y-93759025D01*
X141942057Y-93864701D01*
X141942100Y-93864777D01*
X141942103Y-93864775D01*
X141997216Y-93952785D01*
X141999706Y-93956942D01*
X142029281Y-94008595D01*
X142029282Y-94008596D01*
X142028157Y-94009240D01*
X142028159Y-94009248D01*
X142029286Y-94008603D01*
X142036857Y-94021826D01*
X142041309Y-94030355D01*
X142053520Y-94056140D01*
X142064802Y-94079965D01*
X142069725Y-94091941D01*
X142086513Y-94139737D01*
X142090387Y-94153131D01*
X142104831Y-94216158D01*
X142107048Y-94228811D01*
X142118460Y-94322184D01*
X142119297Y-94332807D01*
X142124418Y-94476694D01*
X142128039Y-94521712D01*
X142128137Y-94522068D01*
X142129500Y-94537695D01*
X142129500Y-96257771D01*
X142109815Y-96324810D01*
X142093181Y-96345452D01*
X137225452Y-101213181D01*
X137164129Y-101246666D01*
X137137771Y-101249500D01*
X135238263Y-101249500D01*
X135215520Y-101247396D01*
X135199848Y-101244472D01*
X135195430Y-101244288D01*
X135195423Y-101244287D01*
X135012281Y-101236651D01*
X134999859Y-101235505D01*
X134960639Y-101229885D01*
X134877120Y-101217918D01*
X134862573Y-101214935D01*
X134776719Y-101191890D01*
X134761836Y-101186863D01*
X134692973Y-101158621D01*
X134680370Y-101152602D01*
X134654526Y-101138418D01*
X134608074Y-101112924D01*
X134599843Y-101107981D01*
X134586317Y-101099129D01*
X134509306Y-101048729D01*
X134506061Y-101046531D01*
X134505495Y-101046134D01*
X134392254Y-100966779D01*
X134387214Y-100963292D01*
X134378195Y-100957133D01*
X134254540Y-100872697D01*
X134254529Y-100872690D01*
X134254225Y-100872482D01*
X134244990Y-100866324D01*
X134244540Y-100866031D01*
X134234341Y-100859562D01*
X134082250Y-100765630D01*
X134067355Y-100756780D01*
X134066681Y-100756395D01*
X134066226Y-100756145D01*
X134066182Y-100756120D01*
X134058044Y-100751644D01*
X134052478Y-100748582D01*
X134016277Y-100729416D01*
X133883092Y-100658903D01*
X133883091Y-100658903D01*
X133879896Y-100657211D01*
X133876523Y-100655902D01*
X133876516Y-100655899D01*
X133862836Y-100650591D01*
X133847765Y-100643546D01*
X133821662Y-100629136D01*
X133821650Y-100629130D01*
X133817198Y-100626673D01*
X133584610Y-100544309D01*
X133421839Y-100515315D01*
X133346702Y-100501931D01*
X133346701Y-100501931D01*
X133341694Y-100501039D01*
X133255090Y-100499981D01*
X133100062Y-100498087D01*
X133100060Y-100498087D01*
X133094972Y-100498025D01*
X132851070Y-100535347D01*
X132616540Y-100612003D01*
X132603522Y-100618780D01*
X132402194Y-100723584D01*
X132402188Y-100723588D01*
X132397679Y-100725935D01*
X132330319Y-100776510D01*
X132211375Y-100865816D01*
X132200364Y-100874083D01*
X132196848Y-100877762D01*
X132196846Y-100877764D01*
X132121396Y-100956718D01*
X132029896Y-101052468D01*
X132027034Y-101056664D01*
X132027028Y-101056671D01*
X132012687Y-101077694D01*
X131958646Y-101121982D01*
X131950486Y-101123054D01*
X131913451Y-101140102D01*
X131066160Y-101987393D01*
X131058668Y-102001113D01*
X131058797Y-102002919D01*
X131062979Y-102009426D01*
X131910066Y-102856513D01*
X131945665Y-102875951D01*
X131967201Y-102880637D01*
X132001497Y-102908279D01*
X132143121Y-103071774D01*
X132146557Y-103075741D01*
X132150467Y-103078988D01*
X132150471Y-103078991D01*
X132312104Y-103213181D01*
X132336399Y-103233351D01*
X132436390Y-103291781D01*
X132545036Y-103355269D01*
X132545040Y-103355271D01*
X132549433Y-103357838D01*
X132779939Y-103445859D01*
X132869890Y-103464160D01*
X133016741Y-103494038D01*
X133016744Y-103494038D01*
X133021726Y-103495052D01*
X133198427Y-103501531D01*
X133199845Y-103501583D01*
X133245489Y-103516823D01*
X133261517Y-103506523D01*
X133280696Y-103502505D01*
X133287894Y-103501583D01*
X133513041Y-103472741D01*
X133517911Y-103471280D01*
X133744505Y-103403299D01*
X133744508Y-103403298D01*
X133749374Y-103401838D01*
X133836484Y-103359163D01*
X133849202Y-103353788D01*
X133875731Y-103344281D01*
X133875736Y-103344279D01*
X133879896Y-103342788D01*
X134052485Y-103251413D01*
X134066687Y-103243600D01*
X134067361Y-103243215D01*
X134082256Y-103234365D01*
X134234341Y-103140437D01*
X134244540Y-103133968D01*
X134244990Y-103133675D01*
X134245192Y-103133541D01*
X134245232Y-103133514D01*
X134249579Y-103130615D01*
X134254224Y-103127518D01*
X134387097Y-103036788D01*
X134392136Y-103033302D01*
X134506094Y-102953445D01*
X134509327Y-102951255D01*
X134599851Y-102892012D01*
X134608079Y-102887073D01*
X134680369Y-102847398D01*
X134692978Y-102841376D01*
X134761824Y-102813141D01*
X134776727Y-102808107D01*
X134862558Y-102785067D01*
X134877119Y-102782081D01*
X134999857Y-102764495D01*
X135012278Y-102763349D01*
X135198507Y-102755584D01*
X135198517Y-102755583D01*
X135199845Y-102755528D01*
X135201168Y-102755415D01*
X135201176Y-102755415D01*
X135243292Y-102751834D01*
X135243296Y-102751876D01*
X135258740Y-102750500D01*
X137433696Y-102750500D01*
X137452344Y-102751910D01*
X137473630Y-102755148D01*
X137480811Y-102754564D01*
X137480813Y-102754564D01*
X137525761Y-102750908D01*
X137535813Y-102750500D01*
X137543822Y-102750500D01*
X137571779Y-102747241D01*
X137576078Y-102746815D01*
X137585821Y-102746023D01*
X137640884Y-102741545D01*
X137640888Y-102741544D01*
X137648059Y-102740961D01*
X137654907Y-102738743D01*
X137660815Y-102737562D01*
X137666672Y-102736177D01*
X137673828Y-102735343D01*
X137741761Y-102710685D01*
X137745848Y-102709282D01*
X137767083Y-102702403D01*
X137814546Y-102687027D01*
X137820705Y-102683289D01*
X137826184Y-102680781D01*
X137831562Y-102678088D01*
X137838331Y-102675631D01*
X137883040Y-102646319D01*
X137898744Y-102636023D01*
X137902389Y-102633723D01*
X137964160Y-102596239D01*
X137972452Y-102588915D01*
X137972477Y-102588943D01*
X137975366Y-102586382D01*
X137978663Y-102583625D01*
X137984685Y-102579677D01*
X138037402Y-102524028D01*
X138039741Y-102521626D01*
X139799041Y-100762326D01*
X141604431Y-100762326D01*
X141652331Y-100941092D01*
X141656023Y-100951235D01*
X141747580Y-101147580D01*
X141752968Y-101156913D01*
X141877233Y-101334381D01*
X141884169Y-101342647D01*
X142037353Y-101495831D01*
X142045619Y-101502767D01*
X142223087Y-101627032D01*
X142232420Y-101632420D01*
X142428765Y-101723977D01*
X142438908Y-101727669D01*
X142612779Y-101774258D01*
X142626653Y-101773927D01*
X142630000Y-101766111D01*
X142630000Y-100767830D01*
X142625596Y-100752831D01*
X142624226Y-100751644D01*
X142616668Y-100750000D01*
X141618958Y-100750000D01*
X141605641Y-100753910D01*
X141604431Y-100762326D01*
X139799041Y-100762326D01*
X140328588Y-100232779D01*
X141605742Y-100232779D01*
X141606073Y-100246653D01*
X141613889Y-100250000D01*
X142612170Y-100250000D01*
X142627169Y-100245596D01*
X142628356Y-100244226D01*
X142630000Y-100236668D01*
X142630000Y-99238958D01*
X142626090Y-99225641D01*
X142617674Y-99224431D01*
X142438908Y-99272331D01*
X142428765Y-99276023D01*
X142232420Y-99367580D01*
X142223087Y-99372968D01*
X142045619Y-99497233D01*
X142037353Y-99504169D01*
X141884169Y-99657353D01*
X141877233Y-99665619D01*
X141752968Y-99843087D01*
X141747580Y-99852420D01*
X141656023Y-100048765D01*
X141652331Y-100058908D01*
X141605742Y-100232779D01*
X140328588Y-100232779D01*
X143363797Y-97197570D01*
X143377981Y-97185380D01*
X143395324Y-97172617D01*
X143399984Y-97167131D01*
X143399988Y-97167128D01*
X143429197Y-97132746D01*
X143436017Y-97125350D01*
X143441670Y-97119697D01*
X143459137Y-97097620D01*
X143461850Y-97094311D01*
X143503964Y-97044740D01*
X143503965Y-97044738D01*
X143508632Y-97039245D01*
X143511910Y-97032824D01*
X143515267Y-97027791D01*
X143518411Y-97022701D01*
X143522881Y-97017051D01*
X143553481Y-96951578D01*
X143555363Y-96947729D01*
X143584941Y-96889804D01*
X143584942Y-96889802D01*
X143588219Y-96883384D01*
X143589931Y-96876386D01*
X143592030Y-96870743D01*
X143593931Y-96865029D01*
X143596979Y-96858507D01*
X143611697Y-96787749D01*
X143612650Y-96783541D01*
X143629815Y-96713394D01*
X143630310Y-96705423D01*
X143630500Y-96702352D01*
X143630536Y-96702354D01*
X143630769Y-96698500D01*
X143631151Y-96694222D01*
X143632618Y-96687169D01*
X143630545Y-96610563D01*
X143630500Y-96607209D01*
X143630500Y-94515970D01*
X143632467Y-94493970D01*
X143634797Y-94481044D01*
X143635582Y-94476691D01*
X143640702Y-94332810D01*
X143641539Y-94322184D01*
X143641540Y-94322182D01*
X143652951Y-94228813D01*
X143655169Y-94216159D01*
X143669613Y-94153135D01*
X143673485Y-94139746D01*
X143690273Y-94091945D01*
X143695197Y-94079965D01*
X143710411Y-94047836D01*
X143718697Y-94030340D01*
X143723142Y-94021826D01*
X143760267Y-93956985D01*
X143762775Y-93952798D01*
X143817895Y-93864776D01*
X143817916Y-93864789D01*
X143817942Y-93864700D01*
X143884181Y-93759088D01*
X143884427Y-93758692D01*
X143887458Y-93753765D01*
X143888917Y-93751394D01*
X143889092Y-93751104D01*
X143892496Y-93745379D01*
X143927647Y-93685355D01*
X143962661Y-93625565D01*
X143962678Y-93625535D01*
X143962823Y-93625288D01*
X143962934Y-93625094D01*
X143962967Y-93625036D01*
X143967103Y-93617770D01*
X143968907Y-93614602D01*
X143969192Y-93614087D01*
X143975416Y-93602487D01*
X144042035Y-93474338D01*
X144090420Y-93423938D01*
X144158376Y-93407697D01*
X144224324Y-93430774D01*
X144264436Y-93479130D01*
X144289432Y-93532734D01*
X144292539Y-93537171D01*
X144292540Y-93537173D01*
X144416847Y-93714704D01*
X144416851Y-93714708D01*
X144419953Y-93719139D01*
X144580861Y-93880047D01*
X144585292Y-93883149D01*
X144585296Y-93883153D01*
X144717309Y-93975588D01*
X144767266Y-94010568D01*
X144772177Y-94012858D01*
X144968594Y-94104450D01*
X144968600Y-94104452D01*
X144973504Y-94106739D01*
X145109221Y-94143104D01*
X145164635Y-94157952D01*
X145193308Y-94165635D01*
X145198693Y-94166106D01*
X145198698Y-94166107D01*
X145414605Y-94184996D01*
X145420000Y-94185468D01*
X145425395Y-94184996D01*
X145641302Y-94166107D01*
X145641307Y-94166106D01*
X145646692Y-94165635D01*
X145675366Y-94157952D01*
X145730779Y-94143104D01*
X145866496Y-94106739D01*
X145871400Y-94104452D01*
X145871406Y-94104450D01*
X146067823Y-94012858D01*
X146072734Y-94010568D01*
X146122691Y-93975588D01*
X146254704Y-93883153D01*
X146254708Y-93883149D01*
X146259139Y-93880047D01*
X146420047Y-93719139D01*
X146423149Y-93714708D01*
X146423153Y-93714704D01*
X146547460Y-93537173D01*
X146547461Y-93537171D01*
X146550568Y-93532734D01*
X146577618Y-93474724D01*
X146623790Y-93422286D01*
X146690984Y-93403134D01*
X146757865Y-93423350D01*
X146802382Y-93474725D01*
X146817115Y-93506320D01*
X146819792Y-93512495D01*
X146823826Y-93522536D01*
X146828198Y-93530088D01*
X146829432Y-93532734D01*
X146831153Y-93535192D01*
X146831577Y-93535924D01*
X146831577Y-93535925D01*
X146877256Y-93614826D01*
X146898318Y-93651206D01*
X146904482Y-93661566D01*
X146904765Y-93662029D01*
X146910815Y-93671680D01*
X146911029Y-93672013D01*
X146962211Y-93751658D01*
X146985622Y-93788089D01*
X146988956Y-93793210D01*
X146989117Y-93793454D01*
X146992729Y-93798852D01*
X147053674Y-93888683D01*
X147061610Y-93900381D01*
X147062045Y-93901027D01*
X147116984Y-93983263D01*
X147120051Y-93988095D01*
X147156067Y-94047836D01*
X147161097Y-94057037D01*
X147183193Y-94101867D01*
X147188562Y-94114473D01*
X147204304Y-94157952D01*
X147208437Y-94171862D01*
X147222355Y-94231227D01*
X147224682Y-94244235D01*
X147235918Y-94334638D01*
X147236783Y-94345445D01*
X147241882Y-94486926D01*
X147243654Y-94508878D01*
X147244988Y-94525397D01*
X147245503Y-94531781D01*
X147245594Y-94532114D01*
X147246960Y-94547753D01*
X147246960Y-94943696D01*
X147245550Y-94962344D01*
X147242312Y-94983630D01*
X147242896Y-94990811D01*
X147242896Y-94990813D01*
X147246552Y-95035761D01*
X147246960Y-95045813D01*
X147246960Y-95053822D01*
X147247376Y-95057387D01*
X147250219Y-95081774D01*
X147250645Y-95086082D01*
X147255121Y-95141113D01*
X147256499Y-95158059D01*
X147258717Y-95164907D01*
X147259898Y-95170815D01*
X147261283Y-95176672D01*
X147262117Y-95183828D01*
X147264575Y-95190599D01*
X147286773Y-95251754D01*
X147288175Y-95255841D01*
X147310433Y-95324546D01*
X147314171Y-95330705D01*
X147316679Y-95336184D01*
X147319372Y-95341562D01*
X147321829Y-95348331D01*
X147325778Y-95354354D01*
X147361437Y-95408744D01*
X147363737Y-95412389D01*
X147401221Y-95474160D01*
X147404876Y-95478298D01*
X147408545Y-95482452D01*
X147408517Y-95482477D01*
X147411078Y-95485366D01*
X147413835Y-95488663D01*
X147417783Y-95494685D01*
X147473431Y-95547401D01*
X147475834Y-95549741D01*
X149409890Y-97483797D01*
X149422080Y-97497980D01*
X149434843Y-97515324D01*
X149440329Y-97519984D01*
X149440332Y-97519988D01*
X149474714Y-97549197D01*
X149482110Y-97556017D01*
X149487763Y-97561670D01*
X149509840Y-97579137D01*
X149513149Y-97581850D01*
X149568215Y-97628632D01*
X149574636Y-97631910D01*
X149579669Y-97635267D01*
X149584759Y-97638411D01*
X149590409Y-97642881D01*
X149655882Y-97673481D01*
X149659731Y-97675363D01*
X149711523Y-97701809D01*
X149724076Y-97708219D01*
X149731074Y-97709931D01*
X149736717Y-97712030D01*
X149742431Y-97713931D01*
X149748953Y-97716979D01*
X149819711Y-97731697D01*
X149823907Y-97732647D01*
X149894066Y-97749815D01*
X149899574Y-97750157D01*
X149899576Y-97750157D01*
X149905108Y-97750500D01*
X149905106Y-97750536D01*
X149908960Y-97750769D01*
X149913238Y-97751151D01*
X149920291Y-97752618D01*
X149996897Y-97750545D01*
X150000251Y-97750500D01*
X151637771Y-97750500D01*
X151704810Y-97770185D01*
X151725452Y-97786819D01*
X155213181Y-101274548D01*
X155246666Y-101335871D01*
X155249500Y-101362229D01*
X155249500Y-101744027D01*
X155247533Y-101766025D01*
X155244418Y-101783305D01*
X155242632Y-101833508D01*
X155239298Y-101927183D01*
X155238461Y-101937805D01*
X155230723Y-102001113D01*
X155227048Y-102031184D01*
X155224830Y-102043840D01*
X155210386Y-102106864D01*
X155206514Y-102120253D01*
X155189726Y-102168054D01*
X155184802Y-102180034D01*
X155161302Y-102229659D01*
X155156858Y-102238172D01*
X155132444Y-102280813D01*
X155119738Y-102303004D01*
X155117224Y-102307201D01*
X155094292Y-102343822D01*
X155062290Y-102394927D01*
X155062150Y-102395150D01*
X155062104Y-102395223D01*
X154995768Y-102500992D01*
X154995726Y-102501060D01*
X154995650Y-102501181D01*
X154991439Y-102508016D01*
X154991255Y-102508320D01*
X154987503Y-102514620D01*
X154987302Y-102514963D01*
X154987259Y-102515036D01*
X154917760Y-102633714D01*
X154917176Y-102634711D01*
X154917103Y-102634840D01*
X154917032Y-102634963D01*
X154913172Y-102641744D01*
X154911092Y-102645397D01*
X154910807Y-102645912D01*
X154910653Y-102646199D01*
X154910629Y-102646243D01*
X154910589Y-102646319D01*
X154904583Y-102657513D01*
X154904454Y-102657761D01*
X154904443Y-102657782D01*
X154842994Y-102775988D01*
X154835359Y-102790674D01*
X154834089Y-102794003D01*
X154816682Y-102839630D01*
X154813209Y-102847835D01*
X154794912Y-102887073D01*
X154773261Y-102933504D01*
X154764418Y-102966507D01*
X154719490Y-103134183D01*
X154714365Y-103153308D01*
X154713894Y-103158693D01*
X154713893Y-103158698D01*
X154697969Y-103340719D01*
X154694532Y-103380000D01*
X154695004Y-103385395D01*
X154708508Y-103539741D01*
X154714365Y-103606692D01*
X154773261Y-103826496D01*
X154775548Y-103831400D01*
X154775550Y-103831406D01*
X154819452Y-103925552D01*
X154869432Y-104032734D01*
X154872539Y-104037171D01*
X154872540Y-104037173D01*
X154996847Y-104214704D01*
X154996851Y-104214708D01*
X154999953Y-104219139D01*
X155160861Y-104380047D01*
X155165292Y-104383149D01*
X155165296Y-104383153D01*
X155342827Y-104507460D01*
X155347266Y-104510568D01*
X155352177Y-104512858D01*
X155548594Y-104604450D01*
X155548600Y-104604452D01*
X155553504Y-104606739D01*
X155773308Y-104665635D01*
X155778693Y-104666106D01*
X155778698Y-104666107D01*
X155994605Y-104684996D01*
X156000000Y-104685468D01*
X156005395Y-104684996D01*
X156221302Y-104666107D01*
X156221307Y-104666106D01*
X156226692Y-104665635D01*
X156446496Y-104606739D01*
X156451400Y-104604452D01*
X156451406Y-104604450D01*
X156647823Y-104512858D01*
X156652734Y-104510568D01*
X156657173Y-104507460D01*
X156834704Y-104383153D01*
X156834708Y-104383149D01*
X156839139Y-104380047D01*
X157000047Y-104219139D01*
X157003149Y-104214708D01*
X157003153Y-104214704D01*
X157127460Y-104037173D01*
X157127461Y-104037171D01*
X157130568Y-104032734D01*
X157180548Y-103925552D01*
X157224450Y-103831406D01*
X157224452Y-103831400D01*
X157226739Y-103826496D01*
X157285635Y-103606692D01*
X157291493Y-103539741D01*
X157304996Y-103385395D01*
X157305468Y-103380000D01*
X157302031Y-103340719D01*
X157286107Y-103158698D01*
X157286106Y-103158693D01*
X157285635Y-103153308D01*
X157280511Y-103134183D01*
X157235582Y-102966507D01*
X157226739Y-102933504D01*
X157224452Y-102928600D01*
X157224450Y-102928594D01*
X157180799Y-102834986D01*
X157176140Y-102823537D01*
X157171455Y-102810149D01*
X157164640Y-102790672D01*
X157104835Y-102675631D01*
X157095588Y-102657843D01*
X157095556Y-102657782D01*
X157095415Y-102657511D01*
X157089192Y-102645912D01*
X157088907Y-102645397D01*
X157086827Y-102641744D01*
X157082967Y-102634963D01*
X157082896Y-102634840D01*
X157082823Y-102634711D01*
X157082239Y-102633714D01*
X157012740Y-102515036D01*
X157012697Y-102514963D01*
X157012496Y-102514620D01*
X157008744Y-102508320D01*
X157008560Y-102508016D01*
X157004349Y-102501181D01*
X157004273Y-102501060D01*
X157004231Y-102500992D01*
X156937709Y-102394927D01*
X156937664Y-102394855D01*
X156882796Y-102307237D01*
X156880280Y-102303037D01*
X156843145Y-102238178D01*
X156838685Y-102229635D01*
X156831523Y-102214509D01*
X156815197Y-102180034D01*
X156810274Y-102168058D01*
X156793486Y-102120262D01*
X156789612Y-102106868D01*
X156775168Y-102043841D01*
X156772951Y-102031186D01*
X156770680Y-102012607D01*
X156761538Y-101937805D01*
X156760701Y-101927183D01*
X156757368Y-101833508D01*
X156755581Y-101783305D01*
X156751964Y-101738317D01*
X156751863Y-101737947D01*
X156750500Y-101722319D01*
X156750500Y-101066304D01*
X156751910Y-101047655D01*
X156752475Y-101043938D01*
X156755148Y-101026370D01*
X156750908Y-100974239D01*
X156750500Y-100964187D01*
X156750500Y-100956178D01*
X156747241Y-100928221D01*
X156746815Y-100923918D01*
X156741545Y-100859116D01*
X156741544Y-100859112D01*
X156740961Y-100851941D01*
X156738743Y-100845093D01*
X156737562Y-100839185D01*
X156736177Y-100833328D01*
X156735343Y-100826172D01*
X156710685Y-100758239D01*
X156709282Y-100754152D01*
X156693263Y-100704702D01*
X156687027Y-100685454D01*
X156683289Y-100679295D01*
X156680781Y-100673816D01*
X156678088Y-100668438D01*
X156675631Y-100661669D01*
X156652687Y-100626673D01*
X156636023Y-100601256D01*
X156633714Y-100597597D01*
X156596239Y-100535840D01*
X156588915Y-100527548D01*
X156588943Y-100527523D01*
X156586382Y-100524634D01*
X156583625Y-100521337D01*
X156579677Y-100515315D01*
X156524028Y-100462598D01*
X156521626Y-100460259D01*
X154184260Y-98122893D01*
X155280808Y-98122893D01*
X155289956Y-98134717D01*
X155343079Y-98171914D01*
X155352425Y-98177311D01*
X155548769Y-98268867D01*
X155558902Y-98272556D01*
X155768163Y-98328627D01*
X155778794Y-98330501D01*
X155994605Y-98349382D01*
X156005395Y-98349382D01*
X156221206Y-98330501D01*
X156231837Y-98328627D01*
X156441098Y-98272556D01*
X156451231Y-98268867D01*
X156647575Y-98177311D01*
X156656921Y-98171914D01*
X156710867Y-98134140D01*
X156719110Y-98123829D01*
X156712154Y-98110596D01*
X156012607Y-97411048D01*
X155998887Y-97403556D01*
X155997082Y-97403685D01*
X155990573Y-97407868D01*
X155287135Y-98111307D01*
X155280808Y-98122893D01*
X154184260Y-98122893D01*
X152577570Y-96516203D01*
X152565380Y-96502019D01*
X152552617Y-96484676D01*
X152547131Y-96480016D01*
X152547128Y-96480012D01*
X152512746Y-96450803D01*
X152505350Y-96443983D01*
X152499697Y-96438330D01*
X152477620Y-96420863D01*
X152474311Y-96418150D01*
X152424740Y-96376036D01*
X152424738Y-96376035D01*
X152419245Y-96371368D01*
X152412824Y-96368090D01*
X152407791Y-96364733D01*
X152402701Y-96361589D01*
X152397051Y-96357119D01*
X152331578Y-96326519D01*
X152327729Y-96324637D01*
X152269804Y-96295059D01*
X152269802Y-96295058D01*
X152263384Y-96291781D01*
X152256386Y-96290069D01*
X152250743Y-96287970D01*
X152245029Y-96286069D01*
X152238507Y-96283021D01*
X152167749Y-96268303D01*
X152163553Y-96267353D01*
X152093394Y-96250185D01*
X152087886Y-96249843D01*
X152087884Y-96249843D01*
X152082352Y-96249500D01*
X152082354Y-96249464D01*
X152078500Y-96249231D01*
X152074222Y-96248849D01*
X152067169Y-96247382D01*
X151998841Y-96249231D01*
X151990563Y-96249455D01*
X151987209Y-96249500D01*
X150349689Y-96249500D01*
X150282650Y-96229815D01*
X150262008Y-96213181D01*
X148784279Y-94735452D01*
X148750794Y-94674129D01*
X148747960Y-94647771D01*
X148747960Y-94525397D01*
X148749894Y-94503581D01*
X148752274Y-94490264D01*
X148753052Y-94485911D01*
X148754161Y-94453380D01*
X148758157Y-94336065D01*
X148758919Y-94325933D01*
X148759356Y-94322182D01*
X148770626Y-94225479D01*
X148772619Y-94213508D01*
X148775365Y-94200873D01*
X148787921Y-94143098D01*
X148791361Y-94130507D01*
X148809623Y-94075306D01*
X148813945Y-94064095D01*
X148838496Y-94008596D01*
X148838977Y-94007509D01*
X148842808Y-93999617D01*
X148850218Y-93985634D01*
X148880692Y-93928123D01*
X148882706Y-93924472D01*
X148936314Y-93831039D01*
X148937120Y-93829628D01*
X148937246Y-93829408D01*
X148981921Y-93750871D01*
X149000165Y-93718798D01*
X149000171Y-93718787D01*
X149000372Y-93718434D01*
X149001162Y-93717019D01*
X149003212Y-93713344D01*
X149004462Y-93711103D01*
X149004648Y-93710763D01*
X149008604Y-93703387D01*
X149012909Y-93695200D01*
X149074475Y-93578094D01*
X149074684Y-93577697D01*
X149080720Y-93565840D01*
X149080986Y-93565300D01*
X149081132Y-93564995D01*
X149081165Y-93564926D01*
X149086320Y-93554118D01*
X149086451Y-93553844D01*
X149120120Y-93480930D01*
X149166096Y-93428318D01*
X149233217Y-93408915D01*
X149300173Y-93428881D01*
X149345079Y-93480509D01*
X149369432Y-93532734D01*
X149372539Y-93537171D01*
X149372540Y-93537173D01*
X149496847Y-93714704D01*
X149496851Y-93714708D01*
X149499953Y-93719139D01*
X149660861Y-93880047D01*
X149665292Y-93883149D01*
X149665296Y-93883153D01*
X149797309Y-93975588D01*
X149847266Y-94010568D01*
X149852177Y-94012858D01*
X150048594Y-94104450D01*
X150048600Y-94104452D01*
X150053504Y-94106739D01*
X150189221Y-94143104D01*
X150244635Y-94157952D01*
X150273308Y-94165635D01*
X150278693Y-94166106D01*
X150278698Y-94166107D01*
X150494605Y-94184996D01*
X150500000Y-94185468D01*
X150505395Y-94184996D01*
X150721302Y-94166107D01*
X150721307Y-94166106D01*
X150726692Y-94165635D01*
X150755366Y-94157952D01*
X150810779Y-94143104D01*
X150946496Y-94106739D01*
X150951400Y-94104452D01*
X150951406Y-94104450D01*
X151045014Y-94060799D01*
X151056463Y-94056140D01*
X151085149Y-94046102D01*
X151089327Y-94044640D01*
X151157407Y-94009248D01*
X151222156Y-93975588D01*
X151222199Y-93975565D01*
X151222488Y-93975415D01*
X151234087Y-93969192D01*
X151234602Y-93968907D01*
X151245288Y-93962822D01*
X151255239Y-93956995D01*
X151304540Y-93928123D01*
X151365394Y-93892486D01*
X151371781Y-93888683D01*
X151372070Y-93888508D01*
X151374630Y-93886930D01*
X151378692Y-93884427D01*
X151378728Y-93884405D01*
X151378818Y-93884349D01*
X151459379Y-93833823D01*
X151484703Y-93817941D01*
X151484775Y-93817896D01*
X151532741Y-93787859D01*
X151572798Y-93762775D01*
X151576942Y-93760293D01*
X151628595Y-93730718D01*
X151628603Y-93730713D01*
X151641822Y-93723145D01*
X151650359Y-93718688D01*
X151699958Y-93695200D01*
X151711936Y-93690276D01*
X151742220Y-93679639D01*
X151759745Y-93673484D01*
X151773132Y-93669612D01*
X151836156Y-93655169D01*
X151848806Y-93652953D01*
X151942191Y-93641538D01*
X151952811Y-93640702D01*
X152096695Y-93635581D01*
X152141683Y-93631964D01*
X152142053Y-93631863D01*
X152157681Y-93630500D01*
X153472883Y-93630500D01*
X153539922Y-93650185D01*
X153560564Y-93666819D01*
X154312507Y-94418762D01*
X154326673Y-94435710D01*
X154336690Y-94450133D01*
X154339714Y-94453380D01*
X154434795Y-94555479D01*
X154441722Y-94563590D01*
X154499695Y-94637708D01*
X154507075Y-94648223D01*
X154541409Y-94702970D01*
X154548141Y-94715181D01*
X154570080Y-94760875D01*
X154575068Y-94772824D01*
X154593534Y-94824508D01*
X154596415Y-94833681D01*
X154616013Y-94905783D01*
X154617203Y-94910530D01*
X154640466Y-95011738D01*
X154640456Y-95011740D01*
X154640487Y-95011826D01*
X154657501Y-95086082D01*
X154668393Y-95133623D01*
X154669974Y-95140314D01*
X154670058Y-95140659D01*
X154672135Y-95148889D01*
X154681266Y-95183828D01*
X154695472Y-95238185D01*
X154699501Y-95269539D01*
X154699501Y-95892264D01*
X154706149Y-95953468D01*
X154756474Y-96087712D01*
X154842454Y-96202434D01*
X154851597Y-96209286D01*
X154853139Y-96211348D01*
X154855767Y-96213976D01*
X154855388Y-96214355D01*
X154893438Y-96265243D01*
X154898384Y-96334937D01*
X154878807Y-96379636D01*
X154872968Y-96387976D01*
X154867580Y-96397308D01*
X154776021Y-96593657D01*
X154772332Y-96603790D01*
X154716261Y-96813051D01*
X154714387Y-96823682D01*
X154695506Y-97039493D01*
X154695506Y-97050283D01*
X154714387Y-97266094D01*
X154716261Y-97276725D01*
X154772332Y-97485986D01*
X154776021Y-97496119D01*
X154867577Y-97692463D01*
X154872974Y-97701809D01*
X154910748Y-97755755D01*
X154921059Y-97763998D01*
X154934292Y-97757042D01*
X155912319Y-96779016D01*
X155973642Y-96745531D01*
X156043334Y-96750515D01*
X156087681Y-96779016D01*
X157066419Y-97757753D01*
X157078005Y-97764080D01*
X157089830Y-97754931D01*
X157127026Y-97701809D01*
X157132423Y-97692463D01*
X157223979Y-97496119D01*
X157227668Y-97485986D01*
X157283739Y-97276725D01*
X157285613Y-97266094D01*
X157304494Y-97050283D01*
X157304494Y-97039493D01*
X157285613Y-96823682D01*
X157283739Y-96813051D01*
X157227668Y-96603790D01*
X157223979Y-96593657D01*
X157132420Y-96397308D01*
X157127032Y-96387976D01*
X157121193Y-96379636D01*
X157098866Y-96313430D01*
X157115876Y-96245662D01*
X157148403Y-96209286D01*
X157157546Y-96202434D01*
X157243526Y-96087712D01*
X157293851Y-95953468D01*
X157300500Y-95892265D01*
X157300499Y-94197512D01*
X157293851Y-94136308D01*
X157250928Y-94021810D01*
X157246626Y-94010333D01*
X157246626Y-94010332D01*
X157243526Y-94002064D01*
X157231213Y-93985634D01*
X157162841Y-93894407D01*
X157157546Y-93887342D01*
X157127438Y-93864777D01*
X157049891Y-93806658D01*
X157049889Y-93806657D01*
X157042824Y-93801362D01*
X156908580Y-93751037D01*
X156847377Y-93744388D01*
X156224649Y-93744388D01*
X156193297Y-93740359D01*
X156104285Y-93717097D01*
X156104211Y-93717078D01*
X156103985Y-93717019D01*
X156098924Y-93715737D01*
X156096720Y-93715179D01*
X156096660Y-93715164D01*
X156096565Y-93715140D01*
X156096251Y-93715063D01*
X156096023Y-93715009D01*
X156095932Y-93714987D01*
X156089002Y-93713344D01*
X156088992Y-93713342D01*
X156088753Y-93713285D01*
X155966942Y-93685376D01*
X155966851Y-93685349D01*
X155966850Y-93685354D01*
X155865642Y-93662091D01*
X155860909Y-93660904D01*
X155788806Y-93641306D01*
X155779631Y-93638424D01*
X155727926Y-93619950D01*
X155715980Y-93614964D01*
X155670294Y-93593030D01*
X155658080Y-93586296D01*
X155603334Y-93551962D01*
X155592820Y-93544583D01*
X155518702Y-93486610D01*
X155510591Y-93479683D01*
X155434599Y-93408915D01*
X155405245Y-93381578D01*
X155392249Y-93370517D01*
X155375313Y-93356101D01*
X155375309Y-93356098D01*
X155370877Y-93352326D01*
X155370540Y-93352134D01*
X155358523Y-93342044D01*
X154412682Y-92396203D01*
X154400492Y-92382019D01*
X154387729Y-92364676D01*
X154382243Y-92360016D01*
X154382240Y-92360012D01*
X154347858Y-92330803D01*
X154340462Y-92323983D01*
X154334809Y-92318330D01*
X154312732Y-92300863D01*
X154309423Y-92298150D01*
X154259852Y-92256036D01*
X154259850Y-92256035D01*
X154254357Y-92251368D01*
X154247936Y-92248090D01*
X154242903Y-92244733D01*
X154237813Y-92241589D01*
X154232163Y-92237119D01*
X154166690Y-92206519D01*
X154162841Y-92204637D01*
X154104916Y-92175059D01*
X154104914Y-92175058D01*
X154098496Y-92171781D01*
X154091498Y-92170069D01*
X154085855Y-92167970D01*
X154080141Y-92166069D01*
X154073619Y-92163021D01*
X154002861Y-92148303D01*
X153998665Y-92147353D01*
X153928506Y-92130185D01*
X153922998Y-92129843D01*
X153922996Y-92129843D01*
X153917464Y-92129500D01*
X153917466Y-92129464D01*
X153913612Y-92129231D01*
X153909334Y-92128849D01*
X153902281Y-92127382D01*
X153833953Y-92129231D01*
X153825675Y-92129455D01*
X153822321Y-92129500D01*
X152135972Y-92129500D01*
X152113974Y-92127533D01*
X152107270Y-92126325D01*
X152101044Y-92125202D01*
X152101041Y-92125202D01*
X152096694Y-92124418D01*
X151952810Y-92119297D01*
X151942195Y-92118461D01*
X151848799Y-92107046D01*
X151836158Y-92104831D01*
X151773150Y-92090392D01*
X151759759Y-92086520D01*
X151711938Y-92069724D01*
X151699966Y-92064803D01*
X151650329Y-92041297D01*
X151641827Y-92036858D01*
X151576995Y-91999738D01*
X151572798Y-91997224D01*
X151484776Y-91942104D01*
X151484789Y-91942083D01*
X151484700Y-91942057D01*
X151379142Y-91875852D01*
X151378932Y-91875722D01*
X151378805Y-91875642D01*
X151371454Y-91871118D01*
X151371179Y-91870952D01*
X151365393Y-91867512D01*
X151362815Y-91866002D01*
X151258098Y-91804679D01*
X151245286Y-91797176D01*
X151234965Y-91791294D01*
X151234451Y-91791009D01*
X151222484Y-91784582D01*
X151089322Y-91715358D01*
X151085993Y-91714088D01*
X151085989Y-91714086D01*
X151040346Y-91696671D01*
X151032145Y-91693200D01*
X150968214Y-91663388D01*
X150946496Y-91653261D01*
X150941275Y-91651862D01*
X150941272Y-91651861D01*
X150731917Y-91595765D01*
X150726692Y-91594365D01*
X150721307Y-91593894D01*
X150721302Y-91593893D01*
X150505395Y-91575004D01*
X150500000Y-91574532D01*
X150494605Y-91575004D01*
X150278698Y-91593893D01*
X150278693Y-91593894D01*
X150273308Y-91594365D01*
X150053504Y-91653261D01*
X150048600Y-91655548D01*
X150048594Y-91655550D01*
X149923065Y-91714086D01*
X149847266Y-91749432D01*
X149842829Y-91752539D01*
X149842827Y-91752540D01*
X149665296Y-91876847D01*
X149665292Y-91876851D01*
X149660861Y-91879953D01*
X149499953Y-92040861D01*
X149496851Y-92045291D01*
X149496847Y-92045296D01*
X149376039Y-92217830D01*
X149369432Y-92227266D01*
X149364838Y-92237119D01*
X149342382Y-92285275D01*
X149296210Y-92337714D01*
X149229016Y-92356866D01*
X149162135Y-92336650D01*
X149117618Y-92285275D01*
X149095163Y-92237119D01*
X149090568Y-92227266D01*
X149083961Y-92217830D01*
X148963153Y-92045296D01*
X148963149Y-92045291D01*
X148960047Y-92040861D01*
X148799139Y-91879953D01*
X148794708Y-91876851D01*
X148794704Y-91876847D01*
X148617173Y-91752540D01*
X148617171Y-91752539D01*
X148612734Y-91749432D01*
X148536935Y-91714086D01*
X148411406Y-91655550D01*
X148411400Y-91655548D01*
X148406496Y-91653261D01*
X148186692Y-91594365D01*
X148181307Y-91593894D01*
X148181302Y-91593893D01*
X147965395Y-91575004D01*
X147960000Y-91574532D01*
X147954605Y-91575004D01*
X147738698Y-91593893D01*
X147738693Y-91593894D01*
X147733308Y-91594365D01*
X147513504Y-91653261D01*
X147508600Y-91655548D01*
X147508594Y-91655550D01*
X147383065Y-91714086D01*
X147307266Y-91749432D01*
X147302829Y-91752539D01*
X147302827Y-91752540D01*
X147125296Y-91876847D01*
X147125292Y-91876851D01*
X147120861Y-91879953D01*
X146959953Y-92040861D01*
X146956851Y-92045291D01*
X146956847Y-92045296D01*
X146836039Y-92217830D01*
X146829432Y-92227266D01*
X146824838Y-92237119D01*
X146802382Y-92285275D01*
X146756210Y-92337714D01*
X146689016Y-92356866D01*
X146622135Y-92336650D01*
X146577618Y-92285275D01*
X146555163Y-92237119D01*
X146550568Y-92227266D01*
X146543961Y-92217830D01*
X146423153Y-92045296D01*
X146423149Y-92045291D01*
X146420047Y-92040861D01*
X146396688Y-92017502D01*
X146363203Y-91956179D01*
X146368187Y-91886487D01*
X146396688Y-91842140D01*
X146952008Y-91286819D01*
X147013331Y-91253334D01*
X147039689Y-91250500D01*
X149433696Y-91250500D01*
X149452344Y-91251910D01*
X149473630Y-91255148D01*
X149480811Y-91254564D01*
X149480813Y-91254564D01*
X149525761Y-91250908D01*
X149535813Y-91250500D01*
X149543822Y-91250500D01*
X149571779Y-91247241D01*
X149576078Y-91246815D01*
X149585821Y-91246023D01*
X149640884Y-91241545D01*
X149640888Y-91241544D01*
X149648059Y-91240961D01*
X149654907Y-91238743D01*
X149660815Y-91237562D01*
X149666672Y-91236177D01*
X149673828Y-91235343D01*
X149741761Y-91210685D01*
X149745848Y-91209282D01*
X149807690Y-91189248D01*
X149814546Y-91187027D01*
X149820705Y-91183289D01*
X149826184Y-91180781D01*
X149831562Y-91178088D01*
X149838331Y-91175631D01*
X149898744Y-91136023D01*
X149902389Y-91133723D01*
X149964160Y-91096239D01*
X149972452Y-91088915D01*
X149972477Y-91088943D01*
X149975366Y-91086382D01*
X149978663Y-91083625D01*
X149984685Y-91079677D01*
X150037402Y-91024028D01*
X150039741Y-91021626D01*
X151983797Y-89077570D01*
X151997981Y-89065380D01*
X152015324Y-89052617D01*
X152019984Y-89047131D01*
X152019988Y-89047128D01*
X152049197Y-89012746D01*
X152056017Y-89005350D01*
X152061670Y-88999697D01*
X152079137Y-88977620D01*
X152081850Y-88974311D01*
X152123964Y-88924740D01*
X152123965Y-88924738D01*
X152128632Y-88919245D01*
X152131910Y-88912824D01*
X152135267Y-88907791D01*
X152138411Y-88902701D01*
X152142881Y-88897051D01*
X152173481Y-88831578D01*
X152175363Y-88827729D01*
X152204941Y-88769804D01*
X152204942Y-88769802D01*
X152208219Y-88763384D01*
X152209931Y-88756386D01*
X152212030Y-88750743D01*
X152213931Y-88745029D01*
X152216979Y-88738507D01*
X152231689Y-88667788D01*
X152232643Y-88663572D01*
X152248503Y-88598756D01*
X152249815Y-88593394D01*
X152250500Y-88582352D01*
X152250536Y-88582354D01*
X152250769Y-88578500D01*
X152251151Y-88574218D01*
X152252617Y-88567170D01*
X152250545Y-88490585D01*
X152250500Y-88487231D01*
X152250500Y-88135970D01*
X152252467Y-88113970D01*
X152254797Y-88101044D01*
X152255582Y-88096691D01*
X152260702Y-87952810D01*
X152261539Y-87942184D01*
X152261540Y-87942182D01*
X152272951Y-87848813D01*
X152275169Y-87836159D01*
X152289613Y-87773135D01*
X152293485Y-87759746D01*
X152310273Y-87711945D01*
X152315197Y-87699965D01*
X152323385Y-87682674D01*
X152338697Y-87650340D01*
X152343142Y-87641826D01*
X152379683Y-87578005D01*
X155780808Y-87578005D01*
X155789956Y-87589829D01*
X155843079Y-87627026D01*
X155852425Y-87632423D01*
X156048769Y-87723979D01*
X156058902Y-87727668D01*
X156268163Y-87783739D01*
X156278794Y-87785613D01*
X156494605Y-87804494D01*
X156505395Y-87804494D01*
X156721206Y-87785613D01*
X156731837Y-87783739D01*
X156941098Y-87727668D01*
X156951231Y-87723979D01*
X157147575Y-87632423D01*
X157156921Y-87627026D01*
X157210867Y-87589252D01*
X157219110Y-87578941D01*
X157212154Y-87565708D01*
X156512607Y-86866160D01*
X156498887Y-86858668D01*
X156497082Y-86858797D01*
X156490573Y-86862980D01*
X155787135Y-87566419D01*
X155780808Y-87578005D01*
X152379683Y-87578005D01*
X152380267Y-87576985D01*
X152382775Y-87572798D01*
X152437895Y-87484776D01*
X152437916Y-87484789D01*
X152437942Y-87484700D01*
X152504181Y-87379088D01*
X152504427Y-87378692D01*
X152506403Y-87375480D01*
X152508917Y-87371394D01*
X152509092Y-87371104D01*
X152512496Y-87365379D01*
X152577669Y-87254089D01*
X152582661Y-87245565D01*
X152582678Y-87245535D01*
X152582823Y-87245288D01*
X152582934Y-87245094D01*
X152582967Y-87245036D01*
X152588779Y-87234826D01*
X152588907Y-87234602D01*
X152589192Y-87234087D01*
X152595416Y-87222487D01*
X152664641Y-87089325D01*
X152683336Y-87040330D01*
X152686807Y-87032132D01*
X152724448Y-86951411D01*
X152724451Y-86951402D01*
X152726739Y-86946496D01*
X152785635Y-86726692D01*
X152798682Y-86577571D01*
X152804996Y-86505395D01*
X155195506Y-86505395D01*
X155214387Y-86721206D01*
X155216261Y-86731837D01*
X155272332Y-86941098D01*
X155276021Y-86951231D01*
X155367577Y-87147575D01*
X155372974Y-87156921D01*
X155410748Y-87210867D01*
X155421059Y-87219110D01*
X155434292Y-87212154D01*
X156133840Y-86512607D01*
X156140116Y-86501113D01*
X156858668Y-86501113D01*
X156858797Y-86502918D01*
X156862980Y-86509427D01*
X157566419Y-87212865D01*
X157578005Y-87219192D01*
X157589829Y-87210044D01*
X157627026Y-87156921D01*
X157632423Y-87147575D01*
X157723979Y-86951231D01*
X157727668Y-86941098D01*
X157783739Y-86731837D01*
X157785613Y-86721206D01*
X157804494Y-86505395D01*
X157804494Y-86494605D01*
X157785613Y-86278794D01*
X157783739Y-86268163D01*
X157727668Y-86058902D01*
X157723979Y-86048769D01*
X157632423Y-85852425D01*
X157627026Y-85843079D01*
X157589252Y-85789133D01*
X157578941Y-85780890D01*
X157565708Y-85787846D01*
X156866160Y-86487393D01*
X156858668Y-86501113D01*
X156140116Y-86501113D01*
X156141332Y-86498887D01*
X156141203Y-86497082D01*
X156137020Y-86490573D01*
X155433581Y-85787135D01*
X155421995Y-85780808D01*
X155410171Y-85789956D01*
X155372974Y-85843079D01*
X155367577Y-85852425D01*
X155276021Y-86048769D01*
X155272332Y-86058902D01*
X155216261Y-86268163D01*
X155214387Y-86278794D01*
X155195506Y-86494605D01*
X155195506Y-86505395D01*
X152804996Y-86505395D01*
X152805468Y-86500000D01*
X152796618Y-86398842D01*
X152786107Y-86278698D01*
X152786106Y-86278693D01*
X152785635Y-86273308D01*
X152726739Y-86053504D01*
X152724452Y-86048600D01*
X152724450Y-86048594D01*
X152632858Y-85852177D01*
X152630568Y-85847266D01*
X152627460Y-85842827D01*
X152503153Y-85665296D01*
X152503149Y-85665292D01*
X152500047Y-85660861D01*
X152339139Y-85499953D01*
X152334708Y-85496851D01*
X152334704Y-85496847D01*
X152157173Y-85372540D01*
X152157171Y-85372539D01*
X152152734Y-85369432D01*
X152131761Y-85359652D01*
X151951406Y-85275550D01*
X151951400Y-85275548D01*
X151946496Y-85273261D01*
X151836452Y-85243775D01*
X151776791Y-85207410D01*
X151746262Y-85144563D01*
X151754557Y-85075188D01*
X151799042Y-85021310D01*
X151868545Y-85000000D01*
X156133385Y-85000000D01*
X156200424Y-85019685D01*
X156246179Y-85072489D01*
X156256123Y-85141647D01*
X156227098Y-85205203D01*
X156165479Y-85243775D01*
X156058902Y-85272332D01*
X156048769Y-85276021D01*
X155852425Y-85367577D01*
X155843079Y-85372974D01*
X155789133Y-85410748D01*
X155780890Y-85421059D01*
X155787846Y-85434292D01*
X156487393Y-86133840D01*
X156501113Y-86141332D01*
X156502918Y-86141203D01*
X156509427Y-86137020D01*
X157212865Y-85433581D01*
X157219192Y-85421995D01*
X157210044Y-85410171D01*
X157156921Y-85372974D01*
X157147575Y-85367577D01*
X156951231Y-85276021D01*
X156941098Y-85272332D01*
X156834521Y-85243775D01*
X156774861Y-85207410D01*
X156744332Y-85144563D01*
X156752627Y-85075187D01*
X156797112Y-85021309D01*
X156866615Y-85000000D01*
X158876000Y-85000000D01*
X158943039Y-85019685D01*
X158988794Y-85072489D01*
X159000000Y-85124000D01*
X159000000Y-112876000D01*
X158980315Y-112943039D01*
X158927511Y-112988794D01*
X158876000Y-113000000D01*
X155598189Y-113000000D01*
X155531150Y-112980315D01*
X155485395Y-112927511D01*
X155475451Y-112858353D01*
X155504476Y-112794797D01*
X155510508Y-112788319D01*
X155609881Y-112688946D01*
X155627387Y-112674395D01*
X155637022Y-112667781D01*
X155637026Y-112667778D01*
X155640675Y-112665273D01*
X155700137Y-112610502D01*
X155744233Y-112569884D01*
X155753211Y-112562366D01*
X155825404Y-112507497D01*
X155836064Y-112500238D01*
X155894225Y-112464912D01*
X155905142Y-112459008D01*
X155961984Y-112431851D01*
X155970783Y-112428057D01*
X156041242Y-112400863D01*
X156045622Y-112399267D01*
X156093085Y-112382990D01*
X156138421Y-112367442D01*
X156138517Y-112367409D01*
X156138633Y-112367369D01*
X156142606Y-112365988D01*
X156249592Y-112328299D01*
X156260936Y-112324149D01*
X156261479Y-112323943D01*
X156273609Y-112319162D01*
X156386015Y-112273168D01*
X156386587Y-112272920D01*
X156386607Y-112272912D01*
X156404086Y-112265346D01*
X156404097Y-112265341D01*
X156404654Y-112265100D01*
X156405466Y-112264729D01*
X156422434Y-112256591D01*
X156422934Y-112256340D01*
X156422972Y-112256321D01*
X156542803Y-112196082D01*
X156542826Y-112196070D01*
X156543421Y-112195771D01*
X156563236Y-112185253D01*
X156564142Y-112184746D01*
X156564672Y-112184434D01*
X156564696Y-112184420D01*
X156572682Y-112179715D01*
X156583477Y-112173356D01*
X156584039Y-112173008D01*
X156584062Y-112172994D01*
X156652004Y-112130908D01*
X156652268Y-112131334D01*
X156654118Y-112129599D01*
X156689807Y-112107492D01*
X156706202Y-112097337D01*
X156706207Y-112097334D01*
X156709330Y-112095399D01*
X156712197Y-112093112D01*
X156712213Y-112093101D01*
X156752107Y-112061282D01*
X156758303Y-112056649D01*
X156834704Y-112003153D01*
X156834708Y-112003149D01*
X156839139Y-112000047D01*
X157000047Y-111839139D01*
X157003149Y-111834708D01*
X157003153Y-111834704D01*
X157127460Y-111657173D01*
X157127461Y-111657171D01*
X157130568Y-111652734D01*
X157142354Y-111627460D01*
X157224450Y-111451406D01*
X157224452Y-111451400D01*
X157226739Y-111446496D01*
X157285635Y-111226692D01*
X157287036Y-111210687D01*
X157304996Y-111005395D01*
X157305468Y-111000000D01*
X157297362Y-110907349D01*
X157286107Y-110778698D01*
X157286106Y-110778693D01*
X157285635Y-110773308D01*
X157226739Y-110553504D01*
X157224452Y-110548600D01*
X157224450Y-110548594D01*
X157132858Y-110352177D01*
X157130568Y-110347266D01*
X157068677Y-110258875D01*
X157003153Y-110165296D01*
X157003149Y-110165292D01*
X157000047Y-110160861D01*
X156839139Y-109999953D01*
X156834708Y-109996851D01*
X156834704Y-109996847D01*
X156657173Y-109872540D01*
X156657171Y-109872539D01*
X156652734Y-109869432D01*
X156563281Y-109827719D01*
X156451406Y-109775550D01*
X156451400Y-109775548D01*
X156446496Y-109773261D01*
X156226692Y-109714365D01*
X156221307Y-109713894D01*
X156221302Y-109713893D01*
X156005395Y-109695004D01*
X156000000Y-109694532D01*
X155994605Y-109695004D01*
X155778698Y-109713893D01*
X155778693Y-109713894D01*
X155773308Y-109714365D01*
X155553504Y-109773261D01*
X155548600Y-109775548D01*
X155548594Y-109775550D01*
X155436719Y-109827719D01*
X155347266Y-109869432D01*
X155342829Y-109872539D01*
X155342827Y-109872540D01*
X155165296Y-109996847D01*
X155165292Y-109996851D01*
X155160861Y-109999953D01*
X154999953Y-110160861D01*
X154996851Y-110165292D01*
X154996847Y-110165296D01*
X154931323Y-110258875D01*
X154869432Y-110347266D01*
X154867142Y-110352177D01*
X154775550Y-110548594D01*
X154775548Y-110548600D01*
X154773261Y-110553504D01*
X154714365Y-110773308D01*
X154713894Y-110778693D01*
X154713893Y-110778698D01*
X154704609Y-110884824D01*
X154702997Y-110896656D01*
X154696579Y-110931200D01*
X154696398Y-110935620D01*
X154696398Y-110935622D01*
X154694427Y-110983797D01*
X154691790Y-111048273D01*
X154691781Y-111048580D01*
X154691779Y-111048635D01*
X154691667Y-111052450D01*
X154691451Y-111059794D01*
X154691441Y-111060347D01*
X154691440Y-111060552D01*
X154691374Y-111071774D01*
X154691368Y-111072727D01*
X154691696Y-111123964D01*
X154692061Y-111180781D01*
X154692093Y-111185847D01*
X154692244Y-111195360D01*
X154694700Y-111292655D01*
X154694737Y-111295101D01*
X154694821Y-111310879D01*
X154695104Y-111364189D01*
X154694876Y-111372398D01*
X154692940Y-111404141D01*
X154692734Y-111407512D01*
X154691096Y-111421403D01*
X154689759Y-111429019D01*
X154677731Y-111464614D01*
X154673892Y-111472025D01*
X154664630Y-111487147D01*
X154642528Y-111518035D01*
X154633435Y-111529292D01*
X154570734Y-111598257D01*
X154570711Y-111598283D01*
X154569864Y-111599215D01*
X154542852Y-111631534D01*
X154542736Y-111631437D01*
X154533141Y-111642952D01*
X154462912Y-111713181D01*
X154401589Y-111746666D01*
X154375231Y-111749500D01*
X151039154Y-111749500D01*
X150972115Y-111729815D01*
X150926360Y-111677011D01*
X150916416Y-111607853D01*
X150945441Y-111544297D01*
X150976843Y-111518293D01*
X150987167Y-111512292D01*
X150987186Y-111512281D01*
X150987418Y-111512146D01*
X150994241Y-111508108D01*
X150994490Y-111507958D01*
X150999937Y-111504630D01*
X151000391Y-111504349D01*
X151107021Y-111438264D01*
X151107272Y-111438109D01*
X151195959Y-111383436D01*
X151200279Y-111380891D01*
X151201400Y-111380261D01*
X151266237Y-111343824D01*
X151274792Y-111339445D01*
X151326082Y-111315659D01*
X151337951Y-111310884D01*
X151375510Y-111297986D01*
X151388178Y-111293636D01*
X151401366Y-111289908D01*
X151407088Y-111288627D01*
X151467371Y-111275136D01*
X151479755Y-111273017D01*
X151524364Y-111267697D01*
X151576516Y-111261478D01*
X151586898Y-111260681D01*
X151674021Y-111257658D01*
X151733694Y-111255588D01*
X151735084Y-111255477D01*
X151735087Y-111255477D01*
X151740259Y-111255065D01*
X151778929Y-111251981D01*
X151784543Y-111250444D01*
X151786564Y-111250090D01*
X151793598Y-111249065D01*
X151809240Y-111247241D01*
X151813531Y-111246816D01*
X151842108Y-111244492D01*
X151878344Y-111241545D01*
X151878348Y-111241544D01*
X151885519Y-111240961D01*
X151892367Y-111238743D01*
X151898275Y-111237562D01*
X151904132Y-111236177D01*
X151911288Y-111235343D01*
X151979221Y-111210685D01*
X151983308Y-111209282D01*
X151986590Y-111208219D01*
X152052006Y-111187027D01*
X152058165Y-111183289D01*
X152063644Y-111180781D01*
X152069022Y-111178088D01*
X152075791Y-111175631D01*
X152121093Y-111145930D01*
X152136204Y-111136023D01*
X152139849Y-111133723D01*
X152201620Y-111096239D01*
X152209912Y-111088915D01*
X152209937Y-111088943D01*
X152212826Y-111086382D01*
X152216123Y-111083625D01*
X152222145Y-111079677D01*
X152274862Y-111024028D01*
X152277201Y-111021626D01*
X153221257Y-110077570D01*
X153235441Y-110065380D01*
X153252784Y-110052617D01*
X153257444Y-110047131D01*
X153257448Y-110047128D01*
X153286657Y-110012746D01*
X153293477Y-110005350D01*
X153299131Y-109999696D01*
X153316580Y-109977642D01*
X153319320Y-109974299D01*
X153324326Y-109968407D01*
X153366092Y-109919245D01*
X153369371Y-109912822D01*
X153372732Y-109907783D01*
X153375871Y-109902700D01*
X153380341Y-109897051D01*
X153410935Y-109831592D01*
X153412828Y-109827719D01*
X153442401Y-109769804D01*
X153442402Y-109769802D01*
X153445679Y-109763384D01*
X153447392Y-109756384D01*
X153449493Y-109750734D01*
X153451390Y-109745032D01*
X153454440Y-109738507D01*
X153455905Y-109731462D01*
X153455907Y-109731457D01*
X153469154Y-109667767D01*
X153470109Y-109663546D01*
X153470766Y-109660861D01*
X153487275Y-109593394D01*
X153487960Y-109582352D01*
X153487998Y-109582354D01*
X153488228Y-109578512D01*
X153488611Y-109574223D01*
X153490078Y-109567169D01*
X153488005Y-109490547D01*
X153487960Y-109487193D01*
X153487960Y-105566304D01*
X153489370Y-105547655D01*
X153492608Y-105526370D01*
X153490439Y-105499695D01*
X153488368Y-105474239D01*
X153487960Y-105464187D01*
X153487960Y-105456178D01*
X153484701Y-105428221D01*
X153484275Y-105423918D01*
X153479005Y-105359116D01*
X153479004Y-105359112D01*
X153478421Y-105351941D01*
X153476203Y-105345093D01*
X153475022Y-105339185D01*
X153473637Y-105333328D01*
X153472803Y-105326172D01*
X153448145Y-105258239D01*
X153446742Y-105254152D01*
X153426708Y-105192310D01*
X153424487Y-105185454D01*
X153420749Y-105179295D01*
X153418241Y-105173816D01*
X153415548Y-105168438D01*
X153413091Y-105161669D01*
X153373483Y-105101256D01*
X153371174Y-105097597D01*
X153333699Y-105035840D01*
X153326375Y-105027548D01*
X153326403Y-105027523D01*
X153323842Y-105024634D01*
X153321085Y-105021337D01*
X153317137Y-105015315D01*
X153261488Y-104962598D01*
X153259086Y-104960259D01*
X151815030Y-103516203D01*
X151802840Y-103502019D01*
X151802519Y-103501583D01*
X151790077Y-103484676D01*
X151784591Y-103480016D01*
X151784588Y-103480012D01*
X151750206Y-103450803D01*
X151742810Y-103443983D01*
X151737157Y-103438330D01*
X151715080Y-103420863D01*
X151711771Y-103418150D01*
X151662200Y-103376036D01*
X151662198Y-103376035D01*
X151656705Y-103371368D01*
X151650284Y-103368090D01*
X151645251Y-103364733D01*
X151640161Y-103361589D01*
X151634511Y-103357119D01*
X151569038Y-103326519D01*
X151565189Y-103324637D01*
X151507264Y-103295059D01*
X151507262Y-103295058D01*
X151500844Y-103291781D01*
X151493846Y-103290069D01*
X151488203Y-103287970D01*
X151482489Y-103286069D01*
X151475967Y-103283021D01*
X151405209Y-103268303D01*
X151401013Y-103267353D01*
X151330854Y-103250185D01*
X151325346Y-103249843D01*
X151325344Y-103249843D01*
X151319812Y-103249500D01*
X151319814Y-103249464D01*
X151315960Y-103249231D01*
X151311682Y-103248849D01*
X151304629Y-103247382D01*
X151236301Y-103249231D01*
X151228023Y-103249455D01*
X151224669Y-103249500D01*
X149862229Y-103249500D01*
X149795190Y-103229815D01*
X149774548Y-103213181D01*
X148785820Y-102224453D01*
X148752335Y-102163130D01*
X148751436Y-102114953D01*
X148753052Y-102105911D01*
X148754155Y-102073550D01*
X148758157Y-101956065D01*
X148758919Y-101945933D01*
X148770237Y-101848816D01*
X148770626Y-101845479D01*
X148772619Y-101833508D01*
X148787921Y-101763098D01*
X148791361Y-101750507D01*
X148809623Y-101695306D01*
X148813945Y-101684095D01*
X148838496Y-101628596D01*
X148838977Y-101627509D01*
X148842808Y-101619617D01*
X148850218Y-101605634D01*
X148880692Y-101548123D01*
X148882706Y-101544472D01*
X148936314Y-101451039D01*
X148937120Y-101449628D01*
X148937246Y-101449408D01*
X148978817Y-101376327D01*
X149029074Y-101327788D01*
X149097594Y-101314125D01*
X149162624Y-101339677D01*
X149203517Y-101396330D01*
X149205578Y-101403327D01*
X149206149Y-101408580D01*
X149208877Y-101415856D01*
X149208878Y-101415860D01*
X149248061Y-101520381D01*
X149256474Y-101542824D01*
X149261769Y-101549889D01*
X149261770Y-101549891D01*
X149330302Y-101641332D01*
X149342454Y-101657546D01*
X149349519Y-101662841D01*
X149450109Y-101738230D01*
X149450111Y-101738231D01*
X149457176Y-101743526D01*
X149465444Y-101746626D01*
X149465445Y-101746626D01*
X149496768Y-101758368D01*
X149591420Y-101793851D01*
X149652623Y-101800500D01*
X150499873Y-101800500D01*
X151347376Y-101800499D01*
X151408580Y-101793851D01*
X151542824Y-101743526D01*
X151549889Y-101738231D01*
X151549891Y-101738230D01*
X151650481Y-101662841D01*
X151657546Y-101657546D01*
X151669698Y-101641332D01*
X151738230Y-101549891D01*
X151738231Y-101549889D01*
X151743526Y-101542824D01*
X151793851Y-101408580D01*
X151800500Y-101347377D01*
X151800499Y-99652624D01*
X151793851Y-99591420D01*
X151743526Y-99457176D01*
X151736187Y-99447383D01*
X151662841Y-99349519D01*
X151657546Y-99342454D01*
X151563982Y-99272331D01*
X151549891Y-99261770D01*
X151549889Y-99261769D01*
X151542824Y-99256474D01*
X151408580Y-99206149D01*
X151347377Y-99199500D01*
X150500127Y-99199500D01*
X149652624Y-99199501D01*
X149591420Y-99206149D01*
X149457176Y-99256474D01*
X149450111Y-99261769D01*
X149450109Y-99261770D01*
X149436018Y-99272331D01*
X149342454Y-99342454D01*
X149337159Y-99349519D01*
X149263814Y-99447383D01*
X149256474Y-99457176D01*
X149206149Y-99591420D01*
X149205310Y-99599144D01*
X149205310Y-99599146D01*
X149202193Y-99627833D01*
X149175382Y-99692354D01*
X149117945Y-99732138D01*
X149048117Y-99734554D01*
X148988068Y-99698834D01*
X148977347Y-99685568D01*
X148960047Y-99660861D01*
X148799139Y-99499953D01*
X148794708Y-99496851D01*
X148794704Y-99496847D01*
X148617173Y-99372540D01*
X148617171Y-99372539D01*
X148612734Y-99369432D01*
X148543525Y-99337159D01*
X148411406Y-99275550D01*
X148411400Y-99275548D01*
X148406496Y-99273261D01*
X148186692Y-99214365D01*
X148181307Y-99213894D01*
X148181302Y-99213893D01*
X147965395Y-99195004D01*
X147960000Y-99194532D01*
X147954605Y-99195004D01*
X147738698Y-99213893D01*
X147738693Y-99213894D01*
X147733308Y-99214365D01*
X147513504Y-99273261D01*
X147508600Y-99275548D01*
X147508594Y-99275550D01*
X147376475Y-99337159D01*
X147307266Y-99369432D01*
X147302829Y-99372539D01*
X147302827Y-99372540D01*
X147125296Y-99496847D01*
X147125292Y-99496851D01*
X147120861Y-99499953D01*
X146959953Y-99660861D01*
X146956851Y-99665292D01*
X146956847Y-99665296D01*
X146836999Y-99836459D01*
X146829432Y-99847266D01*
X146803467Y-99902949D01*
X146802382Y-99905275D01*
X146756210Y-99957714D01*
X146689016Y-99976866D01*
X146622135Y-99956650D01*
X146577618Y-99905275D01*
X146576534Y-99902949D01*
X146550568Y-99847266D01*
X146543001Y-99836459D01*
X146423153Y-99665296D01*
X146423149Y-99665292D01*
X146420047Y-99660861D01*
X146259139Y-99499953D01*
X146254708Y-99496851D01*
X146254704Y-99496847D01*
X146077173Y-99372540D01*
X146077171Y-99372539D01*
X146072734Y-99369432D01*
X146003525Y-99337159D01*
X145871406Y-99275550D01*
X145871400Y-99275548D01*
X145866496Y-99273261D01*
X145646692Y-99214365D01*
X145641307Y-99213894D01*
X145641302Y-99213893D01*
X145425395Y-99195004D01*
X145420000Y-99194532D01*
X145414605Y-99195004D01*
X145198698Y-99213893D01*
X145198693Y-99213894D01*
X145193308Y-99214365D01*
X144973504Y-99273261D01*
X144968600Y-99275548D01*
X144968594Y-99275550D01*
X144836475Y-99337159D01*
X144767266Y-99369432D01*
X144762829Y-99372539D01*
X144762827Y-99372540D01*
X144585296Y-99496847D01*
X144585292Y-99496851D01*
X144580861Y-99499953D01*
X144419953Y-99660861D01*
X144416851Y-99665292D01*
X144416847Y-99665296D01*
X144296999Y-99836459D01*
X144289432Y-99847266D01*
X144287142Y-99852177D01*
X144262106Y-99905866D01*
X144215933Y-99958305D01*
X144148740Y-99977457D01*
X144081859Y-99957241D01*
X144037341Y-99905865D01*
X144012417Y-99852415D01*
X144007032Y-99843087D01*
X143882767Y-99665619D01*
X143875831Y-99657353D01*
X143722647Y-99504169D01*
X143714381Y-99497233D01*
X143536913Y-99372968D01*
X143527580Y-99367580D01*
X143331235Y-99276023D01*
X143321092Y-99272331D01*
X143147221Y-99225742D01*
X143133347Y-99226073D01*
X143130000Y-99233889D01*
X143130000Y-101761042D01*
X143133910Y-101774359D01*
X143142326Y-101775569D01*
X143321092Y-101727669D01*
X143331235Y-101723977D01*
X143527580Y-101632420D01*
X143536913Y-101627032D01*
X143714381Y-101502767D01*
X143722647Y-101495831D01*
X143875831Y-101342647D01*
X143882767Y-101334381D01*
X144007032Y-101156913D01*
X144012420Y-101147580D01*
X144035273Y-101098573D01*
X144081446Y-101046134D01*
X144148639Y-101026982D01*
X144215520Y-101047198D01*
X144257673Y-101093779D01*
X144324583Y-101222487D01*
X144330807Y-101234087D01*
X144331092Y-101234602D01*
X144332111Y-101236391D01*
X144337032Y-101245036D01*
X144337065Y-101245094D01*
X144337176Y-101245288D01*
X144337321Y-101245535D01*
X144337338Y-101245565D01*
X144341160Y-101252091D01*
X144407503Y-101365379D01*
X144410907Y-101371104D01*
X144411082Y-101371394D01*
X144413596Y-101375480D01*
X144415572Y-101378692D01*
X144415779Y-101379025D01*
X144482057Y-101484701D01*
X144482100Y-101484777D01*
X144482103Y-101484775D01*
X144537216Y-101572785D01*
X144539706Y-101576942D01*
X144569281Y-101628595D01*
X144569282Y-101628596D01*
X144568157Y-101629240D01*
X144568159Y-101629248D01*
X144569286Y-101628603D01*
X144576857Y-101641826D01*
X144581309Y-101650355D01*
X144593945Y-101677037D01*
X144604802Y-101699965D01*
X144609725Y-101711941D01*
X144626513Y-101759737D01*
X144630387Y-101773131D01*
X144644831Y-101836158D01*
X144647048Y-101848811D01*
X144658461Y-101942194D01*
X144659297Y-101952807D01*
X144664418Y-102096694D01*
X144668039Y-102141712D01*
X144668137Y-102142068D01*
X144669500Y-102157695D01*
X144669500Y-102233696D01*
X144668090Y-102252344D01*
X144664852Y-102273630D01*
X144665436Y-102280811D01*
X144665436Y-102280813D01*
X144669092Y-102325761D01*
X144669500Y-102335813D01*
X144669500Y-102343822D01*
X144672759Y-102371774D01*
X144673185Y-102376078D01*
X144679039Y-102448059D01*
X144681257Y-102454907D01*
X144682438Y-102460815D01*
X144683823Y-102466672D01*
X144684657Y-102473828D01*
X144707838Y-102537691D01*
X144709313Y-102541754D01*
X144710715Y-102545841D01*
X144732973Y-102614546D01*
X144736711Y-102620705D01*
X144739219Y-102626184D01*
X144741912Y-102631562D01*
X144744369Y-102638331D01*
X144748318Y-102644354D01*
X144783977Y-102698744D01*
X144786277Y-102702389D01*
X144823761Y-102764160D01*
X144827416Y-102768298D01*
X144831085Y-102772452D01*
X144831057Y-102772477D01*
X144833618Y-102775366D01*
X144836375Y-102778663D01*
X144840323Y-102784685D01*
X144895970Y-102837400D01*
X144898373Y-102839740D01*
X148432510Y-106373878D01*
X148446675Y-106390825D01*
X148456690Y-106405245D01*
X148459716Y-106408494D01*
X148554795Y-106510591D01*
X148561722Y-106518702D01*
X148619695Y-106592820D01*
X148627075Y-106603335D01*
X148661409Y-106658082D01*
X148668141Y-106670293D01*
X148690080Y-106715987D01*
X148695065Y-106727930D01*
X148713534Y-106779620D01*
X148716415Y-106788793D01*
X148736013Y-106860895D01*
X148737203Y-106865642D01*
X148760466Y-106966850D01*
X148760456Y-106966852D01*
X148760487Y-106966938D01*
X148777354Y-107040553D01*
X148788393Y-107088735D01*
X148789974Y-107095426D01*
X148790058Y-107095771D01*
X148792135Y-107104001D01*
X148810461Y-107174125D01*
X148825565Y-107231917D01*
X148827330Y-107238672D01*
X148830581Y-107250521D01*
X148830744Y-107251088D01*
X148830846Y-107251426D01*
X148830868Y-107251501D01*
X148832903Y-107258246D01*
X148834549Y-107263702D01*
X148834664Y-107264065D01*
X148834672Y-107264092D01*
X148841852Y-107286819D01*
X148879759Y-107406809D01*
X148881214Y-107410058D01*
X148881215Y-107410061D01*
X148882859Y-107413732D01*
X148889459Y-107432306D01*
X148893261Y-107446496D01*
X148895546Y-107451396D01*
X148895547Y-107451399D01*
X148965953Y-107602383D01*
X148989432Y-107652734D01*
X148992539Y-107657171D01*
X148992540Y-107657173D01*
X149116847Y-107834704D01*
X149116851Y-107834708D01*
X149119953Y-107839139D01*
X149280861Y-108000047D01*
X149285292Y-108003149D01*
X149285296Y-108003153D01*
X149403464Y-108085894D01*
X149467266Y-108130568D01*
X149472177Y-108132858D01*
X149668594Y-108224450D01*
X149668600Y-108224452D01*
X149673504Y-108226739D01*
X149893308Y-108285635D01*
X149898693Y-108286106D01*
X149898698Y-108286107D01*
X150114605Y-108304996D01*
X150120000Y-108305468D01*
X150125395Y-108304996D01*
X150341302Y-108286107D01*
X150341307Y-108286106D01*
X150346692Y-108285635D01*
X150566496Y-108226739D01*
X150571400Y-108224452D01*
X150571406Y-108224450D01*
X150767823Y-108132858D01*
X150772734Y-108130568D01*
X150836536Y-108085894D01*
X150954704Y-108003153D01*
X150954708Y-108003149D01*
X150959139Y-108000047D01*
X151120047Y-107839139D01*
X151123149Y-107834708D01*
X151123153Y-107834704D01*
X151247460Y-107657173D01*
X151247461Y-107657171D01*
X151250568Y-107652734D01*
X151274047Y-107602383D01*
X151344450Y-107451406D01*
X151344453Y-107451399D01*
X151346739Y-107446496D01*
X151405635Y-107226692D01*
X151416930Y-107097597D01*
X151424996Y-107005395D01*
X151425468Y-107000000D01*
X151424996Y-106994605D01*
X151406107Y-106778698D01*
X151406106Y-106778693D01*
X151405635Y-106773308D01*
X151346739Y-106553504D01*
X151344452Y-106548600D01*
X151344450Y-106548594D01*
X151252858Y-106352177D01*
X151250568Y-106347266D01*
X151247460Y-106342827D01*
X151123153Y-106165296D01*
X151123149Y-106165292D01*
X151120047Y-106160861D01*
X150959139Y-105999953D01*
X150954708Y-105996851D01*
X150954704Y-105996847D01*
X150777173Y-105872540D01*
X150777171Y-105872539D01*
X150772734Y-105869432D01*
X150700763Y-105835871D01*
X150571399Y-105775547D01*
X150571396Y-105775546D01*
X150566496Y-105773261D01*
X150551464Y-105769233D01*
X150534988Y-105763120D01*
X150534912Y-105763311D01*
X150530804Y-105761683D01*
X150526809Y-105759759D01*
X150428840Y-105728809D01*
X150384092Y-105714672D01*
X150384065Y-105714664D01*
X150383702Y-105714549D01*
X150383092Y-105714365D01*
X150371501Y-105710868D01*
X150371426Y-105710846D01*
X150371088Y-105710744D01*
X150370521Y-105710581D01*
X150358670Y-105707329D01*
X150223985Y-105672131D01*
X150223844Y-105672095D01*
X150223812Y-105672087D01*
X150216720Y-105670291D01*
X150216660Y-105670276D01*
X150216565Y-105670252D01*
X150216251Y-105670175D01*
X150216023Y-105670121D01*
X150215932Y-105670099D01*
X150209002Y-105668456D01*
X150208992Y-105668454D01*
X150208753Y-105668397D01*
X150086942Y-105640488D01*
X150086851Y-105640461D01*
X150086850Y-105640466D01*
X149985642Y-105617203D01*
X149980909Y-105616016D01*
X149908806Y-105596418D01*
X149899631Y-105593536D01*
X149847926Y-105575062D01*
X149835980Y-105570076D01*
X149790294Y-105548142D01*
X149778080Y-105541408D01*
X149772358Y-105537819D01*
X149742648Y-105519187D01*
X149723334Y-105507074D01*
X149712820Y-105499695D01*
X149638702Y-105441722D01*
X149630591Y-105434795D01*
X149549326Y-105359116D01*
X149525245Y-105336690D01*
X149512249Y-105325629D01*
X149495313Y-105311213D01*
X149495309Y-105311210D01*
X149490877Y-105307438D01*
X149490540Y-105307246D01*
X149478523Y-105297156D01*
X149082652Y-104901285D01*
X149049167Y-104839962D01*
X149054151Y-104770270D01*
X149096023Y-104714337D01*
X149161487Y-104689920D01*
X149223421Y-104702497D01*
X149223446Y-104702431D01*
X149223870Y-104702589D01*
X149226723Y-104703168D01*
X149230195Y-104704941D01*
X149230200Y-104704943D01*
X149236616Y-104708219D01*
X149243613Y-104709931D01*
X149249257Y-104712030D01*
X149254971Y-104713931D01*
X149261493Y-104716979D01*
X149332208Y-104731688D01*
X149336424Y-104732642D01*
X149406606Y-104749815D01*
X149412117Y-104750157D01*
X149412118Y-104750157D01*
X149417648Y-104750500D01*
X149417646Y-104750536D01*
X149421500Y-104750769D01*
X149425782Y-104751151D01*
X149432830Y-104752617D01*
X149509414Y-104750545D01*
X149512769Y-104750500D01*
X150875231Y-104750500D01*
X150942270Y-104770185D01*
X150962912Y-104786819D01*
X151950641Y-105774548D01*
X151984126Y-105835871D01*
X151986960Y-105862229D01*
X151986960Y-109137770D01*
X151967275Y-109204809D01*
X151950641Y-109225451D01*
X151503622Y-109672470D01*
X151442299Y-109705955D01*
X151375669Y-109702067D01*
X151337947Y-109689113D01*
X151326072Y-109684335D01*
X151274802Y-109660559D01*
X151266237Y-109656175D01*
X151200270Y-109619103D01*
X151195959Y-109616563D01*
X151107272Y-109561890D01*
X151107021Y-109561735D01*
X151000218Y-109495543D01*
X151000183Y-109495522D01*
X150999937Y-109495369D01*
X150994490Y-109492041D01*
X150994241Y-109491891D01*
X150992443Y-109490827D01*
X150987603Y-109487963D01*
X150987521Y-109487915D01*
X150987418Y-109487854D01*
X150987296Y-109487783D01*
X150987202Y-109487728D01*
X150907519Y-109441414D01*
X150865644Y-109417075D01*
X150855509Y-109411339D01*
X150855017Y-109411068D01*
X150854738Y-109410919D01*
X150854661Y-109410877D01*
X150846050Y-109406275D01*
X150843811Y-109405078D01*
X150708836Y-109335095D01*
X150673941Y-109321815D01*
X150660094Y-109316545D01*
X150651794Y-109313036D01*
X150579189Y-109279180D01*
X150566496Y-109273261D01*
X150346692Y-109214365D01*
X150341307Y-109213894D01*
X150341302Y-109213893D01*
X150125395Y-109195004D01*
X150120000Y-109194532D01*
X150114605Y-109195004D01*
X149898698Y-109213893D01*
X149898693Y-109213894D01*
X149893308Y-109214365D01*
X149673504Y-109273261D01*
X149668602Y-109275547D01*
X149668594Y-109275550D01*
X149488239Y-109359652D01*
X149467266Y-109369432D01*
X149462829Y-109372539D01*
X149462827Y-109372540D01*
X149285296Y-109496847D01*
X149285292Y-109496851D01*
X149280861Y-109499953D01*
X149119953Y-109660861D01*
X149116851Y-109665292D01*
X149116847Y-109665296D01*
X149000396Y-109831608D01*
X148989432Y-109847266D01*
X148987142Y-109852177D01*
X148895550Y-110048594D01*
X148895548Y-110048600D01*
X148893261Y-110053504D01*
X148834365Y-110273308D01*
X148833894Y-110278693D01*
X148833893Y-110278698D01*
X148827465Y-110352177D01*
X148814532Y-110500000D01*
X148815004Y-110505395D01*
X148831421Y-110693039D01*
X148834365Y-110726692D01*
X148893261Y-110946496D01*
X148895548Y-110951400D01*
X148895550Y-110951406D01*
X148961383Y-111092584D01*
X148989432Y-111152734D01*
X148992539Y-111157171D01*
X148992540Y-111157173D01*
X149116847Y-111334704D01*
X149116851Y-111334708D01*
X149119953Y-111339139D01*
X149280861Y-111500047D01*
X149314965Y-111523927D01*
X149358588Y-111578501D01*
X149365782Y-111647999D01*
X149334260Y-111710354D01*
X149274030Y-111745769D01*
X149243840Y-111749500D01*
X148599689Y-111749500D01*
X148532650Y-111729815D01*
X148512008Y-111713181D01*
X147524279Y-110725452D01*
X147490794Y-110664129D01*
X147487960Y-110637771D01*
X147487960Y-107566310D01*
X147489370Y-107547660D01*
X147491004Y-107536919D01*
X147492609Y-107526370D01*
X147488368Y-107474231D01*
X147487960Y-107464178D01*
X147487960Y-107456178D01*
X147484703Y-107428242D01*
X147484278Y-107423943D01*
X147479005Y-107359118D01*
X147479005Y-107359116D01*
X147478421Y-107351941D01*
X147476203Y-107345093D01*
X147475020Y-107339174D01*
X147473637Y-107333324D01*
X147472803Y-107326172D01*
X147448145Y-107258239D01*
X147446742Y-107254152D01*
X147445750Y-107251088D01*
X147424487Y-107185454D01*
X147420749Y-107179295D01*
X147418241Y-107173816D01*
X147415548Y-107168438D01*
X147413091Y-107161669D01*
X147375462Y-107104275D01*
X147373483Y-107101256D01*
X147371174Y-107097597D01*
X147333699Y-107035840D01*
X147326376Y-107027548D01*
X147326405Y-107027523D01*
X147323836Y-107024628D01*
X147321087Y-107021340D01*
X147317137Y-107015315D01*
X147311910Y-107010363D01*
X147311908Y-107010361D01*
X147261508Y-106962617D01*
X147259105Y-106960277D01*
X144239707Y-103940880D01*
X144237157Y-103938330D01*
X144146098Y-103866286D01*
X144140164Y-103861591D01*
X144140161Y-103861589D01*
X144134511Y-103857119D01*
X144072887Y-103828318D01*
X143982487Y-103786068D01*
X143982485Y-103786067D01*
X143975967Y-103783021D01*
X143968924Y-103781556D01*
X143968921Y-103781555D01*
X143811678Y-103748848D01*
X143811676Y-103748848D01*
X143804629Y-103747382D01*
X143629688Y-103752116D01*
X143629682Y-103751889D01*
X143600581Y-103751775D01*
X143598760Y-103751498D01*
X143593394Y-103750185D01*
X143586571Y-103749762D01*
X143584256Y-103749618D01*
X143584252Y-103749618D01*
X143582352Y-103749500D01*
X133296452Y-103749500D01*
X133244943Y-103734375D01*
X133225853Y-103745677D01*
X133195301Y-103749500D01*
X133066310Y-103749500D01*
X133047663Y-103748090D01*
X133026370Y-103744851D01*
X133019189Y-103745435D01*
X133019187Y-103745435D01*
X132974231Y-103749092D01*
X132964178Y-103749500D01*
X132956178Y-103749500D01*
X132928242Y-103752757D01*
X132923943Y-103753182D01*
X132859118Y-103758455D01*
X132859116Y-103758455D01*
X132851941Y-103759039D01*
X132845093Y-103761257D01*
X132839174Y-103762440D01*
X132833324Y-103763823D01*
X132826172Y-103764657D01*
X132758246Y-103789313D01*
X132754159Y-103790715D01*
X132685454Y-103812973D01*
X132679295Y-103816711D01*
X132673816Y-103819219D01*
X132668438Y-103821912D01*
X132661669Y-103824369D01*
X132655646Y-103828318D01*
X132601256Y-103863977D01*
X132597611Y-103866277D01*
X132535840Y-103903761D01*
X132527548Y-103911084D01*
X132527523Y-103911055D01*
X132524628Y-103913624D01*
X132521340Y-103916373D01*
X132515315Y-103920323D01*
X132510363Y-103925550D01*
X132510361Y-103925552D01*
X132462617Y-103975952D01*
X132460277Y-103978355D01*
X131246323Y-105192310D01*
X130087681Y-106350952D01*
X130026358Y-106384437D01*
X129956666Y-106379453D01*
X129912319Y-106350952D01*
X126286819Y-102725452D01*
X126253334Y-102664129D01*
X126250500Y-102637771D01*
X126250500Y-100362229D01*
X126270185Y-100295190D01*
X126286819Y-100274548D01*
X128683801Y-97877566D01*
X128697978Y-97865382D01*
X128715324Y-97852617D01*
X128749186Y-97812759D01*
X128756005Y-97805363D01*
X128761671Y-97799697D01*
X128779147Y-97777608D01*
X128781873Y-97774284D01*
X128823968Y-97724735D01*
X128823968Y-97724734D01*
X128828632Y-97719245D01*
X128831909Y-97712828D01*
X128835254Y-97707812D01*
X128838409Y-97702703D01*
X128842881Y-97697051D01*
X128873475Y-97631592D01*
X128875368Y-97627719D01*
X128904941Y-97569804D01*
X128904942Y-97569802D01*
X128908219Y-97563384D01*
X128909932Y-97556384D01*
X128912033Y-97550734D01*
X128913930Y-97545032D01*
X128916980Y-97538507D01*
X128918445Y-97531462D01*
X128918447Y-97531457D01*
X128931694Y-97467767D01*
X128932649Y-97463546D01*
X128943851Y-97417767D01*
X128949815Y-97393394D01*
X128950500Y-97382352D01*
X128950538Y-97382354D01*
X128950768Y-97378512D01*
X128951151Y-97374223D01*
X128952618Y-97367169D01*
X128950545Y-97290563D01*
X128950500Y-97287209D01*
X128950500Y-96343972D01*
X134500000Y-96343972D01*
X134500363Y-96350669D01*
X134505803Y-96400744D01*
X134509371Y-96415753D01*
X134553817Y-96534311D01*
X134562212Y-96549646D01*
X134637516Y-96650124D01*
X134649876Y-96662484D01*
X134750354Y-96737788D01*
X134765689Y-96746183D01*
X134884247Y-96790629D01*
X134899256Y-96794197D01*
X134949331Y-96799637D01*
X134956028Y-96800000D01*
X136132170Y-96800000D01*
X136147169Y-96795596D01*
X136148356Y-96794226D01*
X136150000Y-96786668D01*
X136150000Y-96782170D01*
X136650000Y-96782170D01*
X136654404Y-96797169D01*
X136655774Y-96798356D01*
X136663332Y-96800000D01*
X137843972Y-96800000D01*
X137850669Y-96799637D01*
X137900744Y-96794197D01*
X137915753Y-96790629D01*
X138034311Y-96746183D01*
X138049646Y-96737788D01*
X138150124Y-96662484D01*
X138162484Y-96650124D01*
X138237788Y-96549646D01*
X138246183Y-96534311D01*
X138290629Y-96415753D01*
X138294197Y-96400744D01*
X138299637Y-96350669D01*
X138300000Y-96343972D01*
X138300000Y-94767830D01*
X138295596Y-94752831D01*
X138294226Y-94751644D01*
X138286668Y-94750000D01*
X136667830Y-94750000D01*
X136652831Y-94754404D01*
X136651644Y-94755774D01*
X136650000Y-94763332D01*
X136650000Y-96782170D01*
X136150000Y-96782170D01*
X136150000Y-94767830D01*
X136145596Y-94752831D01*
X136144226Y-94751644D01*
X136136668Y-94750000D01*
X134517830Y-94750000D01*
X134502831Y-94754404D01*
X134501644Y-94755774D01*
X134500000Y-94763332D01*
X134500000Y-96343972D01*
X128950500Y-96343972D01*
X128950500Y-94232170D01*
X134500000Y-94232170D01*
X134504404Y-94247169D01*
X134505774Y-94248356D01*
X134513332Y-94250000D01*
X136132170Y-94250000D01*
X136147169Y-94245596D01*
X136148356Y-94244226D01*
X136150000Y-94236668D01*
X136150000Y-94232170D01*
X136650000Y-94232170D01*
X136654404Y-94247169D01*
X136655774Y-94248356D01*
X136663332Y-94250000D01*
X138282170Y-94250000D01*
X138297169Y-94245596D01*
X138298356Y-94244226D01*
X138300000Y-94236668D01*
X138300000Y-92656028D01*
X138299637Y-92649331D01*
X138294197Y-92599256D01*
X138290629Y-92584247D01*
X138246183Y-92465689D01*
X138237788Y-92450354D01*
X138162484Y-92349876D01*
X138150124Y-92337516D01*
X138049646Y-92262212D01*
X138034311Y-92253817D01*
X137915753Y-92209371D01*
X137900744Y-92205803D01*
X137850669Y-92200363D01*
X137843972Y-92200000D01*
X136667830Y-92200000D01*
X136652831Y-92204404D01*
X136651644Y-92205774D01*
X136650000Y-92213332D01*
X136650000Y-94232170D01*
X136150000Y-94232170D01*
X136150000Y-92217830D01*
X136145596Y-92202831D01*
X136144226Y-92201644D01*
X136136668Y-92200000D01*
X134956028Y-92200000D01*
X134949331Y-92200363D01*
X134899256Y-92205803D01*
X134884247Y-92209371D01*
X134765689Y-92253817D01*
X134750354Y-92262212D01*
X134649876Y-92337516D01*
X134637516Y-92349876D01*
X134562212Y-92450354D01*
X134553817Y-92465689D01*
X134509371Y-92584247D01*
X134505803Y-92599256D01*
X134500363Y-92649331D01*
X134500000Y-92656028D01*
X134500000Y-94232170D01*
X128950500Y-94232170D01*
X128950500Y-89538261D01*
X128952604Y-89515517D01*
X128954716Y-89504200D01*
X128954717Y-89504194D01*
X128955528Y-89499846D01*
X128963349Y-89312276D01*
X128964495Y-89299854D01*
X128982080Y-89177126D01*
X128985065Y-89162568D01*
X128985068Y-89162557D01*
X129008109Y-89076719D01*
X129013140Y-89061825D01*
X129041378Y-88992973D01*
X129047397Y-88980370D01*
X129066046Y-88946391D01*
X129087080Y-88908065D01*
X129092023Y-88899834D01*
X129118614Y-88859202D01*
X129151258Y-88809323D01*
X129153426Y-88806121D01*
X129209487Y-88726121D01*
X132333370Y-88726121D01*
X132338999Y-88734048D01*
X132341083Y-88735508D01*
X132545256Y-88854818D01*
X132554408Y-88859202D01*
X132775321Y-88943560D01*
X132785064Y-88946391D01*
X133016800Y-88993539D01*
X133026870Y-88994739D01*
X133263199Y-89003406D01*
X133273320Y-89002946D01*
X133507893Y-88972896D01*
X133517806Y-88970789D01*
X133744325Y-88902830D01*
X133753752Y-88899136D01*
X133966126Y-88795095D01*
X133974841Y-88789900D01*
X134054592Y-88733014D01*
X134062860Y-88722482D01*
X134055984Y-88709537D01*
X133212607Y-87866160D01*
X133198887Y-87858668D01*
X133197081Y-87858797D01*
X133190574Y-87862979D01*
X132340512Y-88713041D01*
X132333370Y-88726121D01*
X129209487Y-88726121D01*
X129233220Y-88692254D01*
X129236707Y-88687214D01*
X129251414Y-88665677D01*
X129327302Y-88554540D01*
X129327309Y-88554529D01*
X129327517Y-88554225D01*
X129333675Y-88544990D01*
X129333968Y-88544540D01*
X129340437Y-88534341D01*
X129434365Y-88382256D01*
X129443215Y-88367361D01*
X129443600Y-88366687D01*
X129451413Y-88352485D01*
X129542788Y-88179896D01*
X129558945Y-88138257D01*
X129563383Y-88128173D01*
X129597654Y-88058831D01*
X129597655Y-88058829D01*
X129599911Y-88054264D01*
X129671639Y-87818180D01*
X129696094Y-87632423D01*
X129703414Y-87576825D01*
X129703414Y-87576822D01*
X129703845Y-87573550D01*
X129703927Y-87570226D01*
X129705335Y-87512607D01*
X129705643Y-87500000D01*
X129704607Y-87487393D01*
X129703038Y-87468309D01*
X131695601Y-87468309D01*
X131709214Y-87704394D01*
X131710626Y-87714439D01*
X131762615Y-87945135D01*
X131765647Y-87954810D01*
X131854617Y-88173918D01*
X131859194Y-88182978D01*
X131965490Y-88356437D01*
X131975784Y-88365749D01*
X131984421Y-88362026D01*
X132833840Y-87512607D01*
X132840116Y-87501113D01*
X133558668Y-87501113D01*
X133558797Y-87502919D01*
X133562979Y-87509426D01*
X134410066Y-88356513D01*
X134421884Y-88362966D01*
X134433437Y-88354140D01*
X134487186Y-88279341D01*
X134492414Y-88270640D01*
X134597188Y-88058646D01*
X134600925Y-88049206D01*
X134669670Y-87822942D01*
X134671813Y-87813028D01*
X134702913Y-87576801D01*
X134703425Y-87570226D01*
X134705060Y-87503308D01*
X134704870Y-87496701D01*
X134685347Y-87259246D01*
X134683689Y-87249232D01*
X134626081Y-87019882D01*
X134622811Y-87010276D01*
X134528514Y-86793409D01*
X134523725Y-86784476D01*
X134433380Y-86644824D01*
X134422865Y-86635769D01*
X134413451Y-86640102D01*
X133566160Y-87487393D01*
X133558668Y-87501113D01*
X132840116Y-87501113D01*
X132841332Y-87498887D01*
X132841203Y-87497081D01*
X132837021Y-87490574D01*
X131989747Y-86643300D01*
X131978396Y-86637102D01*
X131966307Y-86646573D01*
X131894156Y-86752344D01*
X131889144Y-86761166D01*
X131789581Y-86975658D01*
X131786076Y-86985183D01*
X131722878Y-87213064D01*
X131720979Y-87223020D01*
X131695849Y-87458166D01*
X131695601Y-87468309D01*
X129703038Y-87468309D01*
X129692732Y-87342968D01*
X129685425Y-87254089D01*
X129674569Y-87210867D01*
X129635784Y-87056457D01*
X129625316Y-87014783D01*
X129526928Y-86788507D01*
X129392905Y-86581339D01*
X129327470Y-86509427D01*
X129230278Y-86402613D01*
X129230274Y-86402609D01*
X129226846Y-86398842D01*
X129073096Y-86277418D01*
X132336468Y-86277418D01*
X132343105Y-86289552D01*
X133187393Y-87133840D01*
X133201113Y-87141332D01*
X133202919Y-87141203D01*
X133209426Y-87137021D01*
X134057860Y-86288587D01*
X134064767Y-86275937D01*
X134057117Y-86265436D01*
X134036927Y-86249491D01*
X134028478Y-86243877D01*
X133821447Y-86129590D01*
X133812190Y-86125431D01*
X133589283Y-86046494D01*
X133579468Y-86043901D01*
X133346656Y-86002431D01*
X133336562Y-86001477D01*
X133100097Y-85998587D01*
X133089972Y-85999295D01*
X132856222Y-86035065D01*
X132846348Y-86037417D01*
X132621569Y-86110886D01*
X132612220Y-86114816D01*
X132402461Y-86224009D01*
X132393876Y-86229416D01*
X132344786Y-86266273D01*
X132336468Y-86277418D01*
X129073096Y-86277418D01*
X129033210Y-86245918D01*
X128843753Y-86141332D01*
X128821653Y-86129132D01*
X128821650Y-86129131D01*
X128817198Y-86126673D01*
X128584610Y-86044309D01*
X128341694Y-86001039D01*
X128255090Y-85999981D01*
X128100062Y-85998087D01*
X128100060Y-85998087D01*
X128094972Y-85998025D01*
X127851070Y-86035347D01*
X127616540Y-86112003D01*
X127591621Y-86124975D01*
X127402194Y-86223584D01*
X127402188Y-86223588D01*
X127397679Y-86225935D01*
X127200364Y-86374083D01*
X127196848Y-86377762D01*
X127196846Y-86377764D01*
X127176704Y-86398842D01*
X127029896Y-86552468D01*
X127027032Y-86556667D01*
X127027030Y-86556669D01*
X126907484Y-86731917D01*
X126890851Y-86756300D01*
X126786965Y-86980104D01*
X126785605Y-86985008D01*
X126723197Y-87210044D01*
X126721026Y-87217871D01*
X126694806Y-87463214D01*
X126695099Y-87468296D01*
X126695099Y-87468297D01*
X126700978Y-87570250D01*
X126709010Y-87709545D01*
X126710129Y-87714509D01*
X126762103Y-87945135D01*
X126763255Y-87950249D01*
X126856084Y-88178861D01*
X126858738Y-88183192D01*
X126858975Y-88183661D01*
X126862164Y-88189252D01*
X126948582Y-88352478D01*
X126950760Y-88356437D01*
X126956120Y-88366182D01*
X126956145Y-88366226D01*
X126956395Y-88366681D01*
X126956780Y-88367355D01*
X126965630Y-88382250D01*
X127059562Y-88534341D01*
X127066031Y-88544540D01*
X127066324Y-88544990D01*
X127072481Y-88554224D01*
X127163211Y-88687097D01*
X127166697Y-88692135D01*
X127246542Y-88806077D01*
X127248736Y-88809315D01*
X127281385Y-88859202D01*
X127307980Y-88899840D01*
X127312921Y-88908069D01*
X127333953Y-88946391D01*
X127352602Y-88980370D01*
X127358623Y-88992977D01*
X127384834Y-89056887D01*
X127386859Y-89061825D01*
X127391893Y-89076729D01*
X127414932Y-89162557D01*
X127417918Y-89177118D01*
X127435504Y-89299858D01*
X127436650Y-89312279D01*
X127444287Y-89495421D01*
X127444471Y-89499845D01*
X127444584Y-89501168D01*
X127444584Y-89501176D01*
X127448165Y-89543292D01*
X127448123Y-89543296D01*
X127449500Y-89558745D01*
X127449500Y-96937770D01*
X127429815Y-97004809D01*
X127413181Y-97025451D01*
X125016203Y-99422430D01*
X125002020Y-99434620D01*
X124984676Y-99447383D01*
X124980016Y-99452869D01*
X124980012Y-99452872D01*
X124950803Y-99487254D01*
X124943983Y-99494650D01*
X124938330Y-99500303D01*
X124936099Y-99503123D01*
X124936098Y-99503124D01*
X124935271Y-99504169D01*
X124920863Y-99522380D01*
X124918150Y-99525689D01*
X124876725Y-99574450D01*
X124871368Y-99580755D01*
X124868090Y-99587176D01*
X124864733Y-99592209D01*
X124861589Y-99597299D01*
X124857119Y-99602949D01*
X124826519Y-99668422D01*
X124824637Y-99672271D01*
X124791781Y-99736616D01*
X124790069Y-99743614D01*
X124787970Y-99749257D01*
X124786069Y-99754971D01*
X124783021Y-99761493D01*
X124774362Y-99803125D01*
X124768306Y-99832238D01*
X124767353Y-99836447D01*
X124750185Y-99906606D01*
X124749500Y-99917648D01*
X124749464Y-99917646D01*
X124749231Y-99921500D01*
X124748849Y-99925778D01*
X124747382Y-99932831D01*
X124747577Y-99940031D01*
X124749455Y-100009437D01*
X124749500Y-100012791D01*
X124749500Y-102933696D01*
X124748090Y-102952344D01*
X124744852Y-102973630D01*
X124745436Y-102980811D01*
X124745436Y-102980813D01*
X124749092Y-103025761D01*
X124749500Y-103035813D01*
X124749500Y-103043822D01*
X124749916Y-103047387D01*
X124752759Y-103071774D01*
X124753185Y-103076082D01*
X124758403Y-103140234D01*
X124759039Y-103148059D01*
X124761257Y-103154907D01*
X124762438Y-103160815D01*
X124763823Y-103166672D01*
X124764657Y-103173828D01*
X124786263Y-103233351D01*
X124789313Y-103241754D01*
X124790715Y-103245841D01*
X124812973Y-103314546D01*
X124816711Y-103320705D01*
X124819219Y-103326184D01*
X124821912Y-103331562D01*
X124824369Y-103338331D01*
X124828318Y-103344354D01*
X124863977Y-103398744D01*
X124866277Y-103402389D01*
X124903761Y-103464160D01*
X124907416Y-103468298D01*
X124911085Y-103472452D01*
X124911057Y-103472477D01*
X124913618Y-103475366D01*
X124916375Y-103478663D01*
X124920323Y-103484685D01*
X124975971Y-103537401D01*
X124978374Y-103539741D01*
X129213181Y-107774548D01*
X129246666Y-107835871D01*
X129249500Y-107862229D01*
X129249500Y-108188403D01*
X129229815Y-108255442D01*
X129200989Y-108286777D01*
X129150146Y-108325790D01*
X129092154Y-108389522D01*
X129032478Y-108425857D01*
X128962629Y-108424161D01*
X128914149Y-108395114D01*
X128793802Y-108278489D01*
X128785247Y-108271561D01*
X128609206Y-108153267D01*
X128599573Y-108147972D01*
X128405365Y-108062719D01*
X128394945Y-108059213D01*
X128267336Y-108028577D01*
X128253475Y-108029270D01*
X128250000Y-108038011D01*
X128250000Y-110626000D01*
X128230315Y-110693039D01*
X128177511Y-110738794D01*
X128126000Y-110750000D01*
X127874000Y-110750000D01*
X127806961Y-110730315D01*
X127761206Y-110677511D01*
X127750000Y-110626000D01*
X127750000Y-108038880D01*
X127745959Y-108025119D01*
X127735876Y-108023553D01*
X127733774Y-108024000D01*
X127531071Y-108086359D01*
X127520880Y-108090518D01*
X127332419Y-108187791D01*
X127323128Y-108193688D01*
X127154869Y-108322796D01*
X127146767Y-108330246D01*
X127004029Y-108487114D01*
X126997380Y-108495873D01*
X126884672Y-108675543D01*
X126879681Y-108685339D01*
X126800575Y-108882124D01*
X126797394Y-108892660D01*
X126754189Y-109101293D01*
X126753004Y-109110294D01*
X126750103Y-109160608D01*
X126750000Y-109164162D01*
X126750000Y-109479123D01*
X126730315Y-109546162D01*
X126677511Y-109591917D01*
X126608353Y-109601861D01*
X126544797Y-109572836D01*
X126532345Y-109560393D01*
X126476411Y-109495934D01*
X126293277Y-109345774D01*
X126288715Y-109343177D01*
X126092020Y-109231211D01*
X126092015Y-109231209D01*
X126087462Y-109228617D01*
X125864848Y-109147812D01*
X125631803Y-109105671D01*
X125627728Y-109105479D01*
X125627721Y-109105478D01*
X125617928Y-109105017D01*
X125606973Y-109104500D01*
X125440543Y-109104500D01*
X125437927Y-109104722D01*
X125437926Y-109104722D01*
X125372259Y-109110294D01*
X125264023Y-109119478D01*
X125034793Y-109178974D01*
X124818865Y-109276243D01*
X124622413Y-109408502D01*
X124613130Y-109417358D01*
X124461447Y-109562057D01*
X124451054Y-109571971D01*
X124447922Y-109576181D01*
X124447919Y-109576184D01*
X124386117Y-109659249D01*
X124309687Y-109761975D01*
X124307308Y-109766653D01*
X124307308Y-109766654D01*
X124229727Y-109919245D01*
X124202355Y-109973081D01*
X124200801Y-109978086D01*
X124133683Y-110194241D01*
X124133682Y-110194247D01*
X124132127Y-110199254D01*
X124131437Y-110204458D01*
X124131437Y-110204459D01*
X124113098Y-110342827D01*
X124101010Y-110434025D01*
X124101207Y-110439267D01*
X124108659Y-110637771D01*
X124109894Y-110670683D01*
X124110971Y-110675817D01*
X124110972Y-110675823D01*
X124154825Y-110884824D01*
X124158526Y-110902461D01*
X124160455Y-110907345D01*
X124160456Y-110907349D01*
X124194915Y-110994605D01*
X124245515Y-111122732D01*
X124248236Y-111127216D01*
X124248238Y-111127220D01*
X124349128Y-111293479D01*
X124368374Y-111325196D01*
X124418912Y-111383436D01*
X124520102Y-111500047D01*
X124523589Y-111504066D01*
X124633799Y-111594432D01*
X124699129Y-111647999D01*
X124706723Y-111654226D01*
X124711284Y-111656822D01*
X124711285Y-111656823D01*
X124907980Y-111768789D01*
X124907985Y-111768791D01*
X124912538Y-111771383D01*
X125135152Y-111852188D01*
X125368197Y-111894329D01*
X125372272Y-111894521D01*
X125372279Y-111894522D01*
X125382072Y-111894983D01*
X125393027Y-111895500D01*
X125559457Y-111895500D01*
X125562073Y-111895278D01*
X125562074Y-111895278D01*
X125730744Y-111880966D01*
X125735977Y-111880522D01*
X125965207Y-111821026D01*
X126181135Y-111723757D01*
X126364672Y-111600193D01*
X126373229Y-111594432D01*
X126377587Y-111591498D01*
X126540411Y-111436171D01*
X126602504Y-111404141D01*
X126672059Y-111410766D01*
X126726990Y-111453944D01*
X126750000Y-111525895D01*
X126750000Y-111803851D01*
X126750245Y-111809355D01*
X126764292Y-111966751D01*
X126766240Y-111977577D01*
X126822203Y-112182142D01*
X126826043Y-112192467D01*
X126917347Y-112383891D01*
X126922946Y-112393357D01*
X127046709Y-112565592D01*
X127053897Y-112573919D01*
X127206205Y-112721516D01*
X127214753Y-112728439D01*
X127281184Y-112773078D01*
X127325849Y-112826807D01*
X127334375Y-112896155D01*
X127304056Y-112959103D01*
X127244517Y-112995667D01*
X127212024Y-113000000D01*
X123124000Y-113000000D01*
X123056961Y-112980315D01*
X123011206Y-112927511D01*
X123000000Y-112876000D01*
X123000000Y-96705423D01*
X123019685Y-96638384D01*
X123072489Y-96592629D01*
X123141647Y-96582685D01*
X123205203Y-96611710D01*
X123223226Y-96631057D01*
X123237516Y-96650124D01*
X123249876Y-96662484D01*
X123350354Y-96737788D01*
X123365689Y-96746183D01*
X123484247Y-96790629D01*
X123499256Y-96794197D01*
X123549331Y-96799637D01*
X123556028Y-96800000D01*
X124732170Y-96800000D01*
X124747169Y-96795596D01*
X124748356Y-96794226D01*
X124750000Y-96786668D01*
X124750000Y-96782170D01*
X125250000Y-96782170D01*
X125254404Y-96797169D01*
X125255774Y-96798356D01*
X125263332Y-96800000D01*
X126443972Y-96800000D01*
X126450669Y-96799637D01*
X126500744Y-96794197D01*
X126515753Y-96790629D01*
X126634311Y-96746183D01*
X126649646Y-96737788D01*
X126750124Y-96662484D01*
X126762484Y-96650124D01*
X126837788Y-96549646D01*
X126846183Y-96534311D01*
X126890629Y-96415753D01*
X126894197Y-96400744D01*
X126899637Y-96350669D01*
X126900000Y-96343972D01*
X126900000Y-94767830D01*
X126895596Y-94752831D01*
X126894226Y-94751644D01*
X126886668Y-94750000D01*
X125267830Y-94750000D01*
X125252831Y-94754404D01*
X125251644Y-94755774D01*
X125250000Y-94763332D01*
X125250000Y-96782170D01*
X124750000Y-96782170D01*
X124750000Y-94232170D01*
X125250000Y-94232170D01*
X125254404Y-94247169D01*
X125255774Y-94248356D01*
X125263332Y-94250000D01*
X126882170Y-94250000D01*
X126897169Y-94245596D01*
X126898356Y-94244226D01*
X126900000Y-94236668D01*
X126900000Y-92656028D01*
X126899637Y-92649331D01*
X126894197Y-92599256D01*
X126890629Y-92584247D01*
X126846183Y-92465689D01*
X126837788Y-92450354D01*
X126762484Y-92349876D01*
X126750124Y-92337516D01*
X126649646Y-92262212D01*
X126634311Y-92253817D01*
X126515753Y-92209371D01*
X126500744Y-92205803D01*
X126450669Y-92200363D01*
X126443972Y-92200000D01*
X125267830Y-92200000D01*
X125252831Y-92204404D01*
X125251644Y-92205774D01*
X125250000Y-92213332D01*
X125250000Y-94232170D01*
X124750000Y-94232170D01*
X124750000Y-92217830D01*
X124745596Y-92202831D01*
X124744226Y-92201644D01*
X124736668Y-92200000D01*
X123556028Y-92200000D01*
X123549331Y-92200363D01*
X123499256Y-92205803D01*
X123484247Y-92209371D01*
X123365689Y-92253817D01*
X123350354Y-92262212D01*
X123249876Y-92337516D01*
X123237516Y-92349876D01*
X123223226Y-92368943D01*
X123167269Y-92410783D01*
X123097574Y-92415728D01*
X123036270Y-92382209D01*
X123002819Y-92320867D01*
X123000000Y-92294577D01*
X123000000Y-85124000D01*
X123019685Y-85056961D01*
X123072489Y-85011206D01*
X123124000Y-85000000D01*
X141131455Y-85000000D01*
X141198494Y-85019685D01*
G37*
%TD.AperFunction*%
%TD*%
%TA.AperFunction,Conductor*%
%TO.N,/SWITCH_IN*%
G36*
X147950126Y-92488804D02*
G01*
X148689424Y-93188879D01*
X148693075Y-93197054D01*
X148692001Y-93202278D01*
X148627517Y-93341925D01*
X148627251Y-93342465D01*
X148561171Y-93468155D01*
X148560985Y-93468495D01*
X148527475Y-93527405D01*
X148497859Y-93579469D01*
X148438982Y-93682084D01*
X148438933Y-93682176D01*
X148438920Y-93682200D01*
X148421698Y-93714702D01*
X148385707Y-93782624D01*
X148339296Y-93887539D01*
X148301006Y-94003283D01*
X148272097Y-94136306D01*
X148272062Y-94136605D01*
X148272062Y-94136606D01*
X148266950Y-94180470D01*
X148253829Y-94293061D01*
X148248533Y-94448516D01*
X148247845Y-94468698D01*
X148244139Y-94476850D01*
X148236152Y-94480000D01*
X147758746Y-94480000D01*
X147750473Y-94476573D01*
X147747054Y-94468721D01*
X147740971Y-94299926D01*
X147740962Y-94299675D01*
X147722179Y-94148553D01*
X147719379Y-94136606D01*
X147692251Y-94020894D01*
X147692250Y-94020890D01*
X147692172Y-94020558D01*
X147652004Y-93909618D01*
X147602736Y-93809660D01*
X147545432Y-93714608D01*
X147481154Y-93618391D01*
X147454722Y-93579431D01*
X147411044Y-93515051D01*
X147410883Y-93514807D01*
X147336076Y-93398398D01*
X147335793Y-93397935D01*
X147261301Y-93269265D01*
X147260122Y-93260388D01*
X147262624Y-93255696D01*
X147933278Y-92489592D01*
X147941305Y-92485625D01*
X147950126Y-92488804D01*
G37*
%TD.AperFunction*%
%TD*%
%TA.AperFunction,Conductor*%
%TO.N,/ENC_A_OUT*%
G36*
X150476156Y-109783860D02*
G01*
X150611131Y-109853843D01*
X150611623Y-109854114D01*
X150733397Y-109924893D01*
X150733646Y-109925043D01*
X150841486Y-109991877D01*
X150941516Y-110053544D01*
X151039912Y-110108841D01*
X151142961Y-110156629D01*
X151143233Y-110156723D01*
X151143237Y-110156724D01*
X151256647Y-110195670D01*
X151256953Y-110195775D01*
X151346393Y-110215792D01*
X151387887Y-110225079D01*
X151387891Y-110225080D01*
X151388174Y-110225143D01*
X151447239Y-110232187D01*
X151542670Y-110243567D01*
X151542672Y-110243567D01*
X151542914Y-110243596D01*
X151543153Y-110243604D01*
X151543162Y-110243605D01*
X151686166Y-110248567D01*
X151716166Y-110249608D01*
X151724315Y-110253320D01*
X151727460Y-110261301D01*
X151727460Y-110738699D01*
X151724033Y-110746972D01*
X151716166Y-110750392D01*
X151670012Y-110751993D01*
X151543162Y-110756394D01*
X151543153Y-110756395D01*
X151542914Y-110756403D01*
X151542672Y-110756432D01*
X151542670Y-110756432D01*
X151447239Y-110767812D01*
X151388174Y-110774856D01*
X151387891Y-110774919D01*
X151387887Y-110774920D01*
X151346393Y-110784207D01*
X151256953Y-110804224D01*
X151256648Y-110804329D01*
X151256647Y-110804329D01*
X151143237Y-110843275D01*
X151143233Y-110843276D01*
X151142961Y-110843370D01*
X151039912Y-110891158D01*
X150941516Y-110946455D01*
X150841486Y-111008122D01*
X150733646Y-111074956D01*
X150733397Y-111075106D01*
X150669598Y-111112188D01*
X150611633Y-111145879D01*
X150611140Y-111146151D01*
X150476159Y-111216138D01*
X150467237Y-111216904D01*
X150462663Y-111214184D01*
X150391634Y-111145879D01*
X149728769Y-110508433D01*
X149725181Y-110500229D01*
X149728769Y-110491567D01*
X149976517Y-110253320D01*
X150462664Y-109785815D01*
X150471003Y-109782550D01*
X150476156Y-109783860D01*
G37*
%TD.AperFunction*%
%TD*%
%TA.AperFunction,Conductor*%
%TO.N,Net-(C1-Pad1)*%
G36*
X155060741Y-93751507D02*
G01*
X155185927Y-93868089D01*
X155307095Y-93962863D01*
X155419549Y-94033386D01*
X155526860Y-94084909D01*
X155527142Y-94085010D01*
X155527145Y-94085011D01*
X155632372Y-94122607D01*
X155632379Y-94122609D01*
X155632594Y-94122686D01*
X155740322Y-94151968D01*
X155853612Y-94178008D01*
X155975858Y-94206017D01*
X155976172Y-94206094D01*
X156070071Y-94230633D01*
X156110857Y-94241292D01*
X156111424Y-94241455D01*
X156254531Y-94286665D01*
X156261387Y-94292425D01*
X156262704Y-94297593D01*
X156282604Y-95315565D01*
X156279339Y-95323904D01*
X156270677Y-95327492D01*
X155252705Y-95307592D01*
X155244501Y-95304004D01*
X155241777Y-95299419D01*
X155196567Y-95156312D01*
X155196404Y-95155745D01*
X155161209Y-95021074D01*
X155161125Y-95020729D01*
X155133120Y-94898500D01*
X155107106Y-94785323D01*
X155107106Y-94785322D01*
X155107080Y-94785210D01*
X155077798Y-94677482D01*
X155040021Y-94571748D01*
X154988498Y-94464437D01*
X154917975Y-94351983D01*
X154823201Y-94230815D01*
X154706619Y-94105629D01*
X154703488Y-94097239D01*
X154706908Y-94089382D01*
X155044494Y-93751796D01*
X155052767Y-93748369D01*
X155060741Y-93751507D01*
G37*
%TD.AperFunction*%
%TD*%
M02*
