M48
; DRILL file {KiCad (6.0.5-0)} date Wednesday, May 25, 2022 at 10:38:43 PM
; FORMAT={-:-/ absolute / metric / decimal}
; #@! TF.CreationDate,2022-05-25T22:38:43-04:00
; #@! TF.GenerationSoftware,Kicad,Pcbnew,(6.0.5-0)
; #@! TF.FileFunction,Plated,1,2,PTH
FMAT,2
METRIC
; #@! TA.AperFunction,Plated,PTH,ComponentDrill
T1C0.800
; #@! TA.AperFunction,Plated,PTH,ComponentDrill
T2C0.950
; #@! TA.AperFunction,Plated,PTH,ComponentDrill
T3C1.000
; #@! TA.AperFunction,Plated,PTH,ComponentDrill
T4C1.750
; #@! TA.AperFunction,Plated,PTH,ComponentDrill
T5C1.800
%
G90
G05
T1
X141.5Y-86.5
X142.5Y-107.0
X142.5Y-110.5
X142.88Y-92.88
X142.88Y-100.5
X145.42Y-92.88
X145.42Y-100.5
X146.5Y-86.5
X147.96Y-92.88
X147.96Y-100.5
X150.12Y-107.0
X150.12Y-110.5
X150.5Y-92.88
X150.5Y-100.5
X151.5Y-86.5
X156.0Y-95.045
X156.0Y-97.045
X156.0Y-103.38
X156.0Y-111.0
X156.5Y-86.5
T2
X128.0Y-110.5
X130.0Y-110.5
X132.0Y-110.5
X134.0Y-110.5
T3
X128.2Y-87.5
X128.2Y-102.0
X130.7Y-102.0
X133.2Y-87.5
X133.2Y-102.0
T4
X125.5Y-110.5
X136.5Y-110.5
T5
X125.0Y-94.1G85X125.0Y-94.9
G05
X136.4Y-94.1G85X136.4Y-94.9
G05
T0
M30
