%FSLAX45Y45*%
G04 Gerber Fmt 4.5, Leading zero omitted, Abs format (unit mm)*
G04 Created by KiCad (PCBNEW (6.0.5-0)) date 2022-05-25 22:39:22*
%MOMM*%
%LPD*%
G01*
G04 APERTURE LIST*
%TA.AperFunction,Profile*%
%ADD10C,0.100000*%
%TD*%
%ADD11C,0.200000*%
G04 APERTURE END LIST*
D10*
X12200000Y-8400000D02*
X16000000Y-8400000D01*
X16000000Y-8400000D02*
X16000000Y-11400000D01*
X16000000Y-11400000D02*
X12200000Y-11400000D01*
X12200000Y-11400000D02*
X12200000Y-8400000D01*
D11*
X12452619Y-11715476D02*
X12452619Y-11515476D01*
X12500238Y-11515476D01*
X12528809Y-11525000D01*
X12547857Y-11544048D01*
X12557381Y-11563095D01*
X12566905Y-11601190D01*
X12566905Y-11629762D01*
X12557381Y-11667857D01*
X12547857Y-11686905D01*
X12528809Y-11705952D01*
X12500238Y-11715476D01*
X12452619Y-11715476D01*
X12652619Y-11715476D02*
X12652619Y-11582143D01*
X12652619Y-11620238D02*
X12662143Y-11601190D01*
X12671667Y-11591667D01*
X12690714Y-11582143D01*
X12709762Y-11582143D01*
X12776428Y-11715476D02*
X12776428Y-11582143D01*
X12776428Y-11515476D02*
X12766905Y-11525000D01*
X12776428Y-11534524D01*
X12785952Y-11525000D01*
X12776428Y-11515476D01*
X12776428Y-11534524D01*
X12900238Y-11715476D02*
X12881190Y-11705952D01*
X12871667Y-11686905D01*
X12871667Y-11515476D01*
X13005000Y-11715476D02*
X12985952Y-11705952D01*
X12976428Y-11686905D01*
X12976428Y-11515476D01*
X13233571Y-11715476D02*
X13233571Y-11515476D01*
X13300238Y-11658333D01*
X13366905Y-11515476D01*
X13366905Y-11715476D01*
X13547857Y-11715476D02*
X13547857Y-11610714D01*
X13538333Y-11591667D01*
X13519286Y-11582143D01*
X13481190Y-11582143D01*
X13462143Y-11591667D01*
X13547857Y-11705952D02*
X13528809Y-11715476D01*
X13481190Y-11715476D01*
X13462143Y-11705952D01*
X13452619Y-11686905D01*
X13452619Y-11667857D01*
X13462143Y-11648809D01*
X13481190Y-11639286D01*
X13528809Y-11639286D01*
X13547857Y-11629762D01*
X13643095Y-11582143D02*
X13643095Y-11782143D01*
X13643095Y-11591667D02*
X13662143Y-11582143D01*
X13700238Y-11582143D01*
X13719286Y-11591667D01*
X13728809Y-11601190D01*
X13738333Y-11620238D01*
X13738333Y-11677381D01*
X13728809Y-11696428D01*
X13719286Y-11705952D01*
X13700238Y-11715476D01*
X13662143Y-11715476D01*
X13643095Y-11705952D01*
X13824048Y-11696428D02*
X13833571Y-11705952D01*
X13824048Y-11715476D01*
X13814524Y-11705952D01*
X13824048Y-11696428D01*
X13824048Y-11715476D01*
X13824048Y-11591667D02*
X13833571Y-11601190D01*
X13824048Y-11610714D01*
X13814524Y-11601190D01*
X13824048Y-11591667D01*
X13824048Y-11610714D01*
M02*
