%FSLAX45Y45*%
G04 Gerber Fmt 4.5, Leading zero omitted, Abs format (unit mm)*
G04 Created by KiCad (PCBNEW (6.0.5-0)) date 2022-05-25 22:39:22*
%MOMM*%
%LPD*%
G01*
G04 APERTURE LIST*
%TA.AperFunction,Profile*%
%ADD10C,0.100000*%
%TD*%
%ADD11C,0.200000*%
%ADD12C,0.080000*%
%ADD13C,0.095000*%
%ADD14C,0.100000*%
%ADD15C,0.175000*%
%ADD16C,0.180000*%
G04 APERTURE END LIST*
D10*
X12200000Y-8400000D02*
X16000000Y-8400000D01*
X16000000Y-8400000D02*
X16000000Y-11400000D01*
X16000000Y-11400000D02*
X12200000Y-11400000D01*
X12200000Y-11400000D02*
X12200000Y-8400000D01*
D11*
D12*
X14110000Y-8610000D02*
X14190000Y-8690000D01*
X14190000Y-8610000D02*
X14110000Y-8690000D01*
X14210000Y-10660000D02*
X14290000Y-10740000D01*
X14290000Y-10660000D02*
X14210000Y-10740000D01*
X14210000Y-11010000D02*
X14290000Y-11090000D01*
X14290000Y-11010000D02*
X14210000Y-11090000D01*
X14248000Y-9248000D02*
X14328000Y-9328000D01*
X14328000Y-9248000D02*
X14248000Y-9328000D01*
X14248000Y-10010000D02*
X14328000Y-10090000D01*
X14328000Y-10010000D02*
X14248000Y-10090000D01*
X14502000Y-9248000D02*
X14582000Y-9328000D01*
X14582000Y-9248000D02*
X14502000Y-9328000D01*
X14502000Y-10010000D02*
X14582000Y-10090000D01*
X14582000Y-10010000D02*
X14502000Y-10090000D01*
X14610000Y-8610000D02*
X14690000Y-8690000D01*
X14690000Y-8610000D02*
X14610000Y-8690000D01*
X14756000Y-9248000D02*
X14836000Y-9328000D01*
X14836000Y-9248000D02*
X14756000Y-9328000D01*
X14756000Y-10010000D02*
X14836000Y-10090000D01*
X14836000Y-10010000D02*
X14756000Y-10090000D01*
X14972000Y-10660000D02*
X15052000Y-10740000D01*
X15052000Y-10660000D02*
X14972000Y-10740000D01*
X14972000Y-11010000D02*
X15052000Y-11090000D01*
X15052000Y-11010000D02*
X14972000Y-11090000D01*
X15010000Y-9248000D02*
X15090000Y-9328000D01*
X15090000Y-9248000D02*
X15010000Y-9328000D01*
X15010000Y-10010000D02*
X15090000Y-10090000D01*
X15090000Y-10010000D02*
X15010000Y-10090000D01*
X15110000Y-8610000D02*
X15190000Y-8690000D01*
X15190000Y-8610000D02*
X15110000Y-8690000D01*
X15560000Y-9464489D02*
X15640000Y-9544489D01*
X15640000Y-9464489D02*
X15560000Y-9544489D01*
X15560000Y-9664489D02*
X15640000Y-9744489D01*
X15640000Y-9664489D02*
X15560000Y-9744489D01*
X15560000Y-10298000D02*
X15640000Y-10378000D01*
X15640000Y-10298000D02*
X15560000Y-10378000D01*
X15560000Y-11060000D02*
X15640000Y-11140000D01*
X15640000Y-11060000D02*
X15560000Y-11140000D01*
X15610000Y-8610000D02*
X15690000Y-8690000D01*
X15690000Y-8610000D02*
X15610000Y-8690000D01*
D13*
X12847500Y-11050000D02*
G75*
G03*
X12847500Y-11050000I-47500J0D01*
G01*
X13047500Y-11050000D02*
G75*
G03*
X13047500Y-11050000I-47500J0D01*
G01*
X13247500Y-11050000D02*
G75*
G03*
X13247500Y-11050000I-47500J0D01*
G01*
X13447500Y-11050000D02*
G75*
G03*
X13447500Y-11050000I-47500J0D01*
G01*
D14*
X12820000Y-8700000D02*
X12820000Y-8800000D01*
X12770000Y-8750000D02*
X12870000Y-8750000D01*
X12820000Y-10150000D02*
X12820000Y-10250000D01*
X12770000Y-10200000D02*
X12870000Y-10200000D01*
X13070000Y-10150000D02*
X13070000Y-10250000D01*
X13020000Y-10200000D02*
X13120000Y-10200000D01*
X13320000Y-8700000D02*
X13320000Y-8800000D01*
X13270000Y-8750000D02*
X13370000Y-8750000D01*
X13320000Y-10150000D02*
X13320000Y-10250000D01*
X13270000Y-10200000D02*
X13370000Y-10200000D01*
D15*
X12611872Y-11111872D02*
X12611872Y-10988128D01*
X12488128Y-10988128D01*
X12488128Y-11111872D01*
X12611872Y-11111872D01*
X13711872Y-11111872D02*
X13711872Y-10988128D01*
X13588128Y-10988128D01*
X13588128Y-11111872D01*
X13711872Y-11111872D01*
D16*
X12500000Y-9540000D02*
X12590000Y-9450000D01*
X12500000Y-9360000D01*
X12410000Y-9450000D01*
X12500000Y-9540000D01*
D11*
X12420000Y-9410000D02*
X12420000Y-9490000D01*
X12580000Y-9410000D02*
X12580000Y-9490000D01*
X12420000Y-9490000D02*
G75*
G03*
X12580000Y-9490000I80000J0D01*
G01*
X12580000Y-9410000D02*
G75*
G03*
X12420000Y-9410000I-80000J0D01*
G01*
D16*
X13640000Y-9540000D02*
X13730000Y-9450000D01*
X13640000Y-9360000D01*
X13550000Y-9450000D01*
X13640000Y-9540000D01*
D11*
X13560000Y-9410000D02*
X13560000Y-9490000D01*
X13720000Y-9410000D02*
X13720000Y-9490000D01*
X13560000Y-9490000D02*
G75*
G03*
X13720000Y-9490000I80000J0D01*
G01*
X13720000Y-9410000D02*
G75*
G03*
X13560000Y-9410000I-80000J0D01*
G01*
X12452619Y-11715476D02*
X12452619Y-11515476D01*
X12500238Y-11515476D01*
X12528809Y-11525000D01*
X12547857Y-11544048D01*
X12557381Y-11563095D01*
X12566905Y-11601190D01*
X12566905Y-11629762D01*
X12557381Y-11667857D01*
X12547857Y-11686905D01*
X12528809Y-11705952D01*
X12500238Y-11715476D01*
X12452619Y-11715476D01*
X12652619Y-11715476D02*
X12652619Y-11582143D01*
X12652619Y-11620238D02*
X12662143Y-11601190D01*
X12671667Y-11591667D01*
X12690714Y-11582143D01*
X12709762Y-11582143D01*
X12776428Y-11715476D02*
X12776428Y-11582143D01*
X12776428Y-11515476D02*
X12766905Y-11525000D01*
X12776428Y-11534524D01*
X12785952Y-11525000D01*
X12776428Y-11515476D01*
X12776428Y-11534524D01*
X12900238Y-11715476D02*
X12881190Y-11705952D01*
X12871667Y-11686905D01*
X12871667Y-11515476D01*
X13005000Y-11715476D02*
X12985952Y-11705952D01*
X12976428Y-11686905D01*
X12976428Y-11515476D01*
X13233571Y-11715476D02*
X13233571Y-11515476D01*
X13300238Y-11658333D01*
X13366905Y-11515476D01*
X13366905Y-11715476D01*
X13547857Y-11715476D02*
X13547857Y-11610714D01*
X13538333Y-11591667D01*
X13519286Y-11582143D01*
X13481190Y-11582143D01*
X13462143Y-11591667D01*
X13547857Y-11705952D02*
X13528809Y-11715476D01*
X13481190Y-11715476D01*
X13462143Y-11705952D01*
X13452619Y-11686905D01*
X13452619Y-11667857D01*
X13462143Y-11648809D01*
X13481190Y-11639286D01*
X13528809Y-11639286D01*
X13547857Y-11629762D01*
X13643095Y-11582143D02*
X13643095Y-11782143D01*
X13643095Y-11591667D02*
X13662143Y-11582143D01*
X13700238Y-11582143D01*
X13719286Y-11591667D01*
X13728809Y-11601190D01*
X13738333Y-11620238D01*
X13738333Y-11677381D01*
X13728809Y-11696428D01*
X13719286Y-11705952D01*
X13700238Y-11715476D01*
X13662143Y-11715476D01*
X13643095Y-11705952D01*
X13824048Y-11696428D02*
X13833571Y-11705952D01*
X13824048Y-11715476D01*
X13814524Y-11705952D01*
X13824048Y-11696428D01*
X13824048Y-11715476D01*
X13824048Y-11591667D02*
X13833571Y-11601190D01*
X13824048Y-11610714D01*
X13814524Y-11601190D01*
X13824048Y-11591667D01*
X13824048Y-11610714D01*
D12*
X12115000Y-12005000D02*
X12195000Y-12085000D01*
X12195000Y-12005000D02*
X12115000Y-12085000D01*
D11*
X12490714Y-11935476D02*
X12509762Y-11935476D01*
X12528809Y-11945000D01*
X12538333Y-11954524D01*
X12547857Y-11973571D01*
X12557381Y-12011667D01*
X12557381Y-12059286D01*
X12547857Y-12097381D01*
X12538333Y-12116428D01*
X12528809Y-12125952D01*
X12509762Y-12135476D01*
X12490714Y-12135476D01*
X12471667Y-12125952D01*
X12462143Y-12116428D01*
X12452619Y-12097381D01*
X12443095Y-12059286D01*
X12443095Y-12011667D01*
X12452619Y-11973571D01*
X12462143Y-11954524D01*
X12471667Y-11945000D01*
X12490714Y-11935476D01*
X12643095Y-12116428D02*
X12652619Y-12125952D01*
X12643095Y-12135476D01*
X12633571Y-12125952D01*
X12643095Y-12116428D01*
X12643095Y-12135476D01*
X12766905Y-12021190D02*
X12747857Y-12011667D01*
X12738333Y-12002143D01*
X12728809Y-11983095D01*
X12728809Y-11973571D01*
X12738333Y-11954524D01*
X12747857Y-11945000D01*
X12766905Y-11935476D01*
X12805000Y-11935476D01*
X12824048Y-11945000D01*
X12833571Y-11954524D01*
X12843095Y-11973571D01*
X12843095Y-11983095D01*
X12833571Y-12002143D01*
X12824048Y-12011667D01*
X12805000Y-12021190D01*
X12766905Y-12021190D01*
X12747857Y-12030714D01*
X12738333Y-12040238D01*
X12728809Y-12059286D01*
X12728809Y-12097381D01*
X12738333Y-12116428D01*
X12747857Y-12125952D01*
X12766905Y-12135476D01*
X12805000Y-12135476D01*
X12824048Y-12125952D01*
X12833571Y-12116428D01*
X12843095Y-12097381D01*
X12843095Y-12059286D01*
X12833571Y-12040238D01*
X12824048Y-12030714D01*
X12805000Y-12021190D01*
X12966905Y-11935476D02*
X12985952Y-11935476D01*
X13005000Y-11945000D01*
X13014524Y-11954524D01*
X13024048Y-11973571D01*
X13033571Y-12011667D01*
X13033571Y-12059286D01*
X13024048Y-12097381D01*
X13014524Y-12116428D01*
X13005000Y-12125952D01*
X12985952Y-12135476D01*
X12966905Y-12135476D01*
X12947857Y-12125952D01*
X12938333Y-12116428D01*
X12928809Y-12097381D01*
X12919286Y-12059286D01*
X12919286Y-12011667D01*
X12928809Y-11973571D01*
X12938333Y-11954524D01*
X12947857Y-11945000D01*
X12966905Y-11935476D01*
X13157381Y-11935476D02*
X13176428Y-11935476D01*
X13195476Y-11945000D01*
X13205000Y-11954524D01*
X13214524Y-11973571D01*
X13224048Y-12011667D01*
X13224048Y-12059286D01*
X13214524Y-12097381D01*
X13205000Y-12116428D01*
X13195476Y-12125952D01*
X13176428Y-12135476D01*
X13157381Y-12135476D01*
X13138333Y-12125952D01*
X13128809Y-12116428D01*
X13119286Y-12097381D01*
X13109762Y-12059286D01*
X13109762Y-12011667D01*
X13119286Y-11973571D01*
X13128809Y-11954524D01*
X13138333Y-11945000D01*
X13157381Y-11935476D01*
X13309762Y-12135476D02*
X13309762Y-12002143D01*
X13309762Y-12021190D02*
X13319286Y-12011667D01*
X13338333Y-12002143D01*
X13366905Y-12002143D01*
X13385952Y-12011667D01*
X13395476Y-12030714D01*
X13395476Y-12135476D01*
X13395476Y-12030714D02*
X13405000Y-12011667D01*
X13424048Y-12002143D01*
X13452619Y-12002143D01*
X13471667Y-12011667D01*
X13481190Y-12030714D01*
X13481190Y-12135476D01*
X13576428Y-12135476D02*
X13576428Y-12002143D01*
X13576428Y-12021190D02*
X13585952Y-12011667D01*
X13605000Y-12002143D01*
X13633571Y-12002143D01*
X13652619Y-12011667D01*
X13662143Y-12030714D01*
X13662143Y-12135476D01*
X13662143Y-12030714D02*
X13671667Y-12011667D01*
X13690714Y-12002143D01*
X13719286Y-12002143D01*
X13738333Y-12011667D01*
X13747857Y-12030714D01*
X13747857Y-12135476D01*
X14138333Y-11925952D02*
X13966905Y-12183095D01*
X14395476Y-11935476D02*
X14414524Y-11935476D01*
X14433571Y-11945000D01*
X14443095Y-11954524D01*
X14452619Y-11973571D01*
X14462143Y-12011667D01*
X14462143Y-12059286D01*
X14452619Y-12097381D01*
X14443095Y-12116428D01*
X14433571Y-12125952D01*
X14414524Y-12135476D01*
X14395476Y-12135476D01*
X14376428Y-12125952D01*
X14366905Y-12116428D01*
X14357381Y-12097381D01*
X14347857Y-12059286D01*
X14347857Y-12011667D01*
X14357381Y-11973571D01*
X14366905Y-11954524D01*
X14376428Y-11945000D01*
X14395476Y-11935476D01*
X14547857Y-12116428D02*
X14557381Y-12125952D01*
X14547857Y-12135476D01*
X14538333Y-12125952D01*
X14547857Y-12116428D01*
X14547857Y-12135476D01*
X14681190Y-11935476D02*
X14700238Y-11935476D01*
X14719286Y-11945000D01*
X14728809Y-11954524D01*
X14738333Y-11973571D01*
X14747857Y-12011667D01*
X14747857Y-12059286D01*
X14738333Y-12097381D01*
X14728809Y-12116428D01*
X14719286Y-12125952D01*
X14700238Y-12135476D01*
X14681190Y-12135476D01*
X14662143Y-12125952D01*
X14652619Y-12116428D01*
X14643095Y-12097381D01*
X14633571Y-12059286D01*
X14633571Y-12011667D01*
X14643095Y-11973571D01*
X14652619Y-11954524D01*
X14662143Y-11945000D01*
X14681190Y-11935476D01*
X14814524Y-11935476D02*
X14938333Y-11935476D01*
X14871667Y-12011667D01*
X14900238Y-12011667D01*
X14919286Y-12021190D01*
X14928809Y-12030714D01*
X14938333Y-12049762D01*
X14938333Y-12097381D01*
X14928809Y-12116428D01*
X14919286Y-12125952D01*
X14900238Y-12135476D01*
X14843095Y-12135476D01*
X14824048Y-12125952D01*
X14814524Y-12116428D01*
X15128809Y-12135476D02*
X15014524Y-12135476D01*
X15071667Y-12135476D02*
X15071667Y-11935476D01*
X15052619Y-11964048D01*
X15033571Y-11983095D01*
X15014524Y-11992619D01*
X15309762Y-11935476D02*
X15214524Y-11935476D01*
X15205000Y-12030714D01*
X15214524Y-12021190D01*
X15233571Y-12011667D01*
X15281190Y-12011667D01*
X15300238Y-12021190D01*
X15309762Y-12030714D01*
X15319286Y-12049762D01*
X15319286Y-12097381D01*
X15309762Y-12116428D01*
X15300238Y-12125952D01*
X15281190Y-12135476D01*
X15233571Y-12135476D01*
X15214524Y-12125952D01*
X15205000Y-12116428D01*
X15395476Y-11935476D02*
X15395476Y-11973571D01*
X15471667Y-11935476D02*
X15471667Y-11973571D01*
X15766905Y-12211667D02*
X15757381Y-12202143D01*
X15738333Y-12173571D01*
X15728809Y-12154524D01*
X15719286Y-12125952D01*
X15709762Y-12078333D01*
X15709762Y-12040238D01*
X15719286Y-11992619D01*
X15728809Y-11964048D01*
X15738333Y-11945000D01*
X15757381Y-11916428D01*
X15766905Y-11906905D01*
X15833571Y-11954524D02*
X15843095Y-11945000D01*
X15862143Y-11935476D01*
X15909762Y-11935476D01*
X15928809Y-11945000D01*
X15938333Y-11954524D01*
X15947857Y-11973571D01*
X15947857Y-11992619D01*
X15938333Y-12021190D01*
X15824048Y-12135476D01*
X15947857Y-12135476D01*
X16071667Y-11935476D02*
X16090714Y-11935476D01*
X16109762Y-11945000D01*
X16119286Y-11954524D01*
X16128809Y-11973571D01*
X16138333Y-12011667D01*
X16138333Y-12059286D01*
X16128809Y-12097381D01*
X16119286Y-12116428D01*
X16109762Y-12125952D01*
X16090714Y-12135476D01*
X16071667Y-12135476D01*
X16052619Y-12125952D01*
X16043095Y-12116428D01*
X16033571Y-12097381D01*
X16024048Y-12059286D01*
X16024048Y-12011667D01*
X16033571Y-11973571D01*
X16043095Y-11954524D01*
X16052619Y-11945000D01*
X16071667Y-11935476D01*
X16376428Y-12135476D02*
X16376428Y-11935476D01*
X16462143Y-12135476D02*
X16462143Y-12030714D01*
X16452619Y-12011667D01*
X16433571Y-12002143D01*
X16405000Y-12002143D01*
X16385952Y-12011667D01*
X16376428Y-12021190D01*
X16585952Y-12135476D02*
X16566905Y-12125952D01*
X16557381Y-12116428D01*
X16547857Y-12097381D01*
X16547857Y-12040238D01*
X16557381Y-12021190D01*
X16566905Y-12011667D01*
X16585952Y-12002143D01*
X16614524Y-12002143D01*
X16633571Y-12011667D01*
X16643095Y-12021190D01*
X16652619Y-12040238D01*
X16652619Y-12097381D01*
X16643095Y-12116428D01*
X16633571Y-12125952D01*
X16614524Y-12135476D01*
X16585952Y-12135476D01*
X16766905Y-12135476D02*
X16747857Y-12125952D01*
X16738333Y-12106905D01*
X16738333Y-11935476D01*
X16919286Y-12125952D02*
X16900238Y-12135476D01*
X16862143Y-12135476D01*
X16843095Y-12125952D01*
X16833571Y-12106905D01*
X16833571Y-12030714D01*
X16843095Y-12011667D01*
X16862143Y-12002143D01*
X16900238Y-12002143D01*
X16919286Y-12011667D01*
X16928810Y-12030714D01*
X16928810Y-12049762D01*
X16833571Y-12068809D01*
X17005000Y-12125952D02*
X17024048Y-12135476D01*
X17062143Y-12135476D01*
X17081190Y-12125952D01*
X17090714Y-12106905D01*
X17090714Y-12097381D01*
X17081190Y-12078333D01*
X17062143Y-12068809D01*
X17033571Y-12068809D01*
X17014524Y-12059286D01*
X17005000Y-12040238D01*
X17005000Y-12030714D01*
X17014524Y-12011667D01*
X17033571Y-12002143D01*
X17062143Y-12002143D01*
X17081190Y-12011667D01*
X17157381Y-12211667D02*
X17166905Y-12202143D01*
X17185952Y-12173571D01*
X17195476Y-12154524D01*
X17205000Y-12125952D01*
X17214524Y-12078333D01*
X17214524Y-12040238D01*
X17205000Y-11992619D01*
X17195476Y-11964048D01*
X17185952Y-11945000D01*
X17166905Y-11916428D01*
X17157381Y-11906905D01*
D13*
X12195000Y-12309000D02*
G75*
G03*
X12195000Y-12309000I-47500J0D01*
G01*
D11*
X12490714Y-12199476D02*
X12509762Y-12199476D01*
X12528809Y-12209000D01*
X12538333Y-12218524D01*
X12547857Y-12237571D01*
X12557381Y-12275667D01*
X12557381Y-12323286D01*
X12547857Y-12361381D01*
X12538333Y-12380428D01*
X12528809Y-12389952D01*
X12509762Y-12399476D01*
X12490714Y-12399476D01*
X12471667Y-12389952D01*
X12462143Y-12380428D01*
X12452619Y-12361381D01*
X12443095Y-12323286D01*
X12443095Y-12275667D01*
X12452619Y-12237571D01*
X12462143Y-12218524D01*
X12471667Y-12209000D01*
X12490714Y-12199476D01*
X12643095Y-12380428D02*
X12652619Y-12389952D01*
X12643095Y-12399476D01*
X12633571Y-12389952D01*
X12643095Y-12380428D01*
X12643095Y-12399476D01*
X12747857Y-12399476D02*
X12785952Y-12399476D01*
X12805000Y-12389952D01*
X12814524Y-12380428D01*
X12833571Y-12351857D01*
X12843095Y-12313762D01*
X12843095Y-12237571D01*
X12833571Y-12218524D01*
X12824048Y-12209000D01*
X12805000Y-12199476D01*
X12766905Y-12199476D01*
X12747857Y-12209000D01*
X12738333Y-12218524D01*
X12728809Y-12237571D01*
X12728809Y-12285190D01*
X12738333Y-12304238D01*
X12747857Y-12313762D01*
X12766905Y-12323286D01*
X12805000Y-12323286D01*
X12824048Y-12313762D01*
X12833571Y-12304238D01*
X12843095Y-12285190D01*
X13024048Y-12199476D02*
X12928809Y-12199476D01*
X12919286Y-12294714D01*
X12928809Y-12285190D01*
X12947857Y-12275667D01*
X12995476Y-12275667D01*
X13014524Y-12285190D01*
X13024048Y-12294714D01*
X13033571Y-12313762D01*
X13033571Y-12361381D01*
X13024048Y-12380428D01*
X13014524Y-12389952D01*
X12995476Y-12399476D01*
X12947857Y-12399476D01*
X12928809Y-12389952D01*
X12919286Y-12380428D01*
X13157381Y-12199476D02*
X13176428Y-12199476D01*
X13195476Y-12209000D01*
X13205000Y-12218524D01*
X13214524Y-12237571D01*
X13224048Y-12275667D01*
X13224048Y-12323286D01*
X13214524Y-12361381D01*
X13205000Y-12380428D01*
X13195476Y-12389952D01*
X13176428Y-12399476D01*
X13157381Y-12399476D01*
X13138333Y-12389952D01*
X13128809Y-12380428D01*
X13119286Y-12361381D01*
X13109762Y-12323286D01*
X13109762Y-12275667D01*
X13119286Y-12237571D01*
X13128809Y-12218524D01*
X13138333Y-12209000D01*
X13157381Y-12199476D01*
X13309762Y-12399476D02*
X13309762Y-12266143D01*
X13309762Y-12285190D02*
X13319286Y-12275667D01*
X13338333Y-12266143D01*
X13366905Y-12266143D01*
X13385952Y-12275667D01*
X13395476Y-12294714D01*
X13395476Y-12399476D01*
X13395476Y-12294714D02*
X13405000Y-12275667D01*
X13424048Y-12266143D01*
X13452619Y-12266143D01*
X13471667Y-12275667D01*
X13481190Y-12294714D01*
X13481190Y-12399476D01*
X13576428Y-12399476D02*
X13576428Y-12266143D01*
X13576428Y-12285190D02*
X13585952Y-12275667D01*
X13605000Y-12266143D01*
X13633571Y-12266143D01*
X13652619Y-12275667D01*
X13662143Y-12294714D01*
X13662143Y-12399476D01*
X13662143Y-12294714D02*
X13671667Y-12275667D01*
X13690714Y-12266143D01*
X13719286Y-12266143D01*
X13738333Y-12275667D01*
X13747857Y-12294714D01*
X13747857Y-12399476D01*
X14138333Y-12189952D02*
X13966905Y-12447095D01*
X14395476Y-12199476D02*
X14414524Y-12199476D01*
X14433571Y-12209000D01*
X14443095Y-12218524D01*
X14452619Y-12237571D01*
X14462143Y-12275667D01*
X14462143Y-12323286D01*
X14452619Y-12361381D01*
X14443095Y-12380428D01*
X14433571Y-12389952D01*
X14414524Y-12399476D01*
X14395476Y-12399476D01*
X14376428Y-12389952D01*
X14366905Y-12380428D01*
X14357381Y-12361381D01*
X14347857Y-12323286D01*
X14347857Y-12275667D01*
X14357381Y-12237571D01*
X14366905Y-12218524D01*
X14376428Y-12209000D01*
X14395476Y-12199476D01*
X14547857Y-12380428D02*
X14557381Y-12389952D01*
X14547857Y-12399476D01*
X14538333Y-12389952D01*
X14547857Y-12380428D01*
X14547857Y-12399476D01*
X14681190Y-12199476D02*
X14700238Y-12199476D01*
X14719286Y-12209000D01*
X14728809Y-12218524D01*
X14738333Y-12237571D01*
X14747857Y-12275667D01*
X14747857Y-12323286D01*
X14738333Y-12361381D01*
X14728809Y-12380428D01*
X14719286Y-12389952D01*
X14700238Y-12399476D01*
X14681190Y-12399476D01*
X14662143Y-12389952D01*
X14652619Y-12380428D01*
X14643095Y-12361381D01*
X14633571Y-12323286D01*
X14633571Y-12275667D01*
X14643095Y-12237571D01*
X14652619Y-12218524D01*
X14662143Y-12209000D01*
X14681190Y-12199476D01*
X14814524Y-12199476D02*
X14938333Y-12199476D01*
X14871667Y-12275667D01*
X14900238Y-12275667D01*
X14919286Y-12285190D01*
X14928809Y-12294714D01*
X14938333Y-12313762D01*
X14938333Y-12361381D01*
X14928809Y-12380428D01*
X14919286Y-12389952D01*
X14900238Y-12399476D01*
X14843095Y-12399476D01*
X14824048Y-12389952D01*
X14814524Y-12380428D01*
X15005000Y-12199476D02*
X15138333Y-12199476D01*
X15052619Y-12399476D01*
X15300238Y-12266143D02*
X15300238Y-12399476D01*
X15252619Y-12189952D02*
X15205000Y-12332809D01*
X15328809Y-12332809D01*
X15395476Y-12199476D02*
X15395476Y-12237571D01*
X15471667Y-12199476D02*
X15471667Y-12237571D01*
X15766905Y-12475667D02*
X15757381Y-12466143D01*
X15738333Y-12437571D01*
X15728809Y-12418524D01*
X15719286Y-12389952D01*
X15709762Y-12342333D01*
X15709762Y-12304238D01*
X15719286Y-12256619D01*
X15728809Y-12228048D01*
X15738333Y-12209000D01*
X15757381Y-12180428D01*
X15766905Y-12170905D01*
X15928809Y-12266143D02*
X15928809Y-12399476D01*
X15881190Y-12189952D02*
X15833571Y-12332809D01*
X15957381Y-12332809D01*
X16185952Y-12399476D02*
X16185952Y-12199476D01*
X16271667Y-12399476D02*
X16271667Y-12294714D01*
X16262143Y-12275667D01*
X16243095Y-12266143D01*
X16214524Y-12266143D01*
X16195476Y-12275667D01*
X16185952Y-12285190D01*
X16395476Y-12399476D02*
X16376428Y-12389952D01*
X16366905Y-12380428D01*
X16357381Y-12361381D01*
X16357381Y-12304238D01*
X16366905Y-12285190D01*
X16376428Y-12275667D01*
X16395476Y-12266143D01*
X16424048Y-12266143D01*
X16443095Y-12275667D01*
X16452619Y-12285190D01*
X16462143Y-12304238D01*
X16462143Y-12361381D01*
X16452619Y-12380428D01*
X16443095Y-12389952D01*
X16424048Y-12399476D01*
X16395476Y-12399476D01*
X16576428Y-12399476D02*
X16557381Y-12389952D01*
X16547857Y-12370905D01*
X16547857Y-12199476D01*
X16728809Y-12389952D02*
X16709762Y-12399476D01*
X16671667Y-12399476D01*
X16652619Y-12389952D01*
X16643095Y-12370905D01*
X16643095Y-12294714D01*
X16652619Y-12275667D01*
X16671667Y-12266143D01*
X16709762Y-12266143D01*
X16728809Y-12275667D01*
X16738333Y-12294714D01*
X16738333Y-12313762D01*
X16643095Y-12332809D01*
X16814524Y-12389952D02*
X16833571Y-12399476D01*
X16871667Y-12399476D01*
X16890714Y-12389952D01*
X16900238Y-12370905D01*
X16900238Y-12361381D01*
X16890714Y-12342333D01*
X16871667Y-12332809D01*
X16843095Y-12332809D01*
X16824048Y-12323286D01*
X16814524Y-12304238D01*
X16814524Y-12294714D01*
X16824048Y-12275667D01*
X16843095Y-12266143D01*
X16871667Y-12266143D01*
X16890714Y-12275667D01*
X16966905Y-12475667D02*
X16976429Y-12466143D01*
X16995476Y-12437571D01*
X17005000Y-12418524D01*
X17014524Y-12389952D01*
X17024048Y-12342333D01*
X17024048Y-12304238D01*
X17014524Y-12256619D01*
X17005000Y-12228048D01*
X16995476Y-12209000D01*
X16976429Y-12180428D01*
X16966905Y-12170905D01*
D14*
X12145000Y-12523000D02*
X12145000Y-12623000D01*
X12095000Y-12573000D02*
X12195000Y-12573000D01*
D11*
X12557381Y-12663476D02*
X12443095Y-12663476D01*
X12500238Y-12663476D02*
X12500238Y-12463476D01*
X12481190Y-12492048D01*
X12462143Y-12511095D01*
X12443095Y-12520619D01*
X12643095Y-12644428D02*
X12652619Y-12653952D01*
X12643095Y-12663476D01*
X12633571Y-12653952D01*
X12643095Y-12644428D01*
X12643095Y-12663476D01*
X12776428Y-12463476D02*
X12795476Y-12463476D01*
X12814524Y-12473000D01*
X12824048Y-12482524D01*
X12833571Y-12501571D01*
X12843095Y-12539667D01*
X12843095Y-12587286D01*
X12833571Y-12625381D01*
X12824048Y-12644428D01*
X12814524Y-12653952D01*
X12795476Y-12663476D01*
X12776428Y-12663476D01*
X12757381Y-12653952D01*
X12747857Y-12644428D01*
X12738333Y-12625381D01*
X12728809Y-12587286D01*
X12728809Y-12539667D01*
X12738333Y-12501571D01*
X12747857Y-12482524D01*
X12757381Y-12473000D01*
X12776428Y-12463476D01*
X12966905Y-12463476D02*
X12985952Y-12463476D01*
X13005000Y-12473000D01*
X13014524Y-12482524D01*
X13024048Y-12501571D01*
X13033571Y-12539667D01*
X13033571Y-12587286D01*
X13024048Y-12625381D01*
X13014524Y-12644428D01*
X13005000Y-12653952D01*
X12985952Y-12663476D01*
X12966905Y-12663476D01*
X12947857Y-12653952D01*
X12938333Y-12644428D01*
X12928809Y-12625381D01*
X12919286Y-12587286D01*
X12919286Y-12539667D01*
X12928809Y-12501571D01*
X12938333Y-12482524D01*
X12947857Y-12473000D01*
X12966905Y-12463476D01*
X13157381Y-12463476D02*
X13176428Y-12463476D01*
X13195476Y-12473000D01*
X13205000Y-12482524D01*
X13214524Y-12501571D01*
X13224048Y-12539667D01*
X13224048Y-12587286D01*
X13214524Y-12625381D01*
X13205000Y-12644428D01*
X13195476Y-12653952D01*
X13176428Y-12663476D01*
X13157381Y-12663476D01*
X13138333Y-12653952D01*
X13128809Y-12644428D01*
X13119286Y-12625381D01*
X13109762Y-12587286D01*
X13109762Y-12539667D01*
X13119286Y-12501571D01*
X13128809Y-12482524D01*
X13138333Y-12473000D01*
X13157381Y-12463476D01*
X13309762Y-12663476D02*
X13309762Y-12530143D01*
X13309762Y-12549190D02*
X13319286Y-12539667D01*
X13338333Y-12530143D01*
X13366905Y-12530143D01*
X13385952Y-12539667D01*
X13395476Y-12558714D01*
X13395476Y-12663476D01*
X13395476Y-12558714D02*
X13405000Y-12539667D01*
X13424048Y-12530143D01*
X13452619Y-12530143D01*
X13471667Y-12539667D01*
X13481190Y-12558714D01*
X13481190Y-12663476D01*
X13576428Y-12663476D02*
X13576428Y-12530143D01*
X13576428Y-12549190D02*
X13585952Y-12539667D01*
X13605000Y-12530143D01*
X13633571Y-12530143D01*
X13652619Y-12539667D01*
X13662143Y-12558714D01*
X13662143Y-12663476D01*
X13662143Y-12558714D02*
X13671667Y-12539667D01*
X13690714Y-12530143D01*
X13719286Y-12530143D01*
X13738333Y-12539667D01*
X13747857Y-12558714D01*
X13747857Y-12663476D01*
X14138333Y-12453952D02*
X13966905Y-12711095D01*
X14395476Y-12463476D02*
X14414524Y-12463476D01*
X14433571Y-12473000D01*
X14443095Y-12482524D01*
X14452619Y-12501571D01*
X14462143Y-12539667D01*
X14462143Y-12587286D01*
X14452619Y-12625381D01*
X14443095Y-12644428D01*
X14433571Y-12653952D01*
X14414524Y-12663476D01*
X14395476Y-12663476D01*
X14376428Y-12653952D01*
X14366905Y-12644428D01*
X14357381Y-12625381D01*
X14347857Y-12587286D01*
X14347857Y-12539667D01*
X14357381Y-12501571D01*
X14366905Y-12482524D01*
X14376428Y-12473000D01*
X14395476Y-12463476D01*
X14547857Y-12644428D02*
X14557381Y-12653952D01*
X14547857Y-12663476D01*
X14538333Y-12653952D01*
X14547857Y-12644428D01*
X14547857Y-12663476D01*
X14681190Y-12463476D02*
X14700238Y-12463476D01*
X14719286Y-12473000D01*
X14728809Y-12482524D01*
X14738333Y-12501571D01*
X14747857Y-12539667D01*
X14747857Y-12587286D01*
X14738333Y-12625381D01*
X14728809Y-12644428D01*
X14719286Y-12653952D01*
X14700238Y-12663476D01*
X14681190Y-12663476D01*
X14662143Y-12653952D01*
X14652619Y-12644428D01*
X14643095Y-12625381D01*
X14633571Y-12587286D01*
X14633571Y-12539667D01*
X14643095Y-12501571D01*
X14652619Y-12482524D01*
X14662143Y-12473000D01*
X14681190Y-12463476D01*
X14814524Y-12463476D02*
X14938333Y-12463476D01*
X14871667Y-12539667D01*
X14900238Y-12539667D01*
X14919286Y-12549190D01*
X14928809Y-12558714D01*
X14938333Y-12577762D01*
X14938333Y-12625381D01*
X14928809Y-12644428D01*
X14919286Y-12653952D01*
X14900238Y-12663476D01*
X14843095Y-12663476D01*
X14824048Y-12653952D01*
X14814524Y-12644428D01*
X15033571Y-12663476D02*
X15071667Y-12663476D01*
X15090714Y-12653952D01*
X15100238Y-12644428D01*
X15119286Y-12615857D01*
X15128809Y-12577762D01*
X15128809Y-12501571D01*
X15119286Y-12482524D01*
X15109762Y-12473000D01*
X15090714Y-12463476D01*
X15052619Y-12463476D01*
X15033571Y-12473000D01*
X15024048Y-12482524D01*
X15014524Y-12501571D01*
X15014524Y-12549190D01*
X15024048Y-12568238D01*
X15033571Y-12577762D01*
X15052619Y-12587286D01*
X15090714Y-12587286D01*
X15109762Y-12577762D01*
X15119286Y-12568238D01*
X15128809Y-12549190D01*
X15300238Y-12530143D02*
X15300238Y-12663476D01*
X15252619Y-12453952D02*
X15205000Y-12596809D01*
X15328809Y-12596809D01*
X15395476Y-12463476D02*
X15395476Y-12501571D01*
X15471667Y-12463476D02*
X15471667Y-12501571D01*
X15766905Y-12739667D02*
X15757381Y-12730143D01*
X15738333Y-12701571D01*
X15728809Y-12682524D01*
X15719286Y-12653952D01*
X15709762Y-12606333D01*
X15709762Y-12568238D01*
X15719286Y-12520619D01*
X15728809Y-12492048D01*
X15738333Y-12473000D01*
X15757381Y-12444428D01*
X15766905Y-12434905D01*
X15938333Y-12463476D02*
X15843095Y-12463476D01*
X15833571Y-12558714D01*
X15843095Y-12549190D01*
X15862143Y-12539667D01*
X15909762Y-12539667D01*
X15928809Y-12549190D01*
X15938333Y-12558714D01*
X15947857Y-12577762D01*
X15947857Y-12625381D01*
X15938333Y-12644428D01*
X15928809Y-12653952D01*
X15909762Y-12663476D01*
X15862143Y-12663476D01*
X15843095Y-12653952D01*
X15833571Y-12644428D01*
X16185952Y-12663476D02*
X16185952Y-12463476D01*
X16271667Y-12663476D02*
X16271667Y-12558714D01*
X16262143Y-12539667D01*
X16243095Y-12530143D01*
X16214524Y-12530143D01*
X16195476Y-12539667D01*
X16185952Y-12549190D01*
X16395476Y-12663476D02*
X16376428Y-12653952D01*
X16366905Y-12644428D01*
X16357381Y-12625381D01*
X16357381Y-12568238D01*
X16366905Y-12549190D01*
X16376428Y-12539667D01*
X16395476Y-12530143D01*
X16424048Y-12530143D01*
X16443095Y-12539667D01*
X16452619Y-12549190D01*
X16462143Y-12568238D01*
X16462143Y-12625381D01*
X16452619Y-12644428D01*
X16443095Y-12653952D01*
X16424048Y-12663476D01*
X16395476Y-12663476D01*
X16576428Y-12663476D02*
X16557381Y-12653952D01*
X16547857Y-12634905D01*
X16547857Y-12463476D01*
X16728809Y-12653952D02*
X16709762Y-12663476D01*
X16671667Y-12663476D01*
X16652619Y-12653952D01*
X16643095Y-12634905D01*
X16643095Y-12558714D01*
X16652619Y-12539667D01*
X16671667Y-12530143D01*
X16709762Y-12530143D01*
X16728809Y-12539667D01*
X16738333Y-12558714D01*
X16738333Y-12577762D01*
X16643095Y-12596809D01*
X16814524Y-12653952D02*
X16833571Y-12663476D01*
X16871667Y-12663476D01*
X16890714Y-12653952D01*
X16900238Y-12634905D01*
X16900238Y-12625381D01*
X16890714Y-12606333D01*
X16871667Y-12596809D01*
X16843095Y-12596809D01*
X16824048Y-12587286D01*
X16814524Y-12568238D01*
X16814524Y-12558714D01*
X16824048Y-12539667D01*
X16843095Y-12530143D01*
X16871667Y-12530143D01*
X16890714Y-12539667D01*
X16966905Y-12739667D02*
X16976429Y-12730143D01*
X16995476Y-12701571D01*
X17005000Y-12682524D01*
X17014524Y-12653952D01*
X17024048Y-12606333D01*
X17024048Y-12568238D01*
X17014524Y-12520619D01*
X17005000Y-12492048D01*
X16995476Y-12473000D01*
X16976429Y-12444428D01*
X16966905Y-12434905D01*
D15*
X12169372Y-12898872D02*
X12169372Y-12775128D01*
X12045628Y-12775128D01*
X12045628Y-12898872D01*
X12169372Y-12898872D01*
D11*
X12557381Y-12927476D02*
X12443095Y-12927476D01*
X12500238Y-12927476D02*
X12500238Y-12727476D01*
X12481190Y-12756048D01*
X12462143Y-12775095D01*
X12443095Y-12784619D01*
X12643095Y-12908428D02*
X12652619Y-12917952D01*
X12643095Y-12927476D01*
X12633571Y-12917952D01*
X12643095Y-12908428D01*
X12643095Y-12927476D01*
X12719286Y-12727476D02*
X12852619Y-12727476D01*
X12766905Y-12927476D01*
X13024048Y-12727476D02*
X12928809Y-12727476D01*
X12919286Y-12822714D01*
X12928809Y-12813190D01*
X12947857Y-12803667D01*
X12995476Y-12803667D01*
X13014524Y-12813190D01*
X13024048Y-12822714D01*
X13033571Y-12841762D01*
X13033571Y-12889381D01*
X13024048Y-12908428D01*
X13014524Y-12917952D01*
X12995476Y-12927476D01*
X12947857Y-12927476D01*
X12928809Y-12917952D01*
X12919286Y-12908428D01*
X13157381Y-12727476D02*
X13176428Y-12727476D01*
X13195476Y-12737000D01*
X13205000Y-12746524D01*
X13214524Y-12765571D01*
X13224048Y-12803667D01*
X13224048Y-12851286D01*
X13214524Y-12889381D01*
X13205000Y-12908428D01*
X13195476Y-12917952D01*
X13176428Y-12927476D01*
X13157381Y-12927476D01*
X13138333Y-12917952D01*
X13128809Y-12908428D01*
X13119286Y-12889381D01*
X13109762Y-12851286D01*
X13109762Y-12803667D01*
X13119286Y-12765571D01*
X13128809Y-12746524D01*
X13138333Y-12737000D01*
X13157381Y-12727476D01*
X13309762Y-12927476D02*
X13309762Y-12794143D01*
X13309762Y-12813190D02*
X13319286Y-12803667D01*
X13338333Y-12794143D01*
X13366905Y-12794143D01*
X13385952Y-12803667D01*
X13395476Y-12822714D01*
X13395476Y-12927476D01*
X13395476Y-12822714D02*
X13405000Y-12803667D01*
X13424048Y-12794143D01*
X13452619Y-12794143D01*
X13471667Y-12803667D01*
X13481190Y-12822714D01*
X13481190Y-12927476D01*
X13576428Y-12927476D02*
X13576428Y-12794143D01*
X13576428Y-12813190D02*
X13585952Y-12803667D01*
X13605000Y-12794143D01*
X13633571Y-12794143D01*
X13652619Y-12803667D01*
X13662143Y-12822714D01*
X13662143Y-12927476D01*
X13662143Y-12822714D02*
X13671667Y-12803667D01*
X13690714Y-12794143D01*
X13719286Y-12794143D01*
X13738333Y-12803667D01*
X13747857Y-12822714D01*
X13747857Y-12927476D01*
X14138333Y-12717952D02*
X13966905Y-12975095D01*
X14395476Y-12727476D02*
X14414524Y-12727476D01*
X14433571Y-12737000D01*
X14443095Y-12746524D01*
X14452619Y-12765571D01*
X14462143Y-12803667D01*
X14462143Y-12851286D01*
X14452619Y-12889381D01*
X14443095Y-12908428D01*
X14433571Y-12917952D01*
X14414524Y-12927476D01*
X14395476Y-12927476D01*
X14376428Y-12917952D01*
X14366905Y-12908428D01*
X14357381Y-12889381D01*
X14347857Y-12851286D01*
X14347857Y-12803667D01*
X14357381Y-12765571D01*
X14366905Y-12746524D01*
X14376428Y-12737000D01*
X14395476Y-12727476D01*
X14547857Y-12908428D02*
X14557381Y-12917952D01*
X14547857Y-12927476D01*
X14538333Y-12917952D01*
X14547857Y-12908428D01*
X14547857Y-12927476D01*
X14681190Y-12727476D02*
X14700238Y-12727476D01*
X14719286Y-12737000D01*
X14728809Y-12746524D01*
X14738333Y-12765571D01*
X14747857Y-12803667D01*
X14747857Y-12851286D01*
X14738333Y-12889381D01*
X14728809Y-12908428D01*
X14719286Y-12917952D01*
X14700238Y-12927476D01*
X14681190Y-12927476D01*
X14662143Y-12917952D01*
X14652619Y-12908428D01*
X14643095Y-12889381D01*
X14633571Y-12851286D01*
X14633571Y-12803667D01*
X14643095Y-12765571D01*
X14652619Y-12746524D01*
X14662143Y-12737000D01*
X14681190Y-12727476D01*
X14919286Y-12727476D02*
X14881190Y-12727476D01*
X14862143Y-12737000D01*
X14852619Y-12746524D01*
X14833571Y-12775095D01*
X14824048Y-12813190D01*
X14824048Y-12889381D01*
X14833571Y-12908428D01*
X14843095Y-12917952D01*
X14862143Y-12927476D01*
X14900238Y-12927476D01*
X14919286Y-12917952D01*
X14928809Y-12908428D01*
X14938333Y-12889381D01*
X14938333Y-12841762D01*
X14928809Y-12822714D01*
X14919286Y-12813190D01*
X14900238Y-12803667D01*
X14862143Y-12803667D01*
X14843095Y-12813190D01*
X14833571Y-12822714D01*
X14824048Y-12841762D01*
X15052619Y-12813190D02*
X15033571Y-12803667D01*
X15024048Y-12794143D01*
X15014524Y-12775095D01*
X15014524Y-12765571D01*
X15024048Y-12746524D01*
X15033571Y-12737000D01*
X15052619Y-12727476D01*
X15090714Y-12727476D01*
X15109762Y-12737000D01*
X15119286Y-12746524D01*
X15128809Y-12765571D01*
X15128809Y-12775095D01*
X15119286Y-12794143D01*
X15109762Y-12803667D01*
X15090714Y-12813190D01*
X15052619Y-12813190D01*
X15033571Y-12822714D01*
X15024048Y-12832238D01*
X15014524Y-12851286D01*
X15014524Y-12889381D01*
X15024048Y-12908428D01*
X15033571Y-12917952D01*
X15052619Y-12927476D01*
X15090714Y-12927476D01*
X15109762Y-12917952D01*
X15119286Y-12908428D01*
X15128809Y-12889381D01*
X15128809Y-12851286D01*
X15119286Y-12832238D01*
X15109762Y-12822714D01*
X15090714Y-12813190D01*
X15224048Y-12927476D02*
X15262143Y-12927476D01*
X15281190Y-12917952D01*
X15290714Y-12908428D01*
X15309762Y-12879857D01*
X15319286Y-12841762D01*
X15319286Y-12765571D01*
X15309762Y-12746524D01*
X15300238Y-12737000D01*
X15281190Y-12727476D01*
X15243095Y-12727476D01*
X15224048Y-12737000D01*
X15214524Y-12746524D01*
X15205000Y-12765571D01*
X15205000Y-12813190D01*
X15214524Y-12832238D01*
X15224048Y-12841762D01*
X15243095Y-12851286D01*
X15281190Y-12851286D01*
X15300238Y-12841762D01*
X15309762Y-12832238D01*
X15319286Y-12813190D01*
X15395476Y-12727476D02*
X15395476Y-12765571D01*
X15471667Y-12727476D02*
X15471667Y-12765571D01*
X15766905Y-13003667D02*
X15757381Y-12994143D01*
X15738333Y-12965571D01*
X15728809Y-12946524D01*
X15719286Y-12917952D01*
X15709762Y-12870333D01*
X15709762Y-12832238D01*
X15719286Y-12784619D01*
X15728809Y-12756048D01*
X15738333Y-12737000D01*
X15757381Y-12708428D01*
X15766905Y-12698905D01*
X15833571Y-12746524D02*
X15843095Y-12737000D01*
X15862143Y-12727476D01*
X15909762Y-12727476D01*
X15928809Y-12737000D01*
X15938333Y-12746524D01*
X15947857Y-12765571D01*
X15947857Y-12784619D01*
X15938333Y-12813190D01*
X15824048Y-12927476D01*
X15947857Y-12927476D01*
X16185952Y-12927476D02*
X16185952Y-12727476D01*
X16271667Y-12927476D02*
X16271667Y-12822714D01*
X16262143Y-12803667D01*
X16243095Y-12794143D01*
X16214524Y-12794143D01*
X16195476Y-12803667D01*
X16185952Y-12813190D01*
X16395476Y-12927476D02*
X16376428Y-12917952D01*
X16366905Y-12908428D01*
X16357381Y-12889381D01*
X16357381Y-12832238D01*
X16366905Y-12813190D01*
X16376428Y-12803667D01*
X16395476Y-12794143D01*
X16424048Y-12794143D01*
X16443095Y-12803667D01*
X16452619Y-12813190D01*
X16462143Y-12832238D01*
X16462143Y-12889381D01*
X16452619Y-12908428D01*
X16443095Y-12917952D01*
X16424048Y-12927476D01*
X16395476Y-12927476D01*
X16576428Y-12927476D02*
X16557381Y-12917952D01*
X16547857Y-12898905D01*
X16547857Y-12727476D01*
X16728809Y-12917952D02*
X16709762Y-12927476D01*
X16671667Y-12927476D01*
X16652619Y-12917952D01*
X16643095Y-12898905D01*
X16643095Y-12822714D01*
X16652619Y-12803667D01*
X16671667Y-12794143D01*
X16709762Y-12794143D01*
X16728809Y-12803667D01*
X16738333Y-12822714D01*
X16738333Y-12841762D01*
X16643095Y-12860809D01*
X16814524Y-12917952D02*
X16833571Y-12927476D01*
X16871667Y-12927476D01*
X16890714Y-12917952D01*
X16900238Y-12898905D01*
X16900238Y-12889381D01*
X16890714Y-12870333D01*
X16871667Y-12860809D01*
X16843095Y-12860809D01*
X16824048Y-12851286D01*
X16814524Y-12832238D01*
X16814524Y-12822714D01*
X16824048Y-12803667D01*
X16843095Y-12794143D01*
X16871667Y-12794143D01*
X16890714Y-12803667D01*
X16966905Y-13003667D02*
X16976429Y-12994143D01*
X16995476Y-12965571D01*
X17005000Y-12946524D01*
X17014524Y-12917952D01*
X17024048Y-12870333D01*
X17024048Y-12832238D01*
X17014524Y-12784619D01*
X17005000Y-12756048D01*
X16995476Y-12737000D01*
X16976429Y-12708428D01*
X16966905Y-12698905D01*
D16*
X12105000Y-13222000D02*
X12195000Y-13132000D01*
X12105000Y-13042000D01*
X12015000Y-13132000D01*
X12105000Y-13222000D01*
D11*
X12557381Y-13222476D02*
X12443095Y-13222476D01*
X12500238Y-13222476D02*
X12500238Y-13022476D01*
X12481190Y-13051048D01*
X12462143Y-13070095D01*
X12443095Y-13079619D01*
X12643095Y-13203428D02*
X12652619Y-13212952D01*
X12643095Y-13222476D01*
X12633571Y-13212952D01*
X12643095Y-13203428D01*
X12643095Y-13222476D01*
X12766905Y-13108190D02*
X12747857Y-13098667D01*
X12738333Y-13089143D01*
X12728809Y-13070095D01*
X12728809Y-13060571D01*
X12738333Y-13041524D01*
X12747857Y-13032000D01*
X12766905Y-13022476D01*
X12805000Y-13022476D01*
X12824048Y-13032000D01*
X12833571Y-13041524D01*
X12843095Y-13060571D01*
X12843095Y-13070095D01*
X12833571Y-13089143D01*
X12824048Y-13098667D01*
X12805000Y-13108190D01*
X12766905Y-13108190D01*
X12747857Y-13117714D01*
X12738333Y-13127238D01*
X12728809Y-13146286D01*
X12728809Y-13184381D01*
X12738333Y-13203428D01*
X12747857Y-13212952D01*
X12766905Y-13222476D01*
X12805000Y-13222476D01*
X12824048Y-13212952D01*
X12833571Y-13203428D01*
X12843095Y-13184381D01*
X12843095Y-13146286D01*
X12833571Y-13127238D01*
X12824048Y-13117714D01*
X12805000Y-13108190D01*
X12966905Y-13022476D02*
X12985952Y-13022476D01*
X13005000Y-13032000D01*
X13014524Y-13041524D01*
X13024048Y-13060571D01*
X13033571Y-13098667D01*
X13033571Y-13146286D01*
X13024048Y-13184381D01*
X13014524Y-13203428D01*
X13005000Y-13212952D01*
X12985952Y-13222476D01*
X12966905Y-13222476D01*
X12947857Y-13212952D01*
X12938333Y-13203428D01*
X12928809Y-13184381D01*
X12919286Y-13146286D01*
X12919286Y-13098667D01*
X12928809Y-13060571D01*
X12938333Y-13041524D01*
X12947857Y-13032000D01*
X12966905Y-13022476D01*
X13157381Y-13022476D02*
X13176428Y-13022476D01*
X13195476Y-13032000D01*
X13205000Y-13041524D01*
X13214524Y-13060571D01*
X13224048Y-13098667D01*
X13224048Y-13146286D01*
X13214524Y-13184381D01*
X13205000Y-13203428D01*
X13195476Y-13212952D01*
X13176428Y-13222476D01*
X13157381Y-13222476D01*
X13138333Y-13212952D01*
X13128809Y-13203428D01*
X13119286Y-13184381D01*
X13109762Y-13146286D01*
X13109762Y-13098667D01*
X13119286Y-13060571D01*
X13128809Y-13041524D01*
X13138333Y-13032000D01*
X13157381Y-13022476D01*
X13309762Y-13222476D02*
X13309762Y-13089143D01*
X13309762Y-13108190D02*
X13319286Y-13098667D01*
X13338333Y-13089143D01*
X13366905Y-13089143D01*
X13385952Y-13098667D01*
X13395476Y-13117714D01*
X13395476Y-13222476D01*
X13395476Y-13117714D02*
X13405000Y-13098667D01*
X13424048Y-13089143D01*
X13452619Y-13089143D01*
X13471667Y-13098667D01*
X13481190Y-13117714D01*
X13481190Y-13222476D01*
X13576428Y-13222476D02*
X13576428Y-13089143D01*
X13576428Y-13108190D02*
X13585952Y-13098667D01*
X13605000Y-13089143D01*
X13633571Y-13089143D01*
X13652619Y-13098667D01*
X13662143Y-13117714D01*
X13662143Y-13222476D01*
X13662143Y-13117714D02*
X13671667Y-13098667D01*
X13690714Y-13089143D01*
X13719286Y-13089143D01*
X13738333Y-13098667D01*
X13747857Y-13117714D01*
X13747857Y-13222476D01*
X14138333Y-13012952D02*
X13966905Y-13270095D01*
X14395476Y-13022476D02*
X14414524Y-13022476D01*
X14433571Y-13032000D01*
X14443095Y-13041524D01*
X14452619Y-13060571D01*
X14462143Y-13098667D01*
X14462143Y-13146286D01*
X14452619Y-13184381D01*
X14443095Y-13203428D01*
X14433571Y-13212952D01*
X14414524Y-13222476D01*
X14395476Y-13222476D01*
X14376428Y-13212952D01*
X14366905Y-13203428D01*
X14357381Y-13184381D01*
X14347857Y-13146286D01*
X14347857Y-13098667D01*
X14357381Y-13060571D01*
X14366905Y-13041524D01*
X14376428Y-13032000D01*
X14395476Y-13022476D01*
X14547857Y-13203428D02*
X14557381Y-13212952D01*
X14547857Y-13222476D01*
X14538333Y-13212952D01*
X14547857Y-13203428D01*
X14547857Y-13222476D01*
X14681190Y-13022476D02*
X14700238Y-13022476D01*
X14719286Y-13032000D01*
X14728809Y-13041524D01*
X14738333Y-13060571D01*
X14747857Y-13098667D01*
X14747857Y-13146286D01*
X14738333Y-13184381D01*
X14728809Y-13203428D01*
X14719286Y-13212952D01*
X14700238Y-13222476D01*
X14681190Y-13222476D01*
X14662143Y-13212952D01*
X14652619Y-13203428D01*
X14643095Y-13184381D01*
X14633571Y-13146286D01*
X14633571Y-13098667D01*
X14643095Y-13060571D01*
X14652619Y-13041524D01*
X14662143Y-13032000D01*
X14681190Y-13022476D01*
X14814524Y-13022476D02*
X14947857Y-13022476D01*
X14862143Y-13222476D01*
X15062143Y-13022476D02*
X15081190Y-13022476D01*
X15100238Y-13032000D01*
X15109762Y-13041524D01*
X15119286Y-13060571D01*
X15128809Y-13098667D01*
X15128809Y-13146286D01*
X15119286Y-13184381D01*
X15109762Y-13203428D01*
X15100238Y-13212952D01*
X15081190Y-13222476D01*
X15062143Y-13222476D01*
X15043095Y-13212952D01*
X15033571Y-13203428D01*
X15024048Y-13184381D01*
X15014524Y-13146286D01*
X15014524Y-13098667D01*
X15024048Y-13060571D01*
X15033571Y-13041524D01*
X15043095Y-13032000D01*
X15062143Y-13022476D01*
X15224048Y-13222476D02*
X15262143Y-13222476D01*
X15281190Y-13212952D01*
X15290714Y-13203428D01*
X15309762Y-13174857D01*
X15319286Y-13136762D01*
X15319286Y-13060571D01*
X15309762Y-13041524D01*
X15300238Y-13032000D01*
X15281190Y-13022476D01*
X15243095Y-13022476D01*
X15224048Y-13032000D01*
X15214524Y-13041524D01*
X15205000Y-13060571D01*
X15205000Y-13108190D01*
X15214524Y-13127238D01*
X15224048Y-13136762D01*
X15243095Y-13146286D01*
X15281190Y-13146286D01*
X15300238Y-13136762D01*
X15309762Y-13127238D01*
X15319286Y-13108190D01*
X15395476Y-13022476D02*
X15395476Y-13060571D01*
X15471667Y-13022476D02*
X15471667Y-13060571D01*
X15766905Y-13298667D02*
X15757381Y-13289143D01*
X15738333Y-13260571D01*
X15728809Y-13241524D01*
X15719286Y-13212952D01*
X15709762Y-13165333D01*
X15709762Y-13127238D01*
X15719286Y-13079619D01*
X15728809Y-13051048D01*
X15738333Y-13032000D01*
X15757381Y-13003428D01*
X15766905Y-12993905D01*
X15881190Y-13022476D02*
X15900238Y-13022476D01*
X15919286Y-13032000D01*
X15928809Y-13041524D01*
X15938333Y-13060571D01*
X15947857Y-13098667D01*
X15947857Y-13146286D01*
X15938333Y-13184381D01*
X15928809Y-13203428D01*
X15919286Y-13212952D01*
X15900238Y-13222476D01*
X15881190Y-13222476D01*
X15862143Y-13212952D01*
X15852619Y-13203428D01*
X15843095Y-13184381D01*
X15833571Y-13146286D01*
X15833571Y-13098667D01*
X15843095Y-13060571D01*
X15852619Y-13041524D01*
X15862143Y-13032000D01*
X15881190Y-13022476D01*
X16185952Y-13222476D02*
X16185952Y-13022476D01*
X16271667Y-13222476D02*
X16271667Y-13117714D01*
X16262143Y-13098667D01*
X16243095Y-13089143D01*
X16214524Y-13089143D01*
X16195476Y-13098667D01*
X16185952Y-13108190D01*
X16395476Y-13222476D02*
X16376428Y-13212952D01*
X16366905Y-13203428D01*
X16357381Y-13184381D01*
X16357381Y-13127238D01*
X16366905Y-13108190D01*
X16376428Y-13098667D01*
X16395476Y-13089143D01*
X16424048Y-13089143D01*
X16443095Y-13098667D01*
X16452619Y-13108190D01*
X16462143Y-13127238D01*
X16462143Y-13184381D01*
X16452619Y-13203428D01*
X16443095Y-13212952D01*
X16424048Y-13222476D01*
X16395476Y-13222476D01*
X16576428Y-13222476D02*
X16557381Y-13212952D01*
X16547857Y-13193905D01*
X16547857Y-13022476D01*
X16728809Y-13212952D02*
X16709762Y-13222476D01*
X16671667Y-13222476D01*
X16652619Y-13212952D01*
X16643095Y-13193905D01*
X16643095Y-13117714D01*
X16652619Y-13098667D01*
X16671667Y-13089143D01*
X16709762Y-13089143D01*
X16728809Y-13098667D01*
X16738333Y-13117714D01*
X16738333Y-13136762D01*
X16643095Y-13155809D01*
X16814524Y-13212952D02*
X16833571Y-13222476D01*
X16871667Y-13222476D01*
X16890714Y-13212952D01*
X16900238Y-13193905D01*
X16900238Y-13184381D01*
X16890714Y-13165333D01*
X16871667Y-13155809D01*
X16843095Y-13155809D01*
X16824048Y-13146286D01*
X16814524Y-13127238D01*
X16814524Y-13117714D01*
X16824048Y-13098667D01*
X16843095Y-13089143D01*
X16871667Y-13089143D01*
X16890714Y-13098667D01*
X17138333Y-13146286D02*
X17290714Y-13146286D01*
X17214524Y-13222476D02*
X17214524Y-13070095D01*
X17528810Y-13041524D02*
X17538333Y-13032000D01*
X17557381Y-13022476D01*
X17605000Y-13022476D01*
X17624048Y-13032000D01*
X17633571Y-13041524D01*
X17643095Y-13060571D01*
X17643095Y-13079619D01*
X17633571Y-13108190D01*
X17519286Y-13222476D01*
X17643095Y-13222476D01*
X17871667Y-13212952D02*
X17890714Y-13222476D01*
X17928810Y-13222476D01*
X17947857Y-13212952D01*
X17957381Y-13193905D01*
X17957381Y-13184381D01*
X17947857Y-13165333D01*
X17928810Y-13155809D01*
X17900238Y-13155809D01*
X17881190Y-13146286D01*
X17871667Y-13127238D01*
X17871667Y-13117714D01*
X17881190Y-13098667D01*
X17900238Y-13089143D01*
X17928810Y-13089143D01*
X17947857Y-13098667D01*
X18071667Y-13222476D02*
X18052619Y-13212952D01*
X18043095Y-13193905D01*
X18043095Y-13022476D01*
X18176429Y-13222476D02*
X18157381Y-13212952D01*
X18147857Y-13203428D01*
X18138333Y-13184381D01*
X18138333Y-13127238D01*
X18147857Y-13108190D01*
X18157381Y-13098667D01*
X18176429Y-13089143D01*
X18205000Y-13089143D01*
X18224048Y-13098667D01*
X18233571Y-13108190D01*
X18243095Y-13127238D01*
X18243095Y-13184381D01*
X18233571Y-13203428D01*
X18224048Y-13212952D01*
X18205000Y-13222476D01*
X18176429Y-13222476D01*
X18300238Y-13089143D02*
X18376429Y-13089143D01*
X18328810Y-13022476D02*
X18328810Y-13193905D01*
X18338333Y-13212952D01*
X18357381Y-13222476D01*
X18376429Y-13222476D01*
X18433571Y-13212952D02*
X18452619Y-13222476D01*
X18490714Y-13222476D01*
X18509762Y-13212952D01*
X18519286Y-13193905D01*
X18519286Y-13184381D01*
X18509762Y-13165333D01*
X18490714Y-13155809D01*
X18462143Y-13155809D01*
X18443095Y-13146286D01*
X18433571Y-13127238D01*
X18433571Y-13117714D01*
X18443095Y-13098667D01*
X18462143Y-13089143D01*
X18490714Y-13089143D01*
X18509762Y-13098667D01*
X18585952Y-13298667D02*
X18595476Y-13289143D01*
X18614524Y-13260571D01*
X18624048Y-13241524D01*
X18633571Y-13212952D01*
X18643095Y-13165333D01*
X18643095Y-13127238D01*
X18633571Y-13079619D01*
X18624048Y-13051048D01*
X18614524Y-13032000D01*
X18595476Y-13003428D01*
X18585952Y-12993905D01*
M02*
